<svg version="1" xmlns="http://www.w3.org/2000/svg" width="937.333" height="937.333" viewBox="0 0 703.000000 703.000000"><path d="M323 2.5c-.5 1.4-1.4 5.5-2 9.2-.7 3.8-3 14.9-5.2 24.8-2.1 9.9-4.6 21.6-5.3 26-.8 4.4-2.1 12-2.9 17-3.1 17.8-3.1 19.1-.7 19.8 2.9.7 2.7 2.7-.3 2.7-2.2 0-2.4.4-3.1 9.1-.4 5.8-1.7 12-3.6 17.5-1.6 4.6-2.9 8.9-2.9 9.5 0 .7 1.9-1.3 4.2-4.3 7.1-9.2 15.7-14.7 26.3-16.8 3.4-.7 15.7-1.2 28.5-1.3 24.2-.1 25.8.2 36.5 5.5 14.2 7.1 21.9 16.7 30.1 37.8 2 5.2 4 9.9 4.4 10.5.4.5 1.1 2.8 1.5 5 1.6 8.9 15.8 33.7 26.7 46.6 8.7 10.3 15.9 19.9 14.9 19.9-1.4 0-16.9-17.3-24.3-27.2-5.4-7.2-6.8-8.5-7.3-6.9-.8 2.7-4 3.2-5.9.9-.9-1-2.1-1.6-2.7-1.3-.5.4-1.9-.4-3-1.6-1.7-2-2.2-2.1-3-.9-.8 1.2-.9 1-.4-.6.3-1.3 0-2.6-.9-3.3-1.2-1-1.4-.7-1 2.1l.5 3.3-2.1-2.5-2.2-2.5.6 2.7c.4 1.6.2 2.8-.4 2.8-.5 0-1-.5-1-1 0-1.5-5.3-.1-6.7 1.8-.7.9-1.3 1.1-1.3.6 0-.6-1.5-1.5-3.3-2.2-1.8-.6-4.1-1.9-5.2-2.7-4.9-3.7-9.5-6.3-12.3-7-1.7-.3-4.2-1.5-5.5-2.5-1.3-1-3.5-2-4.8-2.2-1.3-.2-3.4-.9-4.6-1.6-1.7-.9-2.8-1-4.3-.2s-1.8.8-1.4-.3c.7-1.8-3.7-3.1-4.8-1.4-.5.8-.8.6-.8-.6 0-1.3-.5-1.7-1.9-1.2-1 .3-3 .1-4.5-.4-1.4-.6-2.6-.7-2.6-.3 0 .4-.8.8-1.8.9-1 .1-4.4 1.3-7.5 2.8-3.2 1.4-6.1 2.3-6.6 2-.5-.2-1.2.2-1.5 1.1-.3.8-1.1 1.2-1.7.9-1.2-.8-6.8 4.3-6.9 6.2 0 .7-.9 1.7-2 2.3-1.1.6-2 2-2 3 0 1.1-.3 2-.8 2-.4 0-1.3 1.5-2 3.2-.8 1.8-1.7 4.2-2.2 5.3-.6 1.7-1 1.2-2-2.6-1.1-4.5-2.4-5.7-7.2-7.3-1.2-.3-1.8 0-1.8 1 0 .9.9 1.8 2 2.1 1.1.3 2 1 2.1 1.7 0 .6.2 1.9.4 2.8.2 1-.1 1.8-.6 1.8s-.9-.4-.9-.9-1-1.1-2.2-1.3c-1.3-.2-2.2-.9-2-1.6.1-.6-.7-1.2-1.7-1.2-1.1 0-2.3-.5-2.6-1-.3-.6-1.1-1-1.8-1-.8 0-.8.3.1 1.2.7.7 1.2 1.9 1.2 2.7 0 1.3-.2 1.3-.9.2-.7-1-1-1-1.6-.1-.4.7-.2 1.6.6 2.1 1 .6 1.1 1.1.3 1.9-2 2-6.6-1.5-8.6-6.5-2.4-6.1-3.4-19.6-1.9-26.5.6-3 .8-5.7.3-6.2s-.9-.3-.9.4c-.1.7-.7 4-1.3 7.3-1.2 5.9-.9 20.3.5 23.7.4 1 .3 1.8-.3 1.8-1.4 0-3.2-10.3-3.2-18.6 0-4 .7-10.5 1.5-14.5.9-4 1.3-7.4 1-7.7-.3-.3-.5-.1-.5.5s-1.2 2.7-2.6 4.8c-1.4 2.1-2.6 4.6-2.7 5.6-.1 1-.7 2.1-1.4 2.3-.7.3-1.3 1-1.3 1.6 0 .6.6.8 1.3.4.7-.4.9-.3.4.2s-1.4.9-2 .9c-.7 0-1.2 1-1.2 2.2 0 1.1-.4 2.5-.8 2.9-.4.5-.5.1-.1-.9 1.2-3.3-.6-1.7-3.9 3.5-4.6 7.2-14.1 19-26.1 32.4-2.1 2.4-5.8 7.2-8.2 10.6-2.4 3.5-6.5 9.4-9.1 13.1-6.6 9.4-11.4 17-15.9 24.7-8.8 15.3-25 42-28.9 47.5-2.3 3.3-6.3 9.6-9 14-2.6 4.4-6.6 10-8.9 12.5-2.3 2.5-5.7 7.2-7.5 10.5-1.9 3.3-4.1 6.8-4.8 7.7-.8.9-2.5 5.6-3.8 10.5-1.2 4.8-3.7 12.8-5.5 17.8-1.8 4.9-4.6 13-6.2 18-1.6 4.9-6.1 18.2-9.9 29.5-8.3 24.5-11 33.7-14.4 48.9-1.4 6.3-2.8 11.7-3 12.1-.2.3-1.3 5.1-2.4 10.5-1.2 5.5-3 14.3-4.1 19.5-1.2 5.2-2.5 12.2-3 15.5-1.1 7.3-5 19.2-8.4 26-1.4 2.7-3.6 9.1-5 14.1-3.3 12.4-4.5 14.6-13 24.1-4.1 4.5-8.7 10.3-10.1 12.7-3.4 5.8-9.7 20.7-9.1 21.4 1.2 1.1 6.6-2.3 7.8-4.9.7-1.6 1.6-2.9 2-2.9.5 0 .8-.9.8-2 0-1 .6-2.3 1.3-2.7 1.4-.9 6.1-7.6 8.6-12.5 1-1.8 3-3.9 4.5-4.6 2.1-1.1 2.6-2 2.6-5.2 0-3 .5-4 2-4.5 1.1-.3 2-1.3 2-2.1s.3-1.3.8-1.2c.4.1 2-.6 3.5-1.6 2-1.3 2.5-2.2 1.8-2.9-1.6-1.6-1.3-4.4.7-5.9.9-.7 2.6-3 3.7-5.1 1.1-2 2.3-3.7 2.7-3.7.5 0 .8-.6.8-1.4 0-.8.9-1.8 2-2.1 1.1-.3 2-1.1 2-1.6s.7-.9 1.5-.9c.9 0 1.5-.9 1.5-2.4 0-2.9 4.2-6.6 7.4-6.6 1.1 0 3 .7 4 1.5 1.1.8 2.8 1.5 3.8 1.5 1.3 0 1.8.8 1.8 3 0 3.2 1.6 3.9 3.9 1.7 1.1-1 1.3-1 .7 0-.5 1 .4 1.3 3.2 1.3 2.2 0 5.8.6 8 1.4 2.2.8 4.2 1.2 4.5 1 .2-.3 2.3 1.2 4.6 3.2 2.9 2.6 4.1 4.5 4.1 6.5s.6 2.8 2.3 3.3c2.6.6 4.3 3.4 5.1 8.6.3 2 1.9 5.1 3.5 7 3.1 3.8 11.6 8.9 12.8 7.7.4-.4-1.6-3.1-4.4-6-5.8-6-12-15.1-17-25.2-2-3.8-5.9-10.8-8.7-15.4-4.7-7.7-5.1-8.9-5.4-15.7-.3-6 .2-9.2 2.8-17.9 1.7-5.9 3-11.1 2.8-11.7-.5-1.3-8.8 6.9-11.3 11.3-1.5 2.5-2.9 3.5-5 3.7-1.7.2-4 1.3-5.2 2.5-1.9 1.6-2.3 1.7-2.3.5 0-.9.7-2.1 1.5-2.8.8-.7 1.4-2 1.4-2.9-.1-1.3-.2-1.3-.6.2-.2.9-.8 1.7-1.3 1.7-1 0-.7-3.6.5-6.3.4-1 .4-2.1 0-2.5-.4-.4-1-.1-1.2.5-.3.7-1.6 1.3-3 1.3-2.1 0-2.3-.3-1.4-1.4.9-1.1.8-1.8-.5-3-1.5-1.6-1.5-1.8.5-3.5 1.3-1.1 3.2-1.7 4.8-1.5 1.6.2 2.2.1 1.6-.2-.7-.3-1.3-1.4-1.3-2.5s-.5-1.6-1.4-1.3c-1.8.7-3.1-4.3-1.6-6.1.8-1 .7-1.5-.2-1.9-.7-.3-.3-.3.8-.1 2.8.7 4-2.2 1.9-4.5-1.4-1.6-1.4-1.9.7-3.3 1.9-1.4 2.1-1.8.8-2.6-1.2-.9-1.2-1.2.2-2.8 1.6-1.8 1.4-4.8-.3-3.8-.5.4-.6-.1-.3-.9.9-2.3 2.6-1.5 5.3 2.4 2.6 3.8 5.6 7 6.6 7 .4 0 1.3.6 2.1 1.4 1.9 1.9 4.9 1 9-2.9 1.9-1.8 3.4-3 3.4-2.7 0 .8 9.3-13.6 11.3-17.4.8-1.6 2-4.9 2.7-7.4.6-2.5 2.8-7.4 4.8-11 6.5-11.7 16.9-33.4 18.7-39 1-3 3.3-10 5.1-15.5 1.8-5.5 4-13.4 4.9-17.5 2.6-12.7 5.1-16.7 18.8-30.2 7.1-7 14.5-15.4 17.2-19.6 4.9-7.5 7.7-10.2 10.7-10.2 1 0 1.8-.3 1.8-.8.1-.4 1.1-2 2.4-3.5l2.3-2.9-.3 5.4-.3 5.3.9-4.5c1.7-8.2 2-9 3.4-9 1.8 0 2.2 1.4 2.5 7.5.5 14 7.5 26.1 18.3 31.6 5.2 2.7 16.7 3.7 23.3 2 19.1-4.8 38.2-24.2 43.5-44.4.7-2.6 1.6-5 2-5.2 1-.6-2.3 11.3-3.9 14.3-.6 1.2-1 2.6-.7 3.1.3.4-.5 1.9-1.7 3.2-1.2 1.3-2.1 2.6-2 2.9.3 1-13.3 15.7-16.7 18.1-1.9 1.3-4.3 3.1-5.2 3.9-3.9 3.5-14.1 6.5-22.3 6.5-4.4 0-9.3-.3-11-.7l-3-.7 3 1.4c4.8 2.3 16.4 1.9 23.8-.8 9.8-3.6 15.5-7.3 23.4-15.4 5.1-5.2 7.1-6.7 7-5.3-.1 1.1-.4 2-.7 2-.4 0-1.6 1.3-2.8 2.9-1.5 2.1-1.7 2.9-.7 2.7 1.9-.3 5.6-3.7 5-4.7-.3-.4.9-1.7 2.5-2.9 2.8-2 3.8-4.6 1.5-3.8-.6.2-.9.6-.8 1 .2.4-.6.6-1.7.5-2.4-.2-2.5-.5-.5-2.7.9-1 3.1-4.8 5-8.6s3.5-6.2 3.5-5.4c0 .8-1.4 3.9-3 6.9-2.3 4.1-2.7 5.7-1.9 6.8 1.3 1.5 3.9 0 3.9-2.3 0-.8.5-1.4 1-1.4.6 0 1 .2 1 .5 0 1-5.3 9-8.9 13.5-2 2.4-3.7 5.2-3.7 6.2-.1 1.6 0 1.6 2.5-.1 4.1-2.9 9.3-9 8.6-10.1-.3-.6.1-1 .9-1 .9 0 1.6-.5 1.6-1.1 0-.5-.5-.7-1.1-.3-.8.5-.8.1 0-1.4 1.3-2.4 1.7-2.7 5.4-3.6 1.9-.4 2.6-.3 2.2.4-.3.5-1.4 1-2.4 1-2.6 0-4.6 2.6-2.7 3.3.8.3 1.7-.1 2-.9.3-.9 1.1-1.2 1.8-.8.8.5.3 1.5-1.6 3.1-1.5 1.2-2.5 2.3-2.1 2.3.3 0-.2 1.1-1.1 2.6-1.3 1.9-1.4 2.8-.5 3.7 1 .9 1.1.8.5-.7-.6-1.6-.4-1.8 1-1.3 1.4.6 1.7.3 1.2-.9-.4-1.1.1-1.8 1.4-2.1 1.1-.3 1.8-.9 1.5-1.3-.3-.5-.2-1.1.3-1.4.4-.2 1.4.5 2.1 1.6 1.1 1.8 1.1 2-.3 1.5-.8-.3-1.8-.2-2.1.3-.4.6.1 1 .9 1 .9 0 1.6.4 1.6 1 0 .5-.4 1-1 1-1.5 0 0 2.8 1.8 3.5 1.3.5 1.4.3.5-.6-1.4-1.4-.6-3.9 1.3-3.9.8 0 1.1-.6.8-1.5-.4-.8-.1-1.5.6-1.5.8 0 1 .9.6 2.5-.8 3.1.9 3.3 1.9.2.6-1.9.8-1.9 1.2-.5.6 2.6 2.3 2.2 2.4-.5v-2.2l.9 2.2c1.5 3.7 3.5 2.7 5.2-2.4 1.1-3.2 1.6-4 1.7-2.5.1 2.1.4 2.2 3.6 1.6l3.5-.6v4.4c0 7 3.6 19.2 7.3 25.1 3.9 6.1 8.3 10.1 14.4 13 4.1 2 6.3 4.7 2.6 3.2-3.7-1.5-5.6-1.8-5-.8.4.6-.6 1.3-2.4 1.7-1.7.3-2.8 1-2.4 1.6.3.5.1 1-.4 1-.6 0-1.1-.5-1.1-1.2 0-.9-.3-.9-1.2 0-1.6 1.6-3.3 1.5-2-.1.6-.7.7-1.8.3-2.6-.6-1-1-1-1.6-.1-.5.8-1.4.5-3.1-1.1-1.4-1.3-2.4-1.7-2.4-1s-.4.9-1 .6c-.5-.3-1 .1-1 1.1 0 .9-.8 2.3-1.7 3-1.7 1.2-1.6 1.3.7 1.4 2.5.1 2.5.1.2 1-1.2.5-3 .7-4 .4-1.3-.5-1.4-.4-.3.4 1.5 1.1 4.3 8.3 3.5 9.1-.2.3-1-.1-1.6-.7-1.9-1.9-2.8-1.4-2.8 1.3 0 1.7-.4 2.3-1.5 1.9-.8-.4-1.7.1-2.1 1-.3.9-1.4 1.6-2.3 1.6-1.1.1-.8.5.9 1.5 3.5 2 4.2 1.8 3.5-.6-.5-1.5-.4-1.9.4-1.4.7.4 1.9.1 2.8-.7 1.3-1 1.7-1 2-.1.3.7 1.2 1.3 2.1 1.3 1.3 0 1.3.3.4 1.2-1 1-1.7 1-3.2 0-1.7-1-2-1-2 .2 0 .8.5 1.8 1 2.1.6.3 1 1.5 1 2.6 0 2.1 2.5 2.6 3.3.6.4-.7.6-.8.6-.1.2 2-2.8 3.9-4.1 2.6-1.7-1.7-2.7-1.5-2.1.6.2 1-.3 2.4-1.1 3.1-.9.8-1.5 2.5-1.5 4 .1 1.7.3 2 .6.8.2-.9.8-1.7 1.3-1.7s1.6-.3 2.5-.6c1-.4.6.4-1 2-2.8 2.8-7.2 2.8-6.1 0 1-2.6-.9-1.4-2.6 1.7-1.4 2.4-2.1 2.8-3.5 2.1-3.2-1.7-9.3-2.4-9.3-1.1 0 .6.6.9 1.4.6 1.6-.6 4 1.6 2.9 2.6-1.3 1.4 4 .7 7.4-.9 2.9-1.4 3.8-1.5 5.8-.4 2.5 1.4 2.5 3-.1 3-.9 0-1.4.6-1.1 1.2.2.7-.3 1.8-1.2 2.5-2.8 2.2.6 1.5 9.8-2.1 11.7-4.5 16.5-7.1 23.1-12.1 6.9-5.4 18.9-17.8 22.2-23 4.6-7.3 8.4-9.1 16.3-7.9 6.4.9 7.5 3.9 8.5 23.3.8 14.9 1.8 25.9 4.1 45.6.8 6.4.8 11.3 0 16.8-1.4 9.8-1.4 65.4-.1 72.8.6 3.5.7 20.3.2 47.4l-.9 42-3.6 8.1c-2 4.4-4.2 10.3-4.8 13.1-1.2 5.2-.8 8.1 3.4 23.3.8 3 1.8 8.5 2.2 12.2l.7 6.8h23.5l1.2-4.1c1-3.3 1-4.4-.1-5.7-1.1-1.3-1.1-1.5.5-.9 1 .4 1.7.2 1.7-.6.4-9.9 2.2-28.1 3.5-34.7 1.7-9.2 1.3-16.4-1.2-19.2-1.3-1.4-1.2-1.7.4-2.7 1.7-1 1.7-1 .1-1.1-2.2 0-2.4-2.6-.3-3.4.8-.3 1.4 0 1.2.7-.1.6.7 1.3 1.9 1.5 1.9.3 2.2-.6 3.8-12.7 1-7.1 1.5-13.4 1.2-14-.4-.6-.2-1.1.4-1.1.7 0 1-.6.7-1.3-.2-.6 0-2 .5-3 .5-1.1.5-1.7-.2-1.7-.5 0-1 .6-1 1.4 0 .8-.7 1.6-1.5 2-1.8.6-2-.5-.4-2.1.9-.9.7-1.1-.9-.6-1.8.4-1.9.8-.9 3.1.9 2 .9 2.6-.1 3-.6.2-1.2.8-1.2 1.3 0 .6.6.7 1.3.3.6-.4.1.4-1.2 1.9-1.2 1.4-2 3-1.6 3.6.3.6 0 1.4-.9 1.7-.8.3-1.2 1.2-.9 2 .3.8-.1 1.4-.9 1.4-1.2 0-1.5-1.6-1.4-7.5.1-5.2.5-7.4 1.3-7.1.6.3 1.4-.5 1.7-1.6.6-2.6-.1-4.1-1.6-3.2-.6.4-.5 1 .3 1.5.9.6 1 .9.2.9-1.7 0-5.3-4.9-5.3-7.2 0-1.2.4-1.6 1.2-1.2.6.4.8.3.5-.3-.4-.6 0-1.9.8-2.9.7-1 1.1-2.9.8-4.2-.3-1.3-.1-2.2.7-2.2.6 0 .9.4.6.9-.4.5.5.8 1.9.6 3.5-.3 4.5-1.5 1.4-1.5-3.3 0-6.4-5.8-4.3-7.8.8-.7 1.4-2.3 1.4-3.6 0-1.4.9-2.8 2.5-3.6 2.5-1.3 3.6-6 1.4-6-.5 0-.7-.5-.4-1 .4-.6 1-.8 1.5-.5.5.3 1.2 0 1.6-.6.4-.8.3-.9-.4-.5-.8.4-1.2 0-1.2-1.1 0-1.5-.2-1.6-1-.3-.8 1.2-1 1.1-1-.7 0-1.2.6-2.4 1.3-2.7 1-.5 1-.7 0-1.2-.7-.3-1.3-1.4-1.3-2.5 0-1-.4-1.9-.9-1.9s-.7-.9-.4-2.1c.4-1.4.9-1.7 1.6-1 1.5 1.5 3 1.4 2.4-.3-.3-.7 0-1.9.6-2.5.8-.8.8-1.1-.2-1.1-2 0-.1-2.1 3.3-3.6 2.4-1 2.6-1.3 1-1.4-2.6 0-4.4-1.9-4.3-4.5 0-1.1.3-1.4.6-.8.7 1.8 2.3 1.6 2.3-.2 0-.8.7-1.5 1.5-1.5s1.2-.6.9-1.4c-.3-.8-1.2-1.2-2-.9-1.7.6-1.8-.9-.2-2.5.9-.9 1.5-.7 2.5.6 1.3 1.5 1.4 1.2.8-2.3-.4-2.6-.3-3.5.4-2.6 1 1.6 3.1.6 3.1-1.5 0-.8.5-1.2 1-.9.6.4.7 1.1.4 1.7-.5.7-.2.8.6.3s1-2.1.7-4.6c-.4-3.4-.2-3.9 1.4-3.9 1 0 1.9.4 1.9 1 0 .5-.4 1-.9 1-.6 0-.6 1.2-.1 2.9.4 1.6.6 3.2.3 3.5-1.3 1.3-1.7 9.4-.8 14.5l.6 3.4 1.3-2.5c1.9-3.6 3.8-17.1 3.9-27.9.1-11.2-1.2-47-1.9-51.6-.4-3-.7-3.2-3.7-2.7-2.4.4-2.8.3-1.7-.5 1.2-.9 1.3-1.4.2-2.8-.6-1-1.7-2.9-2.3-4.3-.6-1.4-1.5-3.3-2-4.2-1.2-2.3.3-3 3.6-1.8 1.4.5 3.1 1 3.6 1s.9-8 .9-19.3c0-10.5.7-26 1.5-34.2.8-8.3 1.5-19.1 1.5-24 0-5 .4-11.7 1-15 .5-3.3 1.2-10.2 1.4-15.3.3-5.1.7-9.6 1-10.1.3-.5 1-7.1 1.6-14.7.5-7.7 1.4-17.3 2-21.4.6-4.1 1.2-9.1 1.4-11 .2-1.9 1.1-5.7 2-8.3.9-2.8 1.6-7.9 1.6-12.3 0-6.9-.2-7.5-1.7-6.9-1 .4-2.5.8-3.3.8-.8 0-1.8.5-2.2 1.1-.5.7-.8.7-.8-.2 0-1.6-2.4-4.2-3.9-4.2-.9 0-1.4-2.5-1-5.7 0-.4-.9-1-2-1.5-1.3-.5-2.1-1.6-2-3 .1-2.2.1-2.2.9.2.8 2.4.8 2.4.9.2.1-1.2.6-2.2 1.1-2.2.6 0 1-.7 1-1.5s-.4-1.5-1-1.5c-.5 0-1 .7-1 1.5 0 1.1-.5 1.2-2.6.5-3.3-1.3-3.4-1.3-3.4.6 0 .9-.6 1.4-1.2 1.1-.7-.2-1.2-1-1-1.6.1-.6-.9-1.1-2.2-1.1-1.6 0-2.6-.7-3-2.3-.4-1.6-.8-1.9-1.4-.9-.5.7-1.6 1-2.6.6-1.3-.5-1.7-.2-1.4 1.1.2 1-.3 2-.9 2.2-.8.3-1.3-.5-1.3-2.2 0-1.5-.4-2.4-1-2-1.9 1.2-4.3-2.4-3.7-5.5.6-2.8.5-2.9-2.8-2.5-3.2.4-3.4.3-2.6-1.8.5-1.2 1.2-2.2 1.7-2.3 1.8-.2 4.4-1.6 4.4-2.5 0-.5-1.1-.9-2.4-.9-1.4 0-2.8-.5-3.1-1-.3-.6.3-1 1.3-1 1.5 0 1.9-.5 1.5-1.9-.4-1.5-1-1.8-2.6-1.2-1.2.5-2.2 1.6-2.2 2.6s-.6 2-1.4 2.3c-1 .3-1.2 0-.7-1.3.3-1 .1-2.5-.6-3.3-1.1-1.3-1-1.5.5-.9 2.5.9 4.6-3.6 2.9-6.3-.8-1.4-.8-2.1-.1-2.6.6-.4 1.5-.1 1.9.6.6.9.9 1 1.5 0 .4-.7.1-1.6-.6-2.1-1-.6-.7-.9 1.1-1 1.4-.1 1.8-.3 1-.5-.9-.3-2.1-1.8-2.7-3.4-1.1-2.8-1-3 1.4-3 1.8 0 2.4-.4 2-1.4-.5-1.2 1.1-2.6 2.8-2.6.6 0-2.8 6.5-3.8 7.1-.5.4.4.6 2.1.5 1.7-.1 3.4-.5 3.9-.9.4-.5 0-.5-1-.1-1.9.7-2.5-2-.7-3.1.5-.3.9-2.1.7-3.8-.2-2.6.1-3.1 1.6-2.9.9.2 1.7-.2 1.7-.8 0-.6-.4-.9-.9-.5-.5.3-1.2.1-1.6-.5-1-1.7-2.1-1.1-3.2 1.7-1 2.6-1 2.6-.6-.9.7-4.8-.3-8.8-2.3-8.8-.8 0-1.2-.5-.9-1 .9-1.5 3.5-1.2 3.5.4 0 .8.5 2.7 1.1 4.3.8 2.1 1.3 2.4 1.8 1.3 2.3-5.2 5.5-9.1 7.2-8.7 1 .3 2-.2 2.4-1.1.4-1.2.8-1.3 1.3-.5.5.7 1.3.9 2.1.4 1.1-.7 1-1.1-.6-1.9-1-.6-2.7-1-3.8-.9-2.5.3-4.5-4.7-2.7-6.5 1-1 1.7-1 3.2 0 2.5 1.6 2.8-.5.3-2.3-1.5-1.1-1.6-1.7-.3-5.6.8-2.4 1.3-5.1 1.2-5.9-.3-2.4.8-6 1.8-6 .5 0 1.2 1.1 1.6 2.5.3 1.4 1 2.2 1.5 2 .4-.3.4-1.7-.1-3.1-.6-1.4-.8-3-.5-3.5.4-.5-.1-.6-.9-.3-.9.3-1.6.1-1.6-.5s-1.4-2-3-3c-2.6-1.5-2.8-2-1.6-3 1.2-1 1.6-.8 2.1.8.3 1.2 1.3 2.1 2.1 2.1 1.6 0 1.9-2.7.3-3.2-1.4-.5-2.1-5.8-.8-5.8.8 0 1.3 2.2 1 4.2 0 .5.3.8.8.8s1.1.9 1.4 2c.3 1.1.1 2-.4 2s-.9.4-.9 1c0 1.7 2 1.1 2.7-.8.3-.9 1.5-2.5 2.7-3.5 1.2-1 1.5-1.6.7-1.5-.7.2-1.6-.3-1.8-1.1-.4-.9 0-1.1 1.6-.6 1.2.4 2.1.2 2.1-.4 0-.6-.3-1-.7-1-2.2.4-3.2-.3-2.7-1.6.4-1 0-1.5-1.2-1.6-1.8 0-1.7-.1.1-.9 1.1-.5 1.4-.9.7-.9-2-.1-4.4-2.8-3.2-3.6 1.3-.8 1.3-4.5 0-4.5-.5 0-.7-.7-.4-1.5.4-.8-.1-1.7-1-2.1-.9-.3-1.4-1-1.1-1.4.3-.4-.2-1.3-.9-1.9-2.1-1.7-1.5 1.3.7 3.7 1.5 1.6 1.5 2.1.3 3.8-.8 1-1.8 1.6-2.2 1.2-.4-.4-1.2-.4-1.8.1-2.1 1.6-4.5 2-4 .8.2-.7-.4-1.3-1.6-1.4-1.1-.1-2 .4-2 1.3 0 1.9-1.6 1.8-2.4-.1-.5-1.3-.9-1.2-2.6.5-2.6 2.6-1.7 4.5 1.2 2.9 1.9-1 2-.9 1.5 1-.3 1.2-.1 1.9.4 1.5.5-.3.9-.1.9.5 0 .5-.6 1.2-1.2 1.4-.8.3-.5.6.5.6 1.5.1 1.8-.5 1.4-2.7-.2-1.5-.2-2.1 0-1.5.3.7.8 1.3 1.3 1.3s1.1-.6 1.4-1.3c.3-.6.3 0 0 1.5-.4 1.8-.1 2.9 1.1 3.6 1.3.7.4.9-3.3.8-2.8 0-5-.5-4.9-1 .1-.5-.4-1.1-1.2-1.4-1-.3-1.2 0-.8 1.2.4 1 .7 2.2.7 2.7 0 .6.5.7 1 .4.6-.3 1 0 1 .9 0 .8.6 1.6 1.3 1.9.6.2.9.7.5 1.1-1 1.2-5.7-3.5-5.1-5 .3-.8-.4-1.8-1.8-2.3l-2.4-1h2.3c2.6-.1 2.7-.8.7-3.5-1.7-2.3-1.9-3.6-.5-3.6 1.2 0 4.3-3 5.9-5.6 1-1.8 1-1.8 1.1-.1 0 1 .5 1.5 1 1.2 1.9-1.2 1-3.5-1.2-3.5-1.3 0-3-.5-3.8-1-1.1-.7-.6-.9 1.7-.6 1.8.2 3.9.8 4.6 1.5 2.6 2.1 2.7-.2.2-3.1-2.8-3.3-3.3-5.3-1.1-4.5 1.9.7 3.1-2.4 1.4-3.5-1-.8-1-1.1 0-1.5 2-.8 1.3-2.6-.9-2-1.2.3-2.2 0-2.5-.8-.3-.7-1.2-1.6-2-1.9-1.7-.6 1.8 4.9 4.6 7.2 1.3 1.2 1.3 1.3-.1.9-.9-.3-2.1.4-2.8 1.6-1.1 1.7-1.1 2.1.3 2.9 2.3 1.3 2 2.7-.5 2.1-1.1-.3-2.3-1.3-2.7-2.2-.3-.9-.9-1.8-1.2-2.1-1.2-.9-2-7-1-7 .6 0 1 .5 1 1.1 0 .5.5.7 1 .4 1.8-1.1 1.1-2.5-1.7-3.6-1.4-.5-3.2-1.7-3.9-2.7-1.2-1.6-1.3-1.6-1.4.2 0 1 .8 2.5 1.7 3.2 1 .7 1.5 1.5 1.1 1.9-.3.4-1.5-.2-2.5-1.2-2.3-2.1-4.3-2.7-4.3-1.3 0 .6.5 1 1 1 .6 0 1 .7 1 1.5 0 .9-.6 1.2-1.6.8-1.1-.4-1.4-1.4-1-3.4.3-1.6.1-3.1-.5-3.5-.6-.3-.8-1.2-.5-1.9.2-.7-.2-1.6-1-1.9-.9-.3-1.2-1.1-.9-1.6.5-.8 1.1-.8 2 0 1 .8 1.7.6 2.9-1.1.8-1.3 1.9-1.9 2.3-1.5.4.4.1 1.1-.7 1.6-1.3.8-1.3 1.1.1 2.5 1.5 1.5 1.7 1.5 2.3 0 .3-.9.2-1.3-.4-1-.6.3-1 .1-1-.4 0-.6.5-1.1 1.2-1.1.6 0 .3-.9-.7-2-1.7-1.9-1.9-1.9-3.1-.2-1.2 1.6-1.3 1.6-1.9 0-.4-1-1.1-1.5-1.6-1.2-.5.3-.5-.6.1-2 .9-2.5-.2-3.8-1.3-1.6-.3.6-.4.5-.3-.2.5-2.5 3.1-1.4 2.8 1.2l-.4 2.5 2.9-2.5c1.5-1.4 3-2.7 3.3-2.9.3-.2-.3-.1-1.3.2-1.2.5-1.7.3-1.5-.5.2-.6 2.3-1.2 4.7-1.3 2.6-.1 3.9.1 3.3.7-.5.5-.7 1.9-.5 2.9.5 1.9.6 1.9 1.8-.3.6-1.3.8-2.8.3-3.4-.4-.6-.6-3.2-.4-5.8.3-2.5.1-4.6-.5-4.6-.5 0-.9.6-.9 1.2 0 .7-1.1 0-2.5-1.5-2.2-2.3-2.9-2.6-4.8-1.6-1.6.9-2.2.9-2.5 0-.3-.8-.8-.6-1.7.5-1 1.5-1.1 1.2-.7-1.7.4-2.8.2-3.2-.9-2.1-.7.7-1.3 3.1-1.2 5.5l.1 4.2-.7-4.5c-.5-2.8-.4-4.7.2-5.1.5-.4.6-1.2.2-1.8-.5-.9-1.1-.7-2 .6-.8 1-1.7 1.4-2.2.9-.4-.5-.2-1.1.5-1.3 1.4-.5 1.6-3 .3-3.5-.4-.2-1.1-1.4-1.5-2.8-.6-2.5-.6-2.5.6-.2.8 1.6 1.7 2.1 3.2 1.7 1.5-.5 1.7-.4.7.3s-1 1.1-.1 1.7c.6.4 1.7-.1 2.5-1.1.7-1.1.9-2.1.4-2.2-.5-.2-.9-1-.9-1.8s-1-1.5-2.2-1.5c-1.8-.1-1.6-.3.7-.8 1.8-.4 3.1-1.4 3.3-2.5.3-1.3 0-1.6-.9-1.1-.9.6-1.1.3-.6-.9.4-1 .7-2 .7-2.3 0-.3.7 0 1.5.7s1.5 2 1.5 3-.7 2-1.5 2.4c-2 .7-1.9 3.3.1 4.4 1.5.8 1.5 1 0 1.5-2.5 1-1.9 3 .7 2.4 2.1-.6 2.1-.6.3.8-1.6 1.2-2.2 1.2-2.8.2-.4-.6-.8-.8-.8-.2.1.5.6 1.8 1.4 2.7 1.2 1.6 1.4 1.6 2.9-.3.9-1 2.2-1.9 2.9-1.9.8.1.6.6-.4 1.4-1.7 1.3-2.5 3.6-1.2 3.6.4 0 1.3-.8 2.1-1.8 1.2-1.4 1.4-1.5 1-.1-.7 2 3.8 4.5 4.9 2.7.5-.7.3-.8-.6-.3-.8.5-1.1.4-.6-.3.4-.6 1.3-.9 2.1-.5.8.3 1.5 0 1.5-.6s-1.1-1.1-2.4-1.1c-3.4 0-4.1-1.6-1.1-2.4 2.5-.6 3.6-3.6 1.4-3.6-.8 0-.8-.5.1-1.5 1.6-1.9.1-1.9-2.4 0-1.7 1.3-1.7 1.5-.3 2.1.9.3 1.4 1.1 1 1.7-.4.6-1 .5-1.7-.5-.6-.8-1.5-1.5-2.1-1.6-.5 0-1.1-.6-1.4-1.3-.2-.7.1-.9.9-.4s1.8.2 2.4-.7c.6-.8 1.9-1.7 2.9-2.1 2.1-.8 2.2-2.6.2-3.3-.8-.4-1.5-1.2-1.5-2 0-2.4 4 2.3 4.1 4.8.1 2.1.2 2.1.6.3.3-1.1.9-2.3 1.4-2.6.5-.3.5-1.9-.2-3.7-.6-1.8-1.5-2.9-2-2.6-1.2.7-1.1-.3.1-2.6.6-1.2.7-2.1 0-2.5-.5-.3-.7-1.2-.3-2 .3-.8 0-1.5-.6-1.5s-1.1 1.1-1.1 2.5c0 3.1-1.7 3.3-2.2.2l-.3-2.2-2.3 2.3c-1.2 1.2-2 2.7-1.7 3.2.4.6.2 1-.4 1-3.5 0-.1-5.3 4.6-7.1 2.6-1 2.3-2.9-.5-2.9-1.4 0-1.2-.4.7-1.9 2.1-1.6 2.3-2.3 1.6-5.7-.4-2.1-1.1-4.4-1.7-5.1-.6-.8-.6-1.9.1-3.2.7-1.3.8-2.2.1-2.6-.7-.4-.7-1.2 0-2.5 1-1.8.5-1.9-12-1.9-11 0-13 .2-13 1.5 0 .8-.5 1.2-1 .9-.6-.4-.8-1-.5-1.5.3-.6-2.9-.9-7.4-.8-7.2.2-8.1.4-8.4 2.2-.4 1.9-.4 1.9-.6-.2L432 0l-36.4.1c-26.9 0-36.6.4-37 1.2-.3.9-.5.9-.5-.1-.1-1.8-5.2-1.5-6.7.5-1.2 1.7-1.3 1.7-1.4.1 0-1.5-1.5-1.7-13-1.7-12.9 0-13.1 0-14 2.4zm22.7 2.7c-.3.8-.6.5-.6-.6-.1-1.1.2-1.7.5-1.3.3.3.4 1.2.1 1.9zm106 2c-.3.8-.6.5-.6-.6-.1-1.1.2-1.7.5-1.3.3.3.4 1.2.1 1.9zm-7.6 4.5c-.9 1.5-1 1.4-.7-.7.6-3.5.7-3.7 1.2-2.3.3.7.1 2-.5 3zm5.5 2.1c-.4.3-1.1 0-1.6-.8-1.5-2.4-1.1-3.3.6-1.5.9.9 1.3 1.9 1 2.3zm-3.9.8c-.3.3-1.2.4-1.9.1-.8-.3-.5-.6.6-.6 1.1-.1 1.7.2 1.3.5zm-.6 2.3c1.1-1.8 2.1-.6 1.3 1.5-.5 1.3-.9 1.4-2 .5-.8-.6-1.4-1.7-1.3-2.3 0-.6.3-.5.6.3.4 1.1.7 1.1 1.4 0zm-7.9 2.3c-.7.7-1.2.8-1.2.2 0-1.4 1.2-2.6 1.9-1.9.2.3-.1 1.1-.7 1.7zm30 2c-.7.7-1.2.8-1.2.2 0-1.4 1.2-2.6 1.9-1.9.2.3-.1 1.1-.7 1.7zm-24 2c-.7.7-1.2.8-1.2.2 0-1.4 1.2-2.6 1.9-1.9.2.3-.1 1.1-.7 1.7zm10.9 1.3c.5-.4.9-.1.9.4 0 1.4-1.6 1.4-4.1 0-1.1-.5-1.7-1.4-1.4-2 .4-.5 1.3-.3 2.1.6.9.8 2 1.3 2.5 1zm7.3-.9c.3.8.2 1.2-.4.9-.6-.3-1-1-1-1.6 0-1.4.7-1.1 1.4.7zm-33.9.4c.3.6-.1.7-.9.4-1.8-.7-2.1-1.4-.7-1.4.6 0 1.3.4 1.6 1zm40.5 0c0 .5-.5 1-1.1 1-.5 0-.7-.5-.4-1 .3-.6.8-1 1.1-1 .2 0 .4.4.4 1zm-8.7 3.7c-.7.3-1.3 1.1-1.3 1.8s.6 1.6 1.3 1.8c.7.4.6.6-.5.6-.9.1-1.8.6-2 1.3-.3.7-.7.5-1.1-.6-.5-1.1-.3-1.5.5-1s.9.2.5-.9c-.3-.9-.1-1.9.4-2.3.6-.3.8-1.5.5-2.7-.5-1.9-.4-1.9 1.2-.2 1.3 1.3 1.4 1.9.5 2.2zM439 26c0 .5-.2 1-.4 1-.3 0-.8-.5-1.1-1-.3-.6-.1-1 .4-1 .6 0 1.1.4 1.1 1zm-11.5 1.8c-.3.3-1.1 0-1.8-.7-.9-1-.8-1.1.6-.5 1 .3 1.5.9 1.2 1.2zm40.1 1.9c-1 1-1.9-.5-1-1.8.6-1.1.8-1.1 1.2 0 .2.7.1 1.5-.2 1.8zm-2.9.5c-.2.7 1.6 2.8 3.9 4.7 3.6 2.8 4.3 3.8 4 6.2-.1 1.6-.6 3.2-1.1 3.7-.4.4-.5-1-.1-3.1.5-2.8.4-3.7-.7-3.7-.7 0-2.6-1.3-4.2-3-1.5-1.6-3.2-2.7-3.7-2.4-1.2.8-1-.5.5-2.1 1.5-1.8 2-1.9 1.4-.3zM340.5 32c.3.5.2 1-.4 1-.5 0-1.3-.5-1.6-1-.3-.6-.2-1 .4-1 .5 0 1.3.4 1.6 1zm4.8 1c-.9 1.1-1.9 1.7-2.1 1.5-.6-.6 1.8-3.5 2.9-3.5.5 0 .1.9-.8 2zm130.4 1c.3 1 .2 1.1-.4.4-.4-.6-1.5-1.4-2.3-1.7-1.1-.5-.9-.6.4-.4 1.1.1 2.1.9 2.3 1.7zm-2.2 1c.3.5.1 1-.4 1-.6 0-1.1-.5-1.1-1 0-.6.2-1 .4-1 .3 0 .8.4 1.1 1zM342 36c0 .5-.4 1-1 1-.5 0-1-.5-1-1 0-.6.5-1 1-1 .6 0 1 .4 1 1zm5 .4c0 .2-.9.6-2 .9-1.1.3-2 .1-2-.4s.9-.9 2-.9 2 .2 2 .4zm133.3 1.5c.3 1.4.1 1.8-.9 1.4-1.5-.6-1.8-1.6-.7-2.6.9-1 1-.9 1.6 1.2zm-90.9 4.6c-.4 1.6-.3 1.7.5.5 1-1.3 1.2-1.3 2 0 1.1 1.6-2.2 4.6-3.8 3.5-.5-.3-1.2-.1-1.6.5-.4.6.6 1 2.4 1h2.9l-1.5 3.1c-1 2-2 2.8-3 2.5-1.2-.5-1.4-.1-.9 1.8.4 1.6 0 3-1 4.1-2.1 2.1-2.9 1.3-1.2-1.4 1-1.7 1-2.3-.1-3.3-.8-.7-1.1-.8-.8-.2.4.6-.3 2-1.6 3-1.2 1-1.6 1.2-.9.4 1.4-1.6 1.6-4.4.2-3.5-.5.3-2.5.6-4.5.7-2.3.1-3.5.6-3.5 1.5 0 .8-.4 1.1-1 .8-.5-.3-1-.2-1 .3s-1 2-2.3 3.4c-1.7 1.9-2.2 3.5-2.1 7.2.1 3.2-.3 4.9-1.2 5.3-.8.3-1.4.9-1.4 1.4 0 .4.6.6 1.4.3.8-.3 1.7-.1 2.1.5.3.6.1 1.1-.5 1.1-.7 0-1 .6-.7 1.4.3.8.1 1.7-.6 2-.7.2-.4.5.6.5.9.1 2.6-.8 3.7-1.9 1.1-1.1 3.1-2 4.4-2 2.6 0 4.8-1.9 2.4-2.1-.7 0 .2-.7 2-1.5 1.7-.8 3.2-1.9 3.2-2.4 0-.6.7-1 1.6-1 .8 0 1.2.4.9 1-.3.5-.1 1 .4 1 1.5 0 1.4-2.7-.1-3.3-.9-.4-.6-1.1 1-2.4 1.6-1.3 2.1-2.5 1.7-3.8-.6-1.8-.5-1.8.7-.4.7.9 2.3 1.5 3.5 1.4 1.5-.1 2.3.5 2.8 2.2.3 1.3.3 2.8 0 3.3s-.1 1.1.4 1.4c.5.3.7 1.5.4 2.6-.3 1.1-.1 2 .3 2 .5 0 .9 7.4.9 16.3 0 12.4.3 16.8 1.4 18 1.1 1.4 1.1 1.7 0 1.7-1 0-1 .3-.3.8 1.4.8 1.5 6.2.2 6.2-.5 0-2.1-.6-3.6-1.4-7.3-3.7-16.7-4.7-38.5-4-29.6.8-34.5 1.8-44.6 8.5l-3.4 2.3.5-2.1c.3-1.2.1-2.4-.6-2.6-1.6-.6.7-4.2 2.7-4.1.9.1 1.3-.4 1-1.2-.8-2.2.6-6.6 1.9-5.8.8.5.9 0 .5-1.5s-.2-2.1.7-1.8c.8.3 1.1-.7 1.1-3-.1-2.4.2-3.2 1.1-2.9.7.3 2.1-.3 3.1-1.2 1.1-.9 1.4-1.4.8-1.1-.5.4-1.9.3-3-.1-1.8-.7-1.7-.8 1-1.5 5.1-1.2 5.5-1.4 4.9-3-.4-.9-.3-1.5.2-1.4 2.1.4 2.5-.2 1.3-1.8-1.3-1.5-1.2-1.5.7-.5s2.3.9 2.7-1c.4-1.2.3-2.6-.1-3.2-.3-.6-.5-2-.3-3 .2-1.4-.2-1.7-1.3-1.3-.9.4-1.6.2-1.6-.3 0-.6.7-1 1.5-1s1.5-.4 1.5-.8c0-1.5-2.2-3-3.6-2.5-1.6.6-1.8-.6-.4-2.7.9-1.3 1.3-1.1 3 .9 1.1 1.3 2.3 2.1 2.7 1.8.7-.8-4.8-5.3-6-4.9-1.3.4-1.9-2.6-.8-4.5.6-1 1.1-1.3 1.1-.6 0 .7 1.1 2.3 2.5 3.7 2.5 2.5 3.3 2.3 1.6-.4-.6-.8-.7-1.8-.4-2.3.3-.5.9-.3 1.4.4.6 1.1 1.1 1.1 2 .2.6-.6 1.7-.9 2.3-.7.7.3 2.3-.7 3.6-2.1 1.3-1.4 1.9-2.5 1.3-2.5-.5 0-1.5-1.1-2.1-2.5-.6-1.4-.8-2.5-.3-2.5s1.1 1 1.5 2.2c.7 2.9 2.7 1.1 2.9-2.6.2-3.1 1.3-3.4 2-.6.3 1.1 1.1 2 1.9 1.9 1 0 1-.2.1-.6-.7-.2-1.3-1.6-1.3-2.9 0-1.4-.7-2.7-1.5-3-.8-.4-1.5-1.3-1.5-2 0-1.1.4-1.2 1.9-.5 1.6.9 1.8.8 1.4-.8-.4-1.4.1-1.8 1.9-1.7 1.7.1 2.4-.5 2.6-2.3.2-1.3-.2-2.8-1-3.2-.9-.6-.6-.9 1-.9 1.3 0 2.1.4 1.8.9-1.1 1.7-1.5 10.1-.4 10.1.5 0 .8-.7.4-1.5-.3-.8-.1-1.5.5-1.5s.9-.6.6-1.4c-.3-.8.1-1.7.9-2 .9-.3 1.4.1 1.4 1.3 0 1 .7 2.4 1.5 3.1 1 .9 1.5.9 1.5.1 0-1.5 2.7-1.4 3.6.1.4.7.3.8-.4.4s-1.2-.2-1.2.3c0 .6.7 1.1 1.5 1.1s1.5-.5 1.5-1c0-.6.7-1 1.5-1s1.5.4 1.5 1c0 1.4 4.3.6 4.8-.8.2-.7.8-1.2 1.3-1.2.6 0 .7.4.4 1-.3.5-.1 1 .5 1s1.3-.7 1.6-1.5c1-2.5 2.1-1.7 2.1 1.5 0 1.6-.4 3-.9 3-.4 0-.8-.5-.8-1.1 0-.6-.9-.8-2.2-.4-3.8 1.2-4.3 2.4-.9 2 2.8-.4 3-.3 1.6 1.1-1.9 1.9-1.9 2.5 0 1.8.8-.4 1.5-1 1.5-1.4 0-1 3.9-2.5 5.6-2.2.6.1 1.9-.7 2.9-1.8 1.2-1.4 1.4-2 .5-2-.7 0-1.9.8-2.6 1.7-1.3 1.7-1.3 1.7-1.4 0 0-.9-.6-1.7-1.2-1.8-.9 0-.9-.2.1-.6 1-.4.8-.9-1-1.9l-2.4-1.3 2.6-.1c1.4 0 3 .5 3.7 1.2.8.8 1.2.9 1.2.1 0-.6-.5-1.3-1.2-1.5-.6-.2-.8-1-.4-1.7.6-.9 1.1-.9 2.2 0s1.4.8 1.4-.2c0-1.2.2-1.2.9 0 1.3 2 3 .5 2.4-2-.5-1.9-.4-2 1.6-.8 1.4.9 1.9 2 1.5 3.4zm67.1-2.5c.3.6-.1.7-.9.4-1.8-.7-2.1-1.4-.7-1.4.6 0 1.3.4 1.6 1zM346 42.6c0 2.1-1.7 1.7-2.3-.5-.3-1.4-.1-1.8.9-1.4.8.3 1.4 1.1 1.4 1.9zm102-.5c0 .5-.4.9-1 .9-.5 0-1-.7-1-1.6 0-.8.5-1.2 1-.9.6.3 1 1 1 1.6zM342 43c0 .5-.4 1-1 1-.5 0-1-.5-1-1 0-.6.5-1 1-1 .6 0 1 .4 1 1zm125 0c0 .5-.4 1-1 1-.5 0-1-.5-1-1 0-.6.5-1 1-1 .6 0 1 .4 1 1zm-129 7c0 .5-.2 1-.4 1-.3 0-.8-.5-1.1-1-.3-.6-.1-1 .4-1 .6 0 1.1.4 1.1 1zm55 3.1c0 1.6-.4 2.8-.9 2.5-.5-.3-.8.5-.7 1.8 0 1.3.4 2.2.9 1.9.4-.2.7.3.7 1.1s-.4 1.8-1 2.1c-.5.3-1 .5-1 .3s-.4-1.7-.9-3.4c-.6-2.3-.5-4 .6-6.3 1.9-3.9 2.3-3.9 2.3 0zm65 4.9c0 .5-.5 1-1.1 1-.5 0-.7-.5-.4-1 .3-.6.8-1 1.1-1 .2 0 .4.4.4 1zm15.6 3.2c2.2 2.5 2.6 5.9.8 6.5-.7.2-1-.6-.9-2.2.2-1.4-.1-2.3-.6-1.9-.5.3-.9-.2-.9-1 0-.9-.4-1.6-1-1.6-.5 0-1-.5-1-1 0-1.7 1.5-1.1 3.6 1.2zM457 63.1c0 .6-.4.7-1 .4-.5-.3-1-1.1-1-1.6 0-.6.5-.7 1-.4.6.3 1 1.1 1 1.6zm2.2 2.4c-.7 1.5-1.7 2.3-2.3 1.9-.8-.5-.7-.9.4-1.5 1-.6 1.3-1.7 1-3.1-.5-1.9-.3-2.1.7-1.1 1.1 1 1.1 1.8.2 3.8zM327.5 63c.3.5.1 1-.4 1-.6 0-1.1-.5-1.1-1 0-.6.2-1 .4-1 .3 0 .8.4 1.1 1zm57.9.9c.3.5 0 1.1-.7 1.4-.8.3-1.4-.1-1.4-.9 0-1.6 1.3-1.9 2.1-.5zm67.1 3c-.6.5-2.5-1-2.5-2 0-.5.6-.4 1.4.3.8.7 1.2 1.5 1.1 1.7zm16.1.8c-.4.4-1.1.1-1.6-.7-1.6-2.5-1.1-3.5.7-1.7.9.9 1.3 2 .9 2.4zm3.4-.9c0 1.5-.2 1.5-1 .2-1.3-2-1.3-3.3 0-2.5.6.3 1 1.4 1 2.3zM415 68c0 .5-.4 1-1 1-.5 0-1-.5-1-1 0-.6.5-1 1-1 .6 0 1 .4 1 1zm47 .4c0 .3-.4.8-1 1.1-.5.3-1 .1-1-.4 0-.6.5-1.1 1-1.1.6 0 1 .2 1 .4zm-63.3 2.8c-.3.8-.6.5-.6-.6-.1-1.1.2-1.7.5-1.3.3.3.4 1.2.1 1.9zM410 76c-.8.5-1.7.7-1.9.4-.3-.3.1-.9.9-1.4.8-.5 1.7-.7 1.9-.4.3.3-.1.9-.9 1.4zm6.4.6c.9 2.4.7 3.1-.4 1.4-.8-1.3-1-1.3-1 .1 0 .9.7 2 1.6 2.3.9.4 1.4.9 1.1 1.3-1.2 1.1-3.7-1.9-3.7-4.3 0-2.7 1.5-3.2 2.4-.8zm-11 1.9c-.6 1.6-2.4 2.1-2.4.7 0-1.1 1.1-2.2 2.1-2.2.5 0 .6.7.3 1.5zm6.6-.5c0 .5-.5 1-1.1 1-.5 0-.7-.5-.4-1 .3-.6.8-1 1.1-1 .2 0 .4.4.4 1zm12.8 1.6c1.8.3 1.8.4 2.5 3.9.4 1.6.4 2.4.1 1.7-.3-.6-1.2-1.2-2.1-1.2-1 0-1.2-.6-.8-2.1.6-1.8.5-1.9-1.3-1-3.2 1.7-4.4 1.4-3-.8.7-1.1 1.7-1.7 2.3-1.3.5.3 1.6.7 2.3.8zm28.6-.8c.2.4-.4.8-1.5.8-1 0-1.9-.4-1.9-.8s.6-.8 1.4-.8c.8 0 1.7.4 2 .8zM408.7 81c.1 1.1-.2 2.2-.8 2.5-.5.3-.6-.1-.3-.9.4-1 .1-1.6-.7-1.6-1.1 0-1.1-.3.1-1 .8-.5 1.5-1 1.5-1 .1 0 .1.9.2 2zm5.3 2c0 .5-.4 1-1 1-.5 0-1-.5-1-1 0-.6.5-1 1-1 .6 0 1 .4 1 1zm-10 1c0 .5-.2 1-.4 1-.3 0-.8-.5-1.1-1-.3-.6-.1-1 .4-1 .6 0 1.1.4 1.1 1zm59 1.5c0 .8-.7 1.5-1.5 1.5-.9 0-2 1.1-2.5 2.4-.8 2.2-3 4.5-3 3.1 0-.8 2.2-4.5 4-6.7 1.8-2.2 3-2.3 3-.3zm-52.2 1.8c-.8.6-2.2 2.3-3.2 3.7-.9 1.4-1.6 1.8-1.6 1 0-1.6 5.1-7.2 5.9-6.5.2.3-.2 1.1-1.1 1.8zm21.7-.3c-.3.5-1.2 1-1.8 1-.7 0-.6-.4.3-1 1.9-1.2 2.3-1.2 1.5 0zm-30.2 1.5c-.3.9-.8 1.4-1 1.1-.3-.3-.2-.9.2-1.5.9-1.6 1.5-1.3.8.4zm43.1 0c-.4.8-.7 1.5-.9 1.5-.2 0-.5-.7-.9-1.5-.3-.9 0-1.5.9-1.5s1.2.6.9 1.5zm-31.1 2.2c-.7.2-1.9.2-2.5 0-.7-.3-.2-.5 1.2-.5s1.9.2 1.3.5zm47.7.3c0 .5-.4 1-1 1-.5 0-1-.5-1-1 0-.6.5-1 1-1 .6 0 1 .4 1 1zm-21 1c0 .5-.2 1-.4 1-.3 0-.8-.5-1.1-1-.3-.6-.1-1 .4-1 .6 0 1.1.4 1.1 1zm5 1c0 .5-.4 1-1 1-.5 0-1-.5-1-1 0-.6.5-1 1-1 .6 0 1 .4 1 1zm-19 1c0 .5-.5 1-1.1 1-.5 0-.7-.5-.4-1 .3-.6.8-1 1.1-1 .2 0 .4.4.4 1zm41.3 6.1c1.5 1.5 2.7 3.2 2.7 3.8 0 .6.3 1 .8 1 1.8-.3 3.2.2 3.2 1.2 0 .6-.7.9-1.5.6-2.2-.9-2.9 1.3-.9 2.8 1.6 1.1 1.6 1.5.5 2.9-1 1.2-1.7 1.4-2.7.5-1.1-.9-1.4-.7-1.4 1 0 1.1.5 2.1 1 2.1.6 0 1 .7 1 1.6 0 .8.5 1.2 1 .9 1.4-.8 1.3.8-.1 2.2-.7.7-.8 2.4-.4 4.5.7 2.9.9 3.1 1.7 1.3.6-1.6.7-1.4.3.7-.4 2-.1 2.8.8 2.8.8 0 2.2.9 3.2 2 1.9 2 1.8 2-1.6.6-1.9-.8-3.5-2.1-3.7-2.9-.2-.9-1.3-1.7-2.4-1.9-1.2-.2-2.4-1-2.6-1.8-.5-1.3-.3-1.3 1.2-.1.9.8 2 1.1 2.3.7.4-.4.2-1.1-.6-1.5-.7-.5-1.2-1.7-1.1-2.7.4-3.6 0-6.4-1-6.4-.5 0-.9 1-.8 2.2.1 3.7-.1 4.8-1.3 4.8-.5 0-.7-.5-.4-1 .8-1.4-4.7-.1-5.6 1.3-.4.5-.9.5-1.3-.2-.4-.5.2-1.9 1.4-3.1 1.9-1.9 2.5-1.8 2.1.4-.1.5.5.4 1.3-.4.9-.7 1.6-.9 1.6-.5 0 .5.3.5.7.2.3-.4-.1-1.5-.9-2.4-.8-1-1.8-3.2-2.2-4.8-.5-2.2-.4-2.6.4-1.5.5.8 1 2.3 1 3.2 0 2.3 2.7 1.3 3.5-1.3.5-1.4 1.2-1.8 2.6-1.4 1.4.5 1.7.3 1.3-.9-.3-.9-1.2-1.6-2-1.6s-1.4-.5-1.4-1c0-.6.5-1 1-1 .6 0 1-.9 1-2 0-2.3-.4-2.4-3-1-1.3.7-2.1.7-2.5 0-.4-.6-.3-.9.2-.8 1.4.5 1.4-1.1-.2-4.8-1.8-4.3-1.9-5.7-.2-2.9.7 1.1 2.4 3.1 4 4.6zm4.1-5.5c2.2.9 2 2.4-.3 2.4-1.1 0-2.1.6-2.4 1.2-.2.7-.8.9-1.3.5-.5-.5-.1-1.4.9-2.2 1.3-1 1.5-1.4.5-1.8-.8-.4-.9-.6-.1-.6.6-.1 1.8.2 2.7.5zM435 96.2c0 .4-.9.8-2 .8s-2-.4-2-.8.9-.8 2-.8 2 .4 2 .8zm21-.2c0 .5-.8 1-1.7 1-1.5 0-1.6-.2-.3-1 1.9-1.2 2-1.2 2 0zm-31.1.9c.7.5.9 1.1.5 1.4-.5.3-1.5-.1-2.2-.9-1.4-1.6-.5-1.8 1.7-.5zm38 3.8c-.2 2.4-.2 2.5-.6.5-.2-1.2-.9-2.2-1.4-2.2-.5 0-.9 1-1 2.2 0 1.3-.3 1.7-.6 1-.7-1.9.4-4.2 2.2-4.2 1 0 1.5.9 1.4 2.7zm12.1-.2c1.6 1.9 0 1.9-2.6 0-1.6-1.2-1.6-1.4-.3-1.5.9 0 2.2.7 2.9 1.5zm-21 4.5c0 .5-.5 1-1.1 1-.5 0-.7-.5-.4-1 .3-.6.8-1 1.1-1 .2 0 .4.4.4 1zm8.6-.2c.7.4.8 1.5.3 2.7-.7 1.9-.8 1.9-.8-.2-.1-1.7-.5-2.1-1.8-1.6-1.1.4-1.4.3-.9-.5.8-1.4 1.6-1.5 3.2-.4zm-21.6 2.6c0 .3-.4.8-1 1.1-.5.3-1 .1-1-.4 0-.6.5-1.1 1-1.1.6 0 1 .2 1 .4zm24.7 1.8c-.3.8-.6.5-.6-.6-.1-1.1.2-1.7.5-1.3.3.3.4 1.2.1 1.9zm10.9 1.5c-1.1 1.1-1.9-.6-1.1-2.4.8-1.7.8-1.7 1.2 0 .3 1 .2 2.1-.1 2.4zM460 109c0 .5-.7 1-1.5 1s-1.5-.5-1.5-1c0-.6.7-1 1.5-1s1.5.4 1.5 1zm-12 2.1c0 .6-.4.7-1 .4-.5-.3-1-1.1-1-1.6 0-.6.5-.7 1-.4.6.3 1 1.1 1 1.6zm13 1.9c.6 1.1.7 2 .2 2-.6 0-1.2-.9-1.5-2-.3-1.1-.3-2-.1-2 .2 0 .8.9 1.4 2zm-27.5 0c.3.5.1 1-.4 1-.6 0-1.1-.5-1.1-1 0-.6.2-1 .4-1 .3 0 .8.4 1.1 1zm19.5-.2c0 1.3-1.2 2.2-2.2 1.6-1-.6-.1-2.4 1.3-2.4.5 0 .9.4.9.8zm5 .2c0 .5-.7.7-1.5.4-.8-.4-1.5-.8-1.5-1 0-.2.7-.4 1.5-.4s1.5.4 1.5 1zm38.2 1.2c-.7.7-1.2.8-1.2.2 0-1.4 1.2-2.6 1.9-1.9.2.3-.1 1.1-.7 1.7zm-51.5.6c-1.3 1.4-1.4 2.1-.5 3 .8.8.9 1.2.1 1.2-1.9 0-2.1-2.4-.5-4.3.8-.9 1.7-1.7 2-1.7.3 0-.2.8-1.1 1.8zm3.6-.3c-.3.9-.8 1.4-1 1.1-.3-.3-.2-.9.2-1.5.9-1.6 1.5-1.3.8.4zm45.7.9c0 .9-3 1.4-3.5.6-.4-.6.3-1 1.4-1 1.2 0 2.1.2 2.1.4zm-4.3 4.6c.2.2.8-.2 1.4-1 .8-1.3 1-1.3 1.9 0 .8 1.2 1.1 1.3 1.9.1.6-.9 1.1-1 1.5-.2 1.2 1.8-.3 3.1-2.7 2.3-1.2-.5-3.1-.7-4.2-.7-1.5.2-2-.5-2.2-2.4-.1-2.3 0-2.4.9-.6.6 1.1 1.3 2.2 1.5 2.5zm1.3 3c0 .5-.4 1-1 1-.5 0-1-.5-1-1 0-.6.5-1 1-1 .6 0 1 .4 1 1zm7.6 5.7c-.9.9-2.7-4.8-1.9-6 .4-.7 1.1.3 1.6 2.2.4 1.8.6 3.6.3 3.8zm-41.6-1c-1.1 1.7-1.1 1.7-.6 0 .3-1 .6-2.4.7-3 0-.9.2-.9.5 0 .3.7 0 2-.6 3zm6.2-.5c-.7.7-1.2.8-1.2.2 0-1.4 1.2-2.6 1.9-1.9.2.3-.1 1.1-.7 1.7zm23.5-.4c1.7 1.3 2.1 2.3 1.6 4.2-.7 2.5-.7 2.5-1.3-.5-.4-2.1-1.2-3.1-2.8-3.3-1.2-.2-2-.8-1.7-1.3.8-1.3 1.7-1.1 4.2.9zm-31.7.6c0 .3-.4.8-1 1.1-.5.3-1 .1-1-.4 0-.6.5-1.1 1-1.1.6 0 1 .2 1 .4zm9.7 2c-.3.7-.1 1.8.4 2.3.7.7.5 1.2-.5 1.6-1.1.4-1.3.1-.9-1 .5-1.2.2-1.5-1-1-.9.3-1.7.2-1.7-.3 0-.6.7-1 1.5-1s1.5-.5 1.5-1c0-.6.3-1 .6-1s.4.6.1 1.4zm6.8 3.4c-.3.3-1.1 0-1.8-.7-.9-1-.8-1.1.6-.5 1 .3 1.5.9 1.2 1.2zm.9 2.4c-.3.4-1.2.8-2 .8s-1.4-.4-1.4-.8.9-.8 1.9-.8c1.1 0 1.7.4 1.5.8zm-6.4.2c0 .3-.4.8-1 1.1-.5.3-1 .1-1-.4 0-.6.5-1.1 1-1.1.6 0 1 .2 1 .4zm10.5 1.7c-1 1.5-2.5 1-1.9-.6.4-.8 1-1.2 1.5-.9.5.3.7 1 .4 1.5zm16.5.6c0 2-.3 2.4-1.1 1.6-.7-.7-.9-1.9-.6-2.7 1-2.4 1.7-1.9 1.7 1.1zm-20.6.2c.2.3-1.1.6-3 .6-3.2 0-4.1-.5-2.9-1.7.7-.6 5.4.2 5.9 1.1zm4.6 1.5c0 .2-.7.7-1.6 1-.8.3-1.2.2-.9-.4.6-1 2.5-1.4 2.5-.6zm-12 1.6c0-1.3.1-1.3 1 0 .6.9.5 1.7-.3 2.2-1.1.7-2.7-.8-2.7-2.7 0-.6.5-.3 1 .5.9 1.3 1 1.3 1 0zm20 0c0 .5-.4 1-1 1-.5 0-1-.5-1-1 0-.6.5-1 1-1 .6 0 1 .4 1 1zm5.7 2.2c-.3.7-.5.2-.5-1.2s.2-1.9.5-1.3c.2.7.2 1.9 0 2.5zM419 145c1.1 2.1 2 4.3 2 4.7 0 1-3.4-4.5-4.3-7-1.2-3.1.2-1.8 2.3 2.3zm67.4-.6c-.3 1.4-1 2.6-1.4 2.6-.5 0-.3-1.3.3-3 1.3-3.5 2.1-3.3 1.1.4zm-9.4-2c0 .2-.7.7-1.6 1-.8.3-1.2.2-.9-.4.6-1 2.5-1.4 2.5-.6zm15.2 3.8c-.7.7-1.2.8-1.2.2 0-1.4 1.2-2.6 1.9-1.9.2.3-.1 1.1-.7 1.7zm-3.4.8c-.7 1.1-1.5 1.5-1.7.9-.2-.6.3-1.5 1-2 2-1.2 2.1-1.1.7 1.1zm-15 7.1c-.3.8-.7.3-1.1-1-.4-1.7-.3-2.1.5-1.3.5.5.8 1.6.6 2.3zm16.2-2.7c0 .3-.4.8-1 1.1-.5.3-1 .1-1-.4 0-.6.5-1.1 1-1.1.6 0 1 .2 1 .4zm-22.7 2.1c-.3.9-.8 1.4-1 1.1-.3-.3-.2-.9.2-1.5.9-1.6 1.5-1.3.8.4zm21.3 2.7c-.9.5-2.2.7-2.9.4-.7-.2-.4-.5.6-.5.9-.1 1.7-.6 1.7-1.2 0-.5.5-.7 1.1-.3.8.5.6 1-.5 1.6zm-3.6 3.2c0 .3-.4.8-1 1.1-.5.3-1 .1-1-.4 0-.6.5-1.1 1-1.1.6 0 1 .2 1 .4zm1.1 7.9c-.8.8-1 .1-.7-2.3.6-5.3.9-5.8 1.3-2.1.3 1.8 0 3.8-.6 4.4zm-5.1-5.9c0 .3-.4.8-1 1.1-.5.3-1 .1-1-.4 0-.6.5-1.1 1-1.1.6 0 1 .2 1 .4zm2.5 2.6c.3.5.1 1-.4 1-.6 0-1.1-.5-1.1-1 0-.6.2-1 .4-1 .3 0 .8.4 1.1 1zm-2.5.4c0 .2-.7.9-1.5 1.6-1.3 1.1-1.4 1-.9-.4.5-1.4 2.4-2.3 2.4-1.2zm1.4 4.1c-.4.8-.8 1.5-1 1.5-.2 0-.4-.7-.4-1.5s.4-1.5 1-1.5c.5 0 .7.7.4 1.5zm-8.9 7.5c.3.5-.1 1-1 1s-1.3-.5-1-1c.3-.6.8-1 1-1 .2 0 .7.4 1 1zm5.2 1.7c-.3.3-1.1.2-1.7-.2-.9-.6-.9-1 .1-1.6 1.4-.8 2.7.7 1.6 1.8zM468 180c0 .5-.5 1-1.1 1-.5 0-.7-.5-.4-1 .3-.6.8-1 1.1-1 .2 0 .4.4.4 1zm-2.9 11.3c-1 .9-1.1.8-.5-.6.3-1 .9-1.5 1.2-1.2.3.3 0 1.1-.7 1.8zm6.7 6.7c-.7 1-1.4 1.7-1.7 1.5-.4-.4 1.8-3.5 2.5-3.5.2 0-.1.9-.8 2zm-3.8 1c0 .5-.2 1-.4 1-.3 0-.8-.5-1.1-1-.3-.6-.1-1 .4-1 .6 0 1.1.4 1.1 1zm4 2.4c0 .3-.4.8-1 1.1-.5.3-1 .1-1-.4 0-.6.5-1.1 1-1.1.6 0 1 .2 1 .4zm-31.2 8.1c-.3.3-.9-.2-1.2-1.2-.6-1.4-.5-1.5.5-.6.7.7 1 1.5.7 1.8zm25.2-2.1c0 .3-.4.8-1 1.1-.5.3-1 .1-1-.4 0-.6.5-1.1 1-1.1.6 0 1 .2 1 .4zm-125.3 4.2c-.3.3-1.2.4-1.9.1-.8-.3-.5-.6.6-.6 1.1-.1 1.7.2 1.3.5zm79.4 1.6c1.1 2.1 1.1 2.2-.4.9-1-.7-1.7-1.7-1.7-2.2 0-1.5.9-1 2.1 1.3zM304.5 215c-.3.5-1.2 1-1.8 1-.7 0-.6-.4.3-1 1.9-1.2 2.3-1.2 1.5 0zm168.5-.6c0 .3-.4.8-1 1.1-.5.3-1 .1-1-.4 0-.6.5-1.1 1-1.1.6 0 1 .2 1 .4zm-184.4 4.3c-.4.9-.2 1.1.6.7.8-.5.9 0 .5 1.5-.4 1.7-.2 2.1.9 1.7.7-.3 3.4 1.2 5.9 3.4 3.7 3.2 5 3.8 6.4 3 1.2-.6 2.2-.5 2.9.2.9.9 1.2.9 1.2.1 0-.7 1.2-1.4 2.8-1.6 2.7-.4 2.7-.4-.3-.4-5.6-.1-6.5-.3-6.5-1.2 0-.4 1.1-.6 2.5-.3 1.4.2 2.5 0 2.5-.5 0-.6 1.2-.8 2.7-.5 2.2.4 2.5.2 2-1.2-.5-1.2-.3-1.6.5-1.3.7.2 1.2 1.6 1 3-.2 2.2.1 2.5 1.5 2 1.7-.6 1.7-.5.1 1.4-2 2.2-2.5 4.4-.6 2.5 1.7-1.7 4.8-1.5 4.8.3 0 1 1 1.5 3.3 1.5 2.6.1 20.5 3 34.1 5.7 2.6.5 2.7.4 1.7-1.5-.9-1.8-.8-1.9 1.1-1.4 1.6.4 1.9.2 1.3-.8-.6-1 .1-1.2 3.5-.6 5.7.9 6.5 1.5 4.3 3.2-2.1 1.6-4.3 1.8-4.3.4 0-.6 1-1 2.2-1 2.7 0 2.1-.5-1.4-1.4-2.1-.5-2.8-.3-2.8.9 0 .8-.4 1.5-1 1.5-.5 0-1 .4-1 .9 0 1.7 24.1 6.3 25.5 4.9.7-.6.5-.9-.5-.7-2.6.5-10-1.2-10-2.3 0-.6 1-.7 2.8-.2 1.5.4 4.1.8 5.9.8 1.7.1 3.5.4 3.9.8.4.5 1.6.8 2.6.8s1.8.4 1.8 1c0 .5 1.8 1.3 4 1.6 2.4.4 4 1.2 4 2s.7 1.4 1.5 1.4 1.9.9 2.5 2c.9 1.7.8 2-1.2 2-1.3 0-7.9-1.8-14.8-4.1-21.3-6.9-46.7-12.5-67.5-14.8-7.8-.9-20.4 1-22 3.2-.7.9-1.7 1.7-2.3 1.7-1.4 0-.3-3.1 1.6-4.6 1.1-.8.2-1.3-4.1-2.4-7.3-1.7-7.6-1.9-7.8-6.5-.4-6.7 0-9.7 1.2-9 .6.4.8 1.4.5 2.2zm24.3.6c0 .9-.2.9-.6-.1-.2-.6-1.1-1.2-1.9-1.2-.8 0-1.4-.5-1.4-1 0-.7.6-.7 2 0 1.1.6 2 1.6 1.9 2.3zm136.2 1.4c1.3 1.6 1.2 1.7-.3.4-1.7-1.3-2.2-2.1-1.4-2.1.2 0 1 .8 1.7 1.7zm-125.4 6.9c-.3.3-1.2.4-1.9.1-.8-.3-.5-.6.6-.6 1.1-.1 1.7.2 1.3.5zm156.6 3.7c.3.7-.2 2.2-.9 3.2-1.4 1.9-1.4 1.8-1-.5.2-1.4.5-2.8.5-3.3.1-1.1.8-.8 1.4.6zm-124.8 4.5c-.3.3-1.1 0-1.8-.7-.9-1-.8-1.1.6-.5 1 .3 1.5.9 1.2 1.2zm142.2.8c.3.8.2 2.3-.3 3.4-.8 1.6-1.1 1.6-2.2.4-1.1-1.2-1-1.4.3-1.4.8 0 1.5-.5 1.5-1 0-.6-.4-1-1-1-.5 0-1-.5-1-1 0-1.6 2-1.2 2.7.6zm3.8 1.1c-.2 1.6-.4 3.1-.4 3.5-.1.5-.5.8-1 .8-.7 0-.8-4.4-.2-6.8.1-.1.5-.2 1-.2s.8 1.2.6 2.7zm-214.8-1.1c-.3.3-1.2.4-1.9.1-.8-.3-.5-.6.6-.6 1.1-.1 1.7.2 1.3.5zm4.3.4c0 .5-.4 1-1 1-.5 0-1-.5-1-1 0-.6.5-1 1-1 .6 0 1 .4 1 1zm93.7 3.5c.4.4 0 .5-.9.2s-3.5-1.1-5.7-1.7c-2.2-.6-4.3-1.4-4.5-1.9-.7-1.1 10 2.2 11.1 3.4zm-78.6-1.6c.7-1.1.9-1.1.9.2 0 .9-.7 2.3-1.7 3-1.4 1.2-.5 1.5 6.8 2.1 12.4.9 18.7 1.8 21.5 2.9 1.4.5 2.9.7 3.4.4.5-.3 1.1-.2 1.3.2.3.5 2.6.8 5 .8 2.5-.1 4.3.3 4.1.7-.7 1.1 1.4 1 3.7-.3 1.1-.5 1.7-1.5 1.3-2.1-.4-.7-1-.6-1.6.3-.8 1.1-.9 1.1-.5-.1.2-.8 1.6-1.6 3.1-1.8 1.8-.2 2.6 0 2.1.7-.3.6.1 1.1 1 1.1.8 0 2 1 2.5 2.2.6 1.7.9 1.9.9.6.1-1 1.1-2 2.4-2.3 2.4-.7 13.2 2.9 14.3 4.7.4.6 1 .5 1.5-.3.7-1.1.9-1.1.9-.1 0 .7.4 1.1.9.8.8-.6 13.5 3.2 18.4 5.5 2.8 1.3 3.6 2.8 1.5 3-.7.1.1.5 1.7.9l3 .7-2.5 1c-2.2 1-2.3 1.2-.7 1.8.9.4 5.1.5 9.1.3 4.1-.2 7 0 6.4.3-.5.3 0 .9 1.2 1.2 1.4.4 2 .2 1.7-.7-.3-.6.6-1.7 1.9-2.3 2.1-1 2.3-.9 1.8 1.6-.4 2.1 0 2.9 2.5 4.4 4.9 2.9 3.6 3.6-1.8 1-6.8-3.4-22.3-5.1-20.6-2.2 1 1.5-.9 1.1-10.2-2.2-4.8-1.7-14-4.4-20.3-6-6.3-1.7-13.2-3.4-15.3-4-2.3-.6-3.5-1.4-3.1-2.1.4-.6.3-.8-.3-.5-.6.4-3.7-.1-6.9-1-3.7-1-10.7-1.7-18.9-1.9-7.1-.1-15.1-.7-17.7-1.3-4.7-1.1-7.8-.7-7.8 1 0 .5.5.9 1 .9 1.2 0 1.3 2 0 4-.7 1.2-1.3 1.1-3.4-.9-3.2-3-15.7-6.6-16.8-4.8-.5.9-1 .9-1.9 0-2.2-2.2-.1-3 5.6-2.1 4.6.8 6 .7 8-.6 1.4-.9 2.5-2.2 2.5-2.9 0-.6-.7-.3-1.5.7-1.6 2.1-1.9 1.8-.9-.8.3-.9 1.2-1.6 2-1.6s1.4-.4 1.4-.9c0-1.4 5.4-3.9 5.9-2.8.2.5.7.3 1.2-.4zm5.1 1.6c-.3 1.7-1.1 2.5-2.5 2.5-1.9 0-1.9-.1-.3-1.9 1.3-1.5 1.4-2 .4-2.4-.7-.3-.4-.6.8-.6 1.7-.1 2 .4 1.6 2.4zm7.4 0c-1.5 1.4-3.6 2.5-4.6 2.5-1.9 0-1.9-.1-.3-1.9.9-1.1 2-1.8 2.5-1.5.4.3 1.6 0 2.5-.5 2.8-1.6 2.8-1.3-.1 1.4zm186.8 1.6c-.8 1.4-2.4 1-2.4-.6 0-.9.6-1.2 1.5-.9.8.4 1.2 1 .9 1.5zm-20.9-.2c.3.5.2 1.2-.3 1.5-.5.3-.9-.1-.9-.9 0-1.7.3-1.9 1.2-.6zm19.9 3.2c1-.8 1.6-.9 1.6-.3 0 .6-.8 1.6-1.7 2.2-1.5.9-1.4 1 .9.6 2.3-.5 2.6-.3 2.1 1.1-.6 1.5-.4 1.6.9.5 2.1-1.7 3-.2 1.3 2.2-1.3 1.7-1.4 1.7-2.7-.3-1.4-2.3-3-2.8-2.5-.9.1.6-.5 1.3-1.4 1.5-1.2.3-1.6-.3-1.6-2.4 0-1.5-.5-2.9-1.1-3.1-.6-.2-.8-1-.5-1.8.4-1.2.7-1.2 1.8.3s1.5 1.5 2.9.4zm-5.5 5.1c0 1-.2 1-.6 0-.2-.6-.9-1-1.4-.6-.5.3-.9-.4-.9-1.6 0-1.9.2-2 1.5-.6.8.8 1.5 2.1 1.4 2.8zm-70.5.9c1.5.7 2.2 1.7 1.8 2.3-.3.6-.8 2-.9 3-.5 2.8-.7 2.9-4.4 1.3-1.9-.8-5.2-1.7-7.4-2.2-3.1-.6-3.6-.9-2.1-1.4 2.4-.9 6.6-.2 6.6 1.1 0 .5.5.6 1 .3.6-.4.8-1.1.4-1.6-.3-.5 0-1.6.6-2.4 1.5-1.8 1.3-1.8 4.4-.4zm-6.4.9c0 .5-.4 1-1 1-.5 0-1-.5-1-1 0-.6.5-1 1-1 .6 0 1 .4 1 1zm75.6 1.8c-.4.3-1.4-.2-2.4-1.2-1.6-1.8-1.6-1.8.6-.6 1.3.6 2.1 1.4 1.8 1.8zM318 254c0 .4-1.3 1-2.9 1.2-1.7.2-2.8.1-2.5-.4.3-.4 1.2-.8 2-.8s1.2-.4.9-1c-.3-.6.1-.7.9-.4.9.3 1.6 1 1.6 1.4zm193.1.3c-1 .9-1.1.8-.5-.6.3-1 .9-1.5 1.2-1.2.3.3 0 1.1-.7 1.8zm-10.1 1.8c0 .6-.4.7-1 .4-.5-.3-1-1.1-1-1.6 0-.6.5-.7 1-.4.6.3 1 1.1 1 1.6zm4.3.5c-2.6 2-3.6 1.7-1.5-.4.9-1.1 2.1-1.7 2.5-1.4.5.2 0 1-1 1.8zm-218.8-.1c2.2.8 3.3 1.4 2.5 1.5-1.3 0-1.3.1 0 1.1 1.2.8.9 1-1.2.6-3.3-.5-4.6 2-2.1 3.9 2.6 1.9 3.1 1.7 4.8-1.5.8-1.7 2-3.3 2.6-3.6.6-.4.4.6-.5 2.1-1.7 3.3-13.6 16.7-14.3 16.1-.2-.2.8-3.9 2.1-8.1 1.6-4.9 2.3-8.7 1.9-10.6-.3-1.7-.4-3-.2-3s2.2.7 4.4 1.5zm203.4 1.4l2.4 1.5-2.4.6c-3.5.9-5.6.1-6.3-2.2-.4-1.6-.2-1.8.7-.9 1.8 1.8 3.1 1.3 1.6-.6-1.5-1.8-1.1-1.7 4 1.6zM513 256c-.8.5-1.9 1-2.5 1-.5 0-.3-.5.5-1s2-1 2.5-1c.6 0 .3.5-.5 1zm-9.6 5.5c.3.8.1 1.5-.4 1.5-.6 0-1-.7-1-1.5s.2-1.5.4-1.5.6.7 1 1.5zm-4.9 2.3c-.3.3-1.1 0-1.8-.7-.9-1-.8-1.1.6-.5 1 .3 1.5.9 1.2 1.2zm-21.7 3.4c-1.4 1.8-3.3 3.5-4.3 3.6-1 .2-.1-1.1 2.2-3.2 4.7-4.4 5.3-4.5 2.1-.4zm11.2-1.1c0 1.4-1.7 1-2.3-.5-.4-1-.1-1.3.9-.9.7.3 1.4.9 1.4 1.4zm11-.1c0 .5-.8 1-1.7 1-1.5 0-1.6-.2-.3-1 1.9-1.2 2-1.2 2 0zm-107.3 4.9c0 1.1-.5 1.8-.9 1.5-.4-.3-.5-1.1-.1-1.9.7-2.1 1.2-1.9 1 .4zm30.5 1.4c1.1.9 1.4 2.2 1.1 4-.5 2.5-.9 2.8-3.7 2.4-5.7-.7-6.6-1.5-5.4-4.8.8-2.2 1.6-2.9 3.6-2.9 1.5 0 3.4.6 4.4 1.3zm-106.4 1.8c6.4 1.3 12.7 6.7 15.8 13.3 2.5 5.4 3.1 8.1 1.4 7.1-.5-.3-1-1.4-1-2.4 0-.9-1.4-3.9-3-6.5-4.2-6.5-9.8-9-18.9-8.4-3.9.3-8.3 1.4-10.7 2.6-6.4 3.3-14.1 10.9-18.5 18.3-2.3 3.8-4.2 6.9-4.4 6.9-1.1 0 .8-6.8 3-10.6 6.7-11.5 17.8-19.2 30.7-21.3.4 0 2.9.4 5.6 1zm74.2-.1c0 .5-.5 1-1.1 1-.5 0-.7-.5-.4-1 .3-.6.8-1 1.1-1 .2 0 .4.4.4 1zm78.7-.4c-.3.3-1.2.4-1.9.1-.8-.3-.5-.6.6-.6 1.1-.1 1.7.2 1.3.5zm24 3.6c-.3.8-.6.5-.6-.6-.1-1.1.2-1.7.5-1.3.3.3.4 1.2.1 1.9zm-53.9 5.2c1.9 1 3.1 2 2.8 2.3-.3.3-1.2 0-2-.7-.9-.6-2.1-1-2.8-.8-.7.3.8 1.7 3.4 3.2 4.7 2.8 7.8 5.6 6.1 5.6-.6 0-3-1.5-5.4-3.3-2.4-1.8-6.1-4.3-8.1-5.6-2.1-1.2-3.7-2.5-3.7-2.9.3-2-.2-2.5-1.1-1.2-.8 1.2-1 1-1-.8v-2.4l4.3 2.5c2.3 1.3 5.7 3.2 7.5 4.1zm-29.3-4.4c.3.5.1 1-.4 1-.6 0-1.1-.5-1.1-1 0-.6.2-1 .4-1 .3 0 .8.4 1.1 1zm-92.7 3.2c-.3.7.7 2.3 2.1 3.5l2.4 2.3-3.3 3.5c-3.8 3.9-9 6.3-9 4.1 0-.8-1.4-2-3.1-2.9l-3.2-1.5 2.4-1.3c4.1-2.2 10.9-8.3 11-9.9 0-1 .2-1.1.6-.3.2.7.3 1.8.1 2.5zm180.9 2c-.3.8-.6.5-.6-.6-.1-1.1.2-1.7.5-1.3.3.3.4 1.2.1 1.9zm-81.2 1.8c.8 1.3-.5 1.3-2.5 0-1.3-.8-1.3-1 .2-1 .9 0 2 .4 2.3 1zm48.2 2.2c-.3.8-.6.5-.6-.6-.1-1.1.2-1.7.5-1.3.3.3.4 1.2.1 1.9zm-118 1c-.3.8-.6.5-.6-.6-.1-1.1.2-1.7.5-1.3.3.3.4 1.2.1 1.9zm110.3 6.4c3.1 3.5 3.6 6.4 1.3 7.1-.6.2-1.4-.5-1.8-1.7-.4-1.1-1.7-3.2-3.1-4.7-2.2-2.4-2.4-4.3-.4-4.3.4 0 2.2 1.6 4 3.6zm-163-.7c1.4 2.7 1.3 6.8-.3 7.4-.8.3-1.2-.6-1.1-2.9.1-1.9-.2-3.7-.7-4-1.2-.7-1.2-2.4.1-2.4.5 0 1.4.9 2 1.9zm30.4 1.6c-.4.8-1.1 1.5-1.6 1.5-.6 0-.5-.6.2-1.5.7-.8 1.4-1.5 1.6-1.5.2 0 .1.7-.2 1.5zm17 7c-.7 1.8.7 2 2.4.3.9-.9 1.2-.9 1.2.1 0 .7.5.9 1.1.5.8-.4.8 0 0 1.5-.7 1.3-2.1 2.1-3.7 2.1-1.4 0-2.3-.4-1.9-1 .4-.6-.7-1.3-2.5-1.6-3.1-.7-6-3.7-6-6.2 0-1.2.3-1.2 1.5-.2 1.5 1.2 3.5.6 3.5-1.1 0-.6-.5-.7-1.2-.3-.7.5-.8.3-.3-.5 1-1.8 6.6 4.4 5.9 6.4zm-53.7-2.7c-.2 1.5-.7 3.4-1.2 4.1-.5 1-.4 1.2.3.7.7-.4 1.2-.3 1.2.3 0 1-5.9 5.6-6.5 5-.3-.4 5.6-12.9 6.2-12.9.1 0 .1 1.3 0 2.8zm16.7-1.3c-.4.8-1.1 1.5-1.6 1.5-.6 0-.5-.6.2-1.5.7-.8 1.4-1.5 1.6-1.5.2 0 .1.7-.2 1.5zm9.6 3c0 .2-1 .9-2.2 1.5-2.2 1.1-2.2 1-.4-.4 2.1-1.7 2.6-1.9 2.6-1.1zm-17.7 2.7c-.6.7-1.5 2.6-2.1 4.3-.6 1.7-1.1 2.2-1.1 1.2-.1-2.3-1-2.2-3.8.5-1.3 1.2-2.3 1.7-2.2 1.2 0-.5 2.1-2.6 4.7-4.6 5.1-4 6-4.5 4.5-2.6zm37.4 5c-.3.8-.6.5-.6-.6-.1-1.1.2-1.7.5-1.3.3.3.4 1.2.1 1.9zm17 3c-.3.7-.5.2-.5-1.2s.2-1.9.5-1.3c.2.7.2 1.9 0 2.5zm-96.4 1.2c.9-1 5.7.5 5.7 1.7 0 .6-.7.9-1.5.5-1.7-.6-1.9.2-.6 2.3.6 1 1 1 1.6.1.6-.9.9-.9 1.5.1.7 1 1.2 1 2.7-.1 1.3-1 1.3-.8-.3.9l-2 2.2-4.6-2c-2.6-1.1-5.1-2.8-5.7-3.9-1.2-2.3-.3-3.6 1.4-2.2.7.5 1.5.7 1.8.4zm28.5 5.8c-1.1 2.9-2.4 5.7-3 6.3-.6.5-.5-.1.2-1.4.6-1.2.9-3.3.6-4.4-.3-1.2.2-2.9 1.1-3.9 2.8-3.1 3.2-2 1.1 3.4zm66.7-2.5c-.3 1.6-1.1 3.2-1.6 3.7-.5.6-.4-.5.1-2.5.6-1.8 1-3.5 1-3.6 0-.2.3-.3.6-.3s.3 1.2-.1 2.7zm85 2.6c5.2 5.5 8.8 14.7 8.9 22.9.1 4.1-.3 6.2-1.1 6.5-.9.3-1.3-1-1.3-4.6 0-7.4-4.4-18.5-9.5-23.8-2.3-2.4-3.9-4.5-3.7-4.8 1.2-1.2 2.8-.3 6.7 3.8zm-28.1-1.8c-.4.8-1.3 1.5-2.1 1.5-1.3 0-1.3-.3-.3-1.5.7-.8 1.6-1.5 2.1-1.5s.6.7.3 1.5zm24.2 6.8c2.7 4.1 5.4 13.5 5.3 18.2 0 1.8-.9-.5-2.3-5.7-1.6-6.4-3.4-10.5-6.5-15-3.3-4.8-3.7-5.7-1.6-3.8 1.5 1.4 3.8 4.2 5.1 6.3zm-29.8-.1c1.8 1.8 1.5 2.3-2.6 5.2-5 3.4-5.6 3.3-3.6-.7 3-5.8 4.1-6.6 6.2-4.5zm-15.2 20.3c.2 17.9 7.8 32.9 20 39.3 5 2.7 3.6 2.8-2 .3-5.6-2.6-12.1-9.8-15.7-17.6-2.3-4.7-3.1-8.3-3.6-14.8-.5-7.2 0-13.7 1-13.7.2 0 .3 2.9.3 6.5zm-47.5-2.2c-1 .9-1.1.8-.5-.6.3-1 .9-1.5 1.2-1.2.3.3 0 1.1-.7 1.8zm32.6 4.9c-.3.7-.5.2-.5-1.2s.2-1.9.5-1.3c.2.7.2 1.9 0 2.5zm65 1c-.3.8-.6.5-.6-.6-.1-1.1.2-1.7.5-1.3.3.3.4 1.2.1 1.9zm8.3 3.7c0 1-2.6.9-3.6-.2-.4-.4.2-.7 1.4-.7s2.2.4 2.2.9zm-3.2 6.1c-.7 1-1.4 1.8-1.5 1.6-.6-.6.9-3.6 1.8-3.6.5 0 .4.9-.3 2zm4.2 10.6c0 .9-3.2 3.3-4.4 3.4-.5 0-.1-.9.9-2 1.8-2 3.5-2.6 3.5-1.4zM425 385c-2 1.3-3.3 1.3-2.5 0 .3-.6 1.4-1 2.3-1 1.5 0 1.5.2.2 1zm15.8.7c.2.8-.5 1.3-1.7 1.3s-2.1-.6-2.1-1.6c0-1.8 3.1-1.5 3.8.3zM417 387c0 1.3-1.1 1.3-3 0-1.2-.8-1.1-1 .8-1 1.2 0 2.2.4 2.2 1zm-30 4c0 .5-.4 1-1 1-.5 0-1-.5-1-1 0-.6.5-1 1-1 .6 0 1 .4 1 1zm14 1.1c0 .6-.4.7-1 .4-.5-.3-1-1.1-1-1.6 0-.6.5-.7 1-.4.6.3 1 1.1 1 1.6zm-11.6 1.8c.6 1-1.6 2.1-4.2 2.1-1.3 0-1.2-.3.4-1.5 2.2-1.7 3.1-1.8 3.8-.6zM383 396c0 .5-.5 1-1.1 1-.5 0-.7-.5-.4-1 .3-.6.8-1 1.1-1 .2 0 .4.4.4 1zm4 12.5c-.7.9-1.5 1.3-1.9 1-.3-.3.1-1 .9-1.5 2.1-1.4 2.4-1.2 1 .5zm116.9 90.8c0 1.2-.3 1.6-.6.9-.2-.6-.9-1-1.4-.6-1.1.6-1.1.2-.3-2s2.4-1 2.3 1.7zM483 557.6c0 .8-.5 1.2-1 .9-.6-.4-.8-1.1-.5-1.6.9-1.4 1.5-1.1 1.5.7z"/><path d="M391 66c0 .5.5 1 1.1 1 .5 0 .7-.5.4-1-.3-.6-.8-1-1.1-1-.2 0-.4.4-.4 1zM372.5 80c.3.5.8 1 1.1 1 .2 0 .4-.5.4-1 0-.6-.5-1-1.1-1-.5 0-.7.4-.4 1zM316.5 103c.3.5.8 1 1.1 1 .2 0 .4-.5.4-1 0-.6-.5-1-1.1-1-.5 0-.7.4-.4 1zM316 108c0 .5.5 1 1 1 .6 0 1-.5 1-1 0-.6-.4-1-1-1-.5 0-1 .4-1 1zM388.8 245.7c.6.2 1.8.2 2.5 0 .6-.3.1-.5-1.3-.5-1.4 0-1.9.2-1.2.5zM399.8 250.7c.7.3 1.6.2 1.9-.1.4-.3-.2-.6-1.3-.5-1.1 0-1.4.3-.6.6zM354 250.3c0 1.2.6 1.7 1.7 1.5 2.6-.5 2.8-3.4.3-3.4-1.3 0-2 .7-2 1.9zM365 250.1c0 .5.5.7 1 .4.6-.3 1-.8 1-1.1 0-.2-.4-.4-1-.4-.5 0-1 .5-1 1.1zM361 251c0 .5.5 1 1 1 .6 0 1-.5 1-1 0-.6-.4-1-1-1-.5 0-1 .4-1 1zM365 252.9c0 1.1 3.9 2.6 4.7 1.7.8-.8.3-1.2-2.4-2-1.3-.4-2.3-.3-2.3.3zM373 254c-.8.5-1.2 1.1-.9 1.4.2.3 1.1.1 1.9-.4.8-.5 1.2-1.1.9-1.4-.2-.3-1.1-.1-1.9.4zM361.8 254.7c.7.3 1.6.2 1.9-.1.4-.3-.2-.6-1.3-.5-1.1 0-1.4.3-.6.6zM375 256c-1.8 1.2-.2 1.2 2.5 0 1.3-.6 1.5-.9.5-.9-.8 0-2.2.4-3 .9zM381 256.1c0 .5.5.9 1.1.9.5 0 .8.4.5.9-.8 1.2 2.1 3.4 3.6 2.8.8-.3.5-.6-.6-.6-1.4-.1-1.6-.4-.8-1.4.8-.9.4-1.5-1.4-2.4-1.3-.6-2.4-.7-2.4-.2zM388 256.9c0 1 1.9 2.5 2.5 2 .1-.2-.3-1-1.1-1.7s-1.4-.8-1.4-.3zM391.5 262.5c5 1.8 5.7 1.8 2.5 0-1.4-.8-3.4-1.4-4.5-1.4s-.2.6 2 1.4zM426 252c.8.5 2 1 2.5 1 .6 0 .3-.5-.5-1s-1.9-1-2.5-1c-.5 0-.3.5.5 1zM426 255.6c0 .8.5 1.2 1 .9.6-.3 1-1 1-1.6 0-.5-.4-.9-1-.9-.5 0-1 .7-1 1.6zM420.7 275.4c-.4 1-.5 2.1-.2 2.4.9.9 1.7-.6 1.3-2.5-.3-1.7-.4-1.7-1.1.1zM432.6 281.5c1 .8 2.4 1.4 2.9 1.4.6 0 .1-.6-.9-1.4-1.1-.8-2.4-1.5-3-1.5-.5 0-.1.7 1 1.5zM477 21.9c0 .5.5 1.3 1 1.6.6.3 1 .2 1-.4 0-.5-.4-1.3-1-1.6-.5-.3-1-.2-1 .4zM479.9 46.2c0 .2-.1 1.5-.3 2.9-.1 2.5-.1 2.5 2.7 1.1 2.1-1 2.5-1.7 1.6-2.2-.6-.5-1.9-.6-2.7-.2-1 .3-1.3.1-.8-.6.4-.7.5-1.2.2-1.2s-.6.1-.7.2zM479.3 58.5c.1 1.1-.2 2.5-.6 3.2-.4.6-.3 1.4.3 1.8.5.3 1-.1 1-1s.5-1.3 1-1c.6.3 1 .1 1-.4 0-.6-.4-1.1-.9-1.1s-1.2-.8-1.5-1.8c-.4-1.3-.4-1.3-.3.3zM482.5 58c-.3.5-.1 1 .4 1 .6 0 1.1-.5 1.1-1 0-.6-.2-1-.4-1-.3 0-.8.4-1.1 1zM485 61.9c0 .6.4 1.3 1 1.6.6.3.7-.1.4-.9-.7-1.8-1.4-2.1-1.4-.7zM479.5 67.1c-.9 1.4-.2 2 1.4 1 .8-.6.9-1.1.3-1.5-.6-.3-1.4-.1-1.7.5zM472 72c0 .5.5 1 1.1 1 .5 0 .7-.5.4-1-.3-.6-.8-1-1.1-1-.2 0-.4.4-.4 1zM472.5 75c-.3.5-.1 1 .4 1 .6 0 1.1-.5 1.1-1 0-.6-.2-1-.4-1-.3 0-.8.4-1.1 1zM479.7 75.7c-1.1 1-.8 4.3.4 4.3.5 0 .7-.5.4-1.1-.4-.6.1-1.7 1.1-2.4 1.6-1.2 1.6-1.4.3-1.5-.9 0-1.9.3-2.2.7zM485 76c0 .5.5 1 1.1 1 .5 0 .7-.5.4-1-.3-.6-.8-1-1.1-1-.2 0-.4.4-.4 1zM473.8 79.2c0 .7-.2 1.7-.2 2.3-.1.5-.5 1.6-1 2.3-1.4 2.3.4 2.7 2 .4 1.9-2.7 3.2-2.8 4.2-.2.7 1.9.9 1.9 2.7.6 1.8-1.4 1.8-1.5.3-1.6-1 0-1.8-.5-1.8-1 0-.6-1.3-1-3-1-2.2 0-2.8-.4-2.4-1.5.4-.8.3-1.5 0-1.5s-.7.6-.8 1.2zM466.2 83.2c-1.5 1.5-1.6 3.2-.2 2.3.6-.3 1 .1 1 .9 0 .9.5 1.6 1 1.6 1.2 0 1.3-3 .2-4.7-.6-1-1.1-1-2-.1z"/><path d="M476 85c0 .5.5 1 1 1 .6 0 1-.5 1-1 0-.6-.4-1-1-1-.5 0-1 .4-1 1zM486 85.9c0 .6-1.3 1.1-3 1.3-2.4.2-2.8.6-2 1.8.7 1 1.2 1.2 1.8.4.4-.6 1.7-1.4 3-1.8 2.2-.7 3.1-2.6 1.2-2.6-.5 0-1 .4-1 .9zM490.5 87c.3.5.8 1 1.1 1 .2 0 .4-.5.4-1 0-.6-.5-1-1.1-1-.5 0-.7.4-.4 1zM488.9 91.4c-.7 1.4-1.6 2.6-2.1 2.6s-.7.4-.4.8c.3.5-.2 2.1-1 3.7s-1.1 3.2-.6 3.7c.5.5 1.4-.9 2.2-3.1.7-2.2 1.7-3.8 2.1-3.5.4.2.1 2-.7 3.9-.8 1.9-1.2 3.5-.9 3.5.3 0 1.1-1.3 1.6-2.9.6-1.5 2-3.4 3.2-4 1.4-.8 1.6-1 .4-.6-2.8.8-3.7-.3-2.6-3.2 1.3-3.5.3-4.3-1.2-.9zM491.6 99.6c-.9 2.2-.8 2.4.9 1.8.8-.4 1.5-1.2 1.5-2 0-1.9-1.6-1.8-2.4.2zM513.2 101.5c0 1.6.2 2.2.5 1.2.2-.9.2-2.3 0-3-.3-.6-.5.1-.5 1.8zM489.5 104c-.4.6-1.1.8-1.6.4-.6-.3-1 0-.8.7.3 2.6-.1 4.9-.8 4.6-.5-.1-1 .2-1.3.7-.3.5.4 1.1 1.5 1.2 3 .5 7.6-.6 6.9-1.7-.4-.6-1-.6-1.8 0-.7.6-1.7.6-2.6 0-1-.6-1.2-1.1-.4-1.7.6-.4 1.3-1.7 1.6-3 .6-2.3.3-2.9-.7-1.2zM511.7 108.4c-.5 2.1-.6 4-.3 4.3.9 1 1.8-2.4 1.4-5.4-.3-2.6-.4-2.5-1.1 1.1zM481 112.1c0 .5.5.7 1 .4.6-.3 1-.8 1-1.1 0-.2-.4-.4-1-.4-.5 0-1 .5-1 1.1zM511.4 116.4c-.3.9-1.2 1.6-2 1.6s-1.4.4-1.4 1c0 .5.6 1 1.3 1 1.4 0 4.1-3.9 3.3-4.7-.3-.3-.8.2-1.2 1.1zM360 121.8c0 .6.5 1.4 1 1.7 1.7 1.1 1.1 2.5-1.1 2.5-1.1 0-1.7-.5-1.4-1 .3-.6-.1-1-1-1s-1.3.5-.9 1.1c.4.7.1 1-.7.7-.8-.3-2.3.5-3.3 1.6-1.5 1.6-1.8 1.7-1.3.4.3-1 .2-2-.2-2.2-.5-.3-1.1 1.2-1.5 3.4-.3 2.2-1 4-1.5 4-.6 0-.6-1.3-.1-3.3.9-3 .8-3.1-.6-1.2-1.2 1.7-1.6 1.8-2.4.5-.8-1.2-1-1.2-1.6.3-.4 1.2-1.3 1.6-2.5 1.2-1.4-.5-1.7-.2-1.3.9.9 2.5-.7 4.2-2.1 2.2-1.3-1.7-4.5-1.3-4.5.6 0 .7.5.6 1.3-.1 1.4-1.1 2.7-.5 2.7 1.1 0 .5-.4.6-1 .3-.5-.3-1-.2-1 .4 0 .7-.8.7-2.4 0-1.4-.7-2.2-1.7-1.9-2.5.3-.8 0-1.4-.6-1.4s-1.1.9-1.1 2-.5 2-1.2 2c-.9 0-.8.3.1 1.2 1.1 1 1.4 1 1.8 0 .7-1.9 2.3-1.4 2.3.8 0 1.3-.5 1.8-1.5 1.4-.8-.4-1.5-.1-1.5.5s.5 1.1 1.2 1.1c.6 0 .4.8-.6 1.9-1.1 1.2-1.4 2.1-.7 2.6.6.3 1.1-.2 1.1-1.2.1-1.7.2-1.7 1.5.1.8 1.1 1.8 1.7 2.1 1.3.4-.4.1-1.3-.5-2.1-.8-1-.9-1.6-.1-2.1 1-.6 1.4.1 1.1 1.8-.1.5.8 1.1 1.9 1.4 2.2.6 2.6 1.9.8 2.6-1 .4-1 .7 0 1.8 1.1 1.2 1.4 1.2 2.2-.1.7-1.2 1.2-1.1 3.1.5l2.2 2-.7-2.5c-.6-1.9-.5-2.1.3-1 .6.8.8 2.3.5 3.3-.5 1.5-.1 1.7 2.3 1.2 1.5-.4 3.4-.8 4.1-1.1.6-.2 1.2.1 1.2.6s-1 1.1-2.2 1.3c-2.1.4-2.1.4.3.6 1.4 0 3 .6 3.7 1.3.7.7 1.2.8 1.2.2 0-.5-.5-1.5-1.2-2.2-.7-.7-.8-1.2-.4-1.2.5 0 1.7 1 2.8 2.2 1.3 1.5 2.2 1.8 2.9 1.1.7-.7 2.2-.8 4.5-.1 1.9.5 3.8.7 4.3.3.5-.3.7.5.3 1.7-.3 1.4-.2 1.9.6 1.4.7-.4 1.2-.2 1.2.3 0 .6.4 1.1 1 1.1.5 0 .7-.7.4-1.5-.4-.8-.1-1.5.5-1.5s1.1-.7 1.1-1.5.5-1.5 1-1.5c1.3 0 1.3 3.3.1 4.5-.6.6-.4 1.5.5 2.3.8.7 1.4.8 1.4.2 0-.5.7-1 1.5-1s1.5-.4 1.5-1-.5-.9-1.1-.8c-.6.2-1.4-.3-1.6-1-.3-.6.3-1.2 1.2-1.2.9 0 1.3-.5 1-1-.3-.6.4-1.4 1.7-1.9 2.3-1 2.2-1-.4-1-1.6-.1-2.8.4-2.8 1 0 .5-.5.7-1.1.3-1.3-.8-.1-2.1 2.6-2.6 2.1-.3 2.7-3.3 1.1-5.6-1.1-1.5-.2-2.7 1.4-1.7.7.4 1 1.6.7 2.6-.3 1.1 0 2.2.6 2.7.7.4 1.2 1.4 1.2 2.2 0 .8.7 1.4 1.7 1.2.9-.1 1.9.2 2.3.8.3.5 1.6 1 2.8 1l2.2-.1-2.4-1.9c-1.8-1.5-1.9-2-.7-2 .9 0 1.6-.5 1.6-1.1 0-.5.4-.8 1-.4.5.3.7 1.2.4 1.9-.3.8-.1 1.6.3 1.9.5.3 1-.4 1-1.5.2-2.5 1.4-3.7 2-2.1.7 2.1 2.1 1.5 2.5-.9.2-1.3 1.1-2.4 2.3-2.6 1.9-.4 1.9-.3.1 1-1.6 1.3-1.7 1.8-.6 3.9 1 1.7 1.5 2 1.8.9.3-.7 0-1.6-.6-1.8-.6-.2-.2-1.2.9-2.3l2-2-2.3-2.1c-1.6-1.4-1.9-2.2-1-2.5 1.8-.7.4-2.3-2.1-2.3-1.3 0-1.7.3-1.1.8.6.4 1.5 1.8 1.9 3.2.7 2.2.6 2.3-.9 1.1-1-.8-1.6-.9-1.6-.3 0 .6-.8.9-1.7.5-1.5-.5-1.4-.3.2 1.1 1.9 1.6 1.9 1.6-1 1-3.8-.9-4.3-1.3-2.5-2.4 2.4-1.5-2-4.9-5.3-4.3-3.7.7-3.4-1.4.3-2.2 1.7-.4 3-1 3-1.5 0-1.2-3.8-2.3-5.2-1.4-.8.5-.9.2-.5-.9.5-1.4.2-1.6-1.9-1.1-1.7.4-3.1.1-4.5-1.2-1.9-1.7-1.9-1.7-1.7.7.3 2.2 0 2.4-2.9 2.1-2.1-.2-3.3.1-3.3.9 0 .7-.3.9-.6.6-.4-.4-.1-1.3.6-2.2 1-1.3.9-1.5-.9-1.5-2.4 0-2.4 0-1.1-3.5.7-1.7.7-2.4 0-2-.5.3-2.6-.6-4.5-2.1-1.9-1.4-3.5-2.2-3.5-1.6zm7 6.6c0 1.1-1.9 1.5-2.5.6-.3-.5.1-1 .9-1 .9 0 1.6.2 1.6.4zm-13.3 2.8c-.3.8-.6.5-.6-.6-.1-1.1.2-1.7.5-1.3.3.3.4 1.2.1 1.9zm7.3 2.8c-2 1.3-3 1.2-3-.1 0-.5.4-.8.9-.4.5.3 1.3 0 1.6-.6.4-.5 1-.8 1.3-.4.4.3 0 1-.8 1.5zm-15 1.9c.3.2-.3.1-1.2-.2-.9-.3-1.9-.1-2.2.6-.2.7-.5.1-.5-1.2-.1-2.3.5-2.2 3.9.8zm35 .1c0 1.1-.4 2-1 2-.5 0-1-.9-1-2s.5-2 1-2c.6 0 1 .9 1 2zm-42.5 7c.3.5-.1 1-1 1s-1.3-.5-1-1c.3-.6.8-1 1-1 .2 0 .7.4 1 1zm34.5 1.5c.7.8 1.1 1.5.9 1.6-3.1.6-3.9.6-3.9-.2 0-.5.6-.9 1.3-1 .6 0 .3-.4-.8-.9-1.5-.7-1.6-.9-.4-.9.9-.1 2.2.6 2.9 1.4zm5 2.5c0 1-.7 2.1-1.6 2.4-2.5 1-3.2-.4-1-2 1.1-.8 1.4-1.4.7-1.4s-.9-.5-.6-1c.9-1.5 2.5-.2 2.5 2zm-12 2c1.1 1.1 1.7 2.6 1.4 3.5-.5 1.3-.8 1.2-2.2-.1-1.4-1.4-2.5-5.4-1.5-5.4.2 0 1.2.9 2.3 2zM380 123.6c0 .9.4 1.3.9.9.5-.3 1.2-.1 1.5.3.3.5 2 .9 3.7 1 3.9.1 2.7-1.3-2.3-2.6-3.1-.9-3.8-.8-3.8.4zM335.8 123.7c-2 .5-2.4 2.9-.6 3.5 1.5.5 4.9-2.2 4.2-3.4-.5-.8-.8-.9-3.6-.1zM509 124.9c0 .5.7 1.1 1.5 1.5.8.3 1.5.1 1.5-.3 0-.5-.7-1.1-1.5-1.5-.8-.3-1.5-.1-1.5.3zM330.5 126c.3.5.8 1 1.1 1 .2 0 .4-.5.4-1 0-.6-.5-1-1.1-1-.5 0-.7.4-.4 1z"/><path d="M389.6 126.8c-.4.7-.5 1.6-.2 2.1.4.5 0 1.2-.6 1.4-.9.4-.8.6.3.6 2.4.1 6 4.1 5.5 5.9-.3.9-.1 2.4.5 3.2.8 1.2.9 1 .4-.8-.5-1.6-.2-2.2.9-2.2.9 0 1.6-.4 1.6-.9s.9-1.1 2-1.4c1.1-.3 2-1.1 2-1.9 0-1-.3-.9-1 .2-.9 1.3-1 1.3-1 0 0-1.6-5.2-5-7.5-5-.7 0-1.5-.5-1.7-1.2-.3-.9-.6-.9-1.2 0zM321.6 127.9c-.4.7-.5 1.5-.2 1.8.9.9 1.9-.4 1.4-1.8-.4-1.1-.6-1.1-1.2 0zM340 128c-1.3.8-1.2 1 .3 1 .9 0 1.7-.5 1.7-1 0-1.2-.1-1.2-2 0zM384.5 128c-.3.5-.2 1 .4 1 .5 0 1.3-.5 1.6-1 .3-.6.2-1-.4-1-.5 0-1.3.4-1.6 1zM372.5 129c-.3.5.1 1 .9 1 .9 0 1.6-.5 1.6-1 0-.6-.4-1-.9-1-.6 0-1.3.4-1.6 1zM503 130.1c0 .5.5.7 1 .4.6-.3 1-.8 1-1.1 0-.2-.4-.4-1-.4-.5 0-1 .5-1 1.1zM500.5 132c-.3.5-.1 1 .4 1 .6 0 1.1-.5 1.1-1 0-.6-.2-1-.4-1-.3 0-.8.4-1.1 1zM404 135.5c.7.9 1.5 1.3 1.7 1.1.7-.7-.7-2.6-1.9-2.6-.6 0-.6.6.2 1.5zM499 136.5c0 .8.2 1.5.4 1.5s.6-.7 1-1.5c.3-.8.1-1.5-.4-1.5-.6 0-1 .7-1 1.5zM407 139.3c0 .8.7 1.7 1.5 2.1.8.3 1.5.2 1.5-.3s-.7-1.4-1.5-2.1c-1.2-1-1.5-1-1.5.3zM503.5 141.2c.1 1.9-.3 2.8-1.3 2.8-.9 0-1.3.3-.9.6.3.3 1.5.3 2.8-.1 1.2-.4 1.7-1 1.1-1.4-.5-.3-1.2-1.5-1.5-2.6-.2-1.1-.4-.8-.2.7zM309.8 141.8c.9 1 1.9 1.4 2.1.9.2-.5-.3-1.3-1-1.8-2.4-1.5-3-1-1.1.9zM298.7 145.3c-2.8 4.3-4.6 9.7-5.2 15.5-.4 4.6-.3 5.2.6 3.2.5-1.4 1.5-4.7 2.1-7.5.6-2.7 1.9-6.9 2.9-9.2 2-4.8 1.9-5.5-.4-2zM322 144c0 1.4 2.6 2.3 4.1 1.5.8-.6.7-1-.2-1.6-1.9-1.2-3.9-1.1-3.9.1zM407 144.1c0 .5.5.7 1 .4.6-.3 1-.8 1-1.1 0-.2-.4-.4-1-.4-.5 0-1 .5-1 1.1zM496.2 146.1c.2.7 1 1.5 1.7 1.7.8.3 1.2-.1.9-.9-.2-.7-1-1.5-1.7-1.7-.8-.3-1.2.1-.9.9zM329.2 147.9c.4 1.3 1.8 1.6 1.9.4 0-.4-.5-.9-1.1-1.2-.7-.2-1.1.2-.8.8zM404 148.1c0 .5.5.7 1 .4.6-.3 1-.8 1-1.1 0-.2-.4-.4-1-.4-.5 0-1 .5-1 1.1zM407 149.5c0 .8-.7 1.5-1.5 1.5-1.7 0-2 1.6-.5 2.5.6.3 1 .2 1-.3 0-.6 1-.8 2.3-.6 1.2.2 1.6.2 1-.2-.7-.3-1.3-1-1.3-1.5s.9-.4 1.9.3c1.1.7 1.7 1.6 1.4 2.1-.3.5.1 1.3.8 1.8 2.1 1.3 3.2 1.1 2.6-.5-.3-.7 0-1.9.6-2.6.9-1 .9-1.1-.1-.6-.7.4-2.4-.2-3.8-1.3-3.2-2.5-4.4-2.6-4.4-.6zM494 149.1c0 .5.5.7 1 .4.6-.3 1-.8 1-1.1 0-.2-.4-.4-1-.4-.5 0-1 .5-1 1.1zM500.5 151.5c-4.8 1.8-4.8 1.8-4 .5.3-.6.1-1-.4-1-.6 0-1.1 1.1-1.1 2.5 0 3 .4 3.1 3.7.5 1.4-1.1 3.2-2 3.9-2 .7 0 1.6-.5 1.9-1 .8-1.2.9-1.2-4 .5zM335.6 152.5c.4.8 1 1.5 1.5 1.5.4 0 .6-.7.3-1.5-.4-.8-1-1.5-1.5-1.5-.4 0-.6.7-.3 1.5zM492 152.4c0 .8.5 1.8 1 2.1.6.3 1-.3 1-1.4 0-1.2-.4-2.1-1-2.1-.5 0-1 .6-1 1.4zM506 153c-.8.5-1.2 1.2-.9 1.5.4.3 1.2-.1 1.9-1 1.4-1.7 1.1-1.9-1-.5zM339.7 155.1c.7.7 1.5 1 1.8.7.3-.3-.2-.9-1.2-1.2-1.4-.6-1.5-.5-.6.5zM388.5 157c-.3.5.1 1 1 1s1.3-.5 1-1c-.3-.6-.8-1-1-1-.2 0-.7.4-1 1zM495.6 158.7c-1.1 2.8-.1 3.1 2.9 1 1.7-1.3 1.7-1.4-.3-1.9-1.3-.4-2.3 0-2.6.9zM328.9 158.7c-.1.5 0 1.7.1 2.8.2 1.8 0 1.8-1.9-.4-1.7-1.9-2.1-2.1-2.1-.8 0 1.8-2.5 2.3-3.4.8-.8-1.3-5.8-2.4-6.5-1.4-1.1 1.4-7.2 4.3-9.2 4.3-1 0-1.9.4-1.9 1 0 .5 1.1 1 2.4 1 3 0 5 2.4 4.3 5.1-.5 1.8-.1 2 2.6 1.7 2.4-.2 3.5-1.1 5.1-4 1-2.1 2.3-3.5 2.8-3.2 1.6 1 .8 7.1-1.3 9.8-2.5 3.2-5.4 3.3-8.8.4l-2.6-2.2 2.5 2.6c1.6 1.7 3.8 2.8 5.9 3 2.9.3 3.6-.1 5.2-3.2.9-1.9 1.9-4.4 2.1-5.5.3-2.3 2-4.5 2.9-3.9.4.2 1.4-.5 2.4-1.6s2.4-2 3.2-2c1.4 0 1.6-1 .7-3.4-.6-1.6-4.3-2.3-4.5-.9zm-15.6 6.4c-.6.6-1.7.8-2.4.3-.9-.5-.8-.9.7-1.4 2.3-.9 3.1-.3 1.7 1.1zM412.9 160.7c-.5 1.3-1.6 2.6-2.4 2.9-.8.4-1.5 1.2-1.5 2 0 1.1-.5 1.1-2.5.2-1.4-.6-2.5-1.5-2.5-2 0-.4-.8-.8-1.7-.8-1.5 0-1.6.2-.3 1 1.1.7.2 1-3.2 1-3.8 0-5.2.5-7.3 2.7-1.4 1.5-2.5 3.1-2.5 3.4 0 1.1 2.9 1.9 4.5 1.3 1.8-.7 2-2.1.3-2.6-.8-.3-.3-1.1 1.2-2.1 5.7-3.6 12.7 2 11.5 9.3-.3 1.9-.6 4.6-.6 5.9-.1 1.7-.3 2-.9 1.1-.7-1.1-1.1-1.1-2.4-.1-1 .8-2.6 1.1-4.2.7-1.4-.4-2.3-.3-2 .2.9 1.4 6.6 2.3 8.4 1.3.9-.5 2.5-3.6 3.5-6.8 1.9-5.8 1.9-5.9 5.3-5.5 6 .7 8.4-.4 8.5-4.1 0-2.7.2-2.9.9-1.2 1 2.3 1.3.5.4-1.9-.3-.9-1.1-1.3-1.7-.9-.6.4-.8 0-.4-1.1.4-1 .3-1.5-.3-1.1-.5.3-1.2-.5-1.6-1.9-.8-3.5-5.2-4.2-6.5-.9zM489 160.4c0 2.4 1.9 2.9 3.8 1 1.6-1.7 1.6-1.8 0-1.1-1 .3-1.8.2-1.8-.3 0-.6-.4-1-1-1-.5 0-1 .6-1 1.4zM502.3 159.6c.3.4-.4 1.5-1.6 2.5-1.2 1-1.8 1.8-1.4 1.9.5 0 1.5-.7 2.4-1.5.8-.8 2-1.2 2.6-.8.7.4.6-.1-.2-1-.7-.9-1.6-1.7-1.9-1.7-.3 0-.3.3.1.6zM384.4 164.2c-.4.7-.3.8.5.4 1.7-1.1 4.1 1.2 3.5 3.2-.4 1.3-.2 1.2.7-.2 1-1.6.9-2.1-.7-3.3-2.2-1.6-3.1-1.6-4-.1zM508.2 165c-1.2 1.9-1.1 2 .8.8 2-1.3 2.7-2.8 1.2-2.8-.4 0-1.3.9-2 2zM381 170c0 3.6 1.6 4 2.2.6.3-1.5 0-2.7-.8-3-1-.4-1.4.3-1.4 2.4z"/><path d="M307 169.4l-2.5 1.4 2.6-.1c1.4-.1 2.6-.8 2.6-1.5 0-.6-.1-1.2-.1-1.2-.1.1-1.2.7-2.6 1.4zM398.2 168.7c-2.2.9-3.3 4-2.2 6.7.6 1.6.6 2.7 0 3.1-1.9 1.2-1 2.2 1.6 1.7 1.5-.3 3-1.5 3.7-3.1.7-1.4 1.8-3.1 2.6-3.7 1.1-.8 1.1-1.5.2-3.2-1.1-2.1-3.1-2.6-5.9-1.5zm2.3 8.3c-.3.5-1 1-1.6 1-.5 0-.9-.5-.9-1 0-.6.7-1 1.6-1 .8 0 1.2.4.9 1zM512.7 168.7c-.2.5-.7 2.5-1.1 4.5-.4 2.4-1.3 3.8-2.1 3.8s-1.5.4-1.5 1c0 .5 1.1.9 2.4.8 1.5-.1 2.4-.8 2.4-1.8-.1-.8.3-3.2.7-5.3.7-3.4.3-4.8-.8-3zM487.6 171.6c-.4 1.3-1.1 2.4-1.6 2.4-.6 0-1 1.2-.9 2.7 0 2.7.1 2.6 1.7-1 .9-2 2.2-3.7 2.9-3.7 1.7 0 1.6-1.7-.1-2.3-.9-.4-1.6.3-2 1.9zM386.3 171.2c-1.9 2.5-2.4 3.8-1.4 3.8 1.1 0 3.5-3.9 2.8-4.6-.2-.3-.9.1-1.4.8zM492.5 173c.3.5.8 1 1.1 1 .2 0 .4-.5.4-1 0-.6-.5-1-1.1-1-.5 0-.7.4-.4 1zM489 175c0 .5.5 1 1.1 1 .5 0 .7-.5.4-1-.3-.6-.8-1-1.1-1-.2 0-.4.4-.4 1z"/><path d="M508 175c0 .5.5 1 1.1 1 .5 0 .7-.5.4-1-.3-.6-.8-1-1.1-1-.2 0-.4.4-.4 1zM391.8 179.2c-1 1-1.4 1.8-.9 1.8 1 0 3.6-2.9 3-3.4-.2-.1-1.2.6-2.1 1.6zM491.5 181c-.3.5-.1 1 .4 1 .6 0 1.1-.5 1.1-1 0-.6-.2-1-.4-1-.3 0-.8.4-1.1 1zM498.6 180.9c-.4.5-.2 1.2.3 1.5.5.4 1.2.2 1.5-.3.4-.5.2-1.2-.3-1.5-.5-.4-1.2-.2-1.5.3zM509 181.4c0 .8.8 1.4 1.9 1.3 1.1 0 1.7-.6 1.4-1.4-.7-1.8-3.3-1.7-3.3.1zM391.6 182.8c-.2.4.4.8 1.4.8 1 0 1.6-.4 1.4-.8-.3-.4-.9-.8-1.4-.8-.5 0-1.1.4-1.4.8zM486.5 183.6c-2.1 1.6-.5 1.8 2.9.5 1.6-.6 1.7-.9.5-1.3-.8-.3-2.3 0-3.4.8zM501.7 183.7c-1.1 1-.8 4.1.4 4.9.9.5 1-.1.5-2.1-.6-2.3-.4-2.6.9-2.1.9.3 1.3.2 1-.4-.7-1.2-1.9-1.3-2.8-.3z"/><path d="M509 186.3c2.3 2.4 2.7 4.5.5 2.7-1-.9-1.5-.9-1.5-.1 0 .6-.4 1.1-1 1.1-.5 0-1-1-1-2.2 0-1.7-.3-1.9-1.2-1-.9.9-.7 1.6.7 3.2 1.9 2.1 1.1 2.7-1.5 1-2.2-1.3-4 .7-3.9 4.4.2 3 .2 3 .6.3.3-1.9 1-2.7 2.4-2.7 1.1 0 1.9.7 1.9 1.6 0 .8-.4 1.3-.9 1-.5-.4-.7.3-.4 1.4.4 1.5.9 1.8 1.8 1 .8-.6 1.7-.6 2.9.3 1.7 1.3 1.7 1.4.1 3-1.5 1.6-1.5 1.7.5 1.7s2.2-.4 1.8-5.9c-.1-3.3 0-5.7.5-5.4.4.2.7-.7.7-2.1 0-1.3.3-3.3.6-4.3.5-1.5.4-1.5-.5-.3-.6.8-1.1 1-1.1.5 0-.6-.9-1.1-2-1.2-2-.2-2-.2 0 2zm.5 9.7c-.5.8-1.1.8-1.7.2-.6-.6-.7-1.6-.3-2.2.5-.8 1.1-.8 1.7-.2.6.6.7 1.6.3 2.2zM492.5 193c-1.8 2-1.6 3.8.3 2.6.8-.5 2.4-4.6 1.8-4.6-.2 0-1.1.9-2.1 2zM495.5 194c-.3.5-.2 1 .4 1 .5 0 1.3-.5 1.6-1 .3-.6.2-1-.4-1-.5 0-1.3.4-1.6 1zM480 195c0 .6.7 1 1.5 1s1.5-.2 1.5-.4-.7-.6-1.5-1c-.8-.3-1.5-.1-1.5.4zM396.6 196.5c2.1 1.6 4.4 1.9 4.4.6 0-.5-1-1.1-2.2-1.5-3.7-.9-4.3-.7-2.2.9zM496 197c0 .5.5 1 1 1 .6 0 1-.5 1-1 0-.6-.4-1-1-1-.5 0-1 .4-1 1zM478.1 199.7c0 1.2.2 1.3.6.5.4-1 .8-1 2.1 0 1.5 1.2 1.6 1.1.3-.5-.7-.9-1.7-1.7-2.2-1.7-.5 0-.9.8-.8 1.7zM435.3 200.7c-.7.2-1.2 1.4-1.2 2.6.1 1.7.2 1.8.6.4.5-2 1.4-2.2 3.2-.5 1.1 1.1 1.1.9.2-1-.6-1.2-1.3-2.2-1.4-2.1-.1 0-.8.3-1.4.6zM428.5 203c.3.5 1.1 1 1.6 1 .6 0 .7-.5.4-1-.3-.6-1.1-1-1.6-1-.6 0-.7.4-.4 1zM478.5 203.9c-.8.7-.6 2.1.3 2.1.5 0 1.7-.6 2.8-1.4 1.8-1.4 1.8-1.5-.4-1.3-1.3.1-2.5.3-2.7.6zM507.3 206.5c-1.7 1.9-1.6 2.5.2 2.5.8 0 1.5.9 1.5 2s.5 2 1 2c1.2 0 1.2-.2 0-3.6-.8-2.1-.8-2.9.2-3.6 1-.6 1-.8-.2-.7-.8 0-2.1.6-2.7 1.4zM482.8 207.7c.7.3 1.6.2 1.9-.1.4-.3-.2-.6-1.3-.5-1.1 0-1.4.3-.6.6zM501.5 209c-1 1.1-1.3 2-.7 2 .6 0 1.6-.9 2.2-2 .6-1.1.9-2 .7-2-.2 0-1.2.9-2.2 2zM295 210.5c0 .8.4 1.5 1 1.5.5 0 .7-.7.4-1.5-.4-.8-.8-1.5-1-1.5-.2 0-.4.7-.4 1.5zM505 214.4c0 .9.5 1.6 1 1.6.6 0 1-.4 1-.9 0-.6-.4-1.3-1-1.6-.5-.3-1 .1-1 .9zM509.5 216c-1.6.7-1.7.9-.3.9.9.1 2-.4 2.3-.9.7-1.1.7-1.1-2 0zM486 216.5c0 .5.5 1.7 1 2.5s1 1 1 .5c0-.6-.5-1.7-1-2.5s-1-1.1-1-.5zM496.1 219.2c0 .9-.7 1.8-1.3 2.1-.7.2-1 .8-.5 1.2 1.1 1.3 2.9-1.1 2.4-3.1-.4-1.6-.5-1.6-.6-.2zM509 220.9c0 .5.7 1.2 1.6 1.5 1.4.5 1.5.4.4-.9-1.4-1.7-2-1.9-2-.6zM513.1 222.6c0 1.1.3 1.4.6.6.3-.7.2-1.6-.1-1.9-.3-.4-.6.2-.5 1.3zM485.7 225c.4 1.6.8 1.8 2 .9 1.1-1 1.1-1.4.1-2-2.1-1.4-2.6-1-2.1 1.1zM510 225.1c0 .5.5.7 1 .4.6-.3 1-.8 1-1.1 0-.2-.4-.4-1-.4-.5 0-1 .5-1 1.1zM513.4 226.4c.3 1 .1 2.5-.6 3.4-1.1 1.3-1 1.4.2 1 2-.6 2.5-3.7.9-5.2-.9-.8-1-.7-.5.8zM496 226.3c0 2.4 2.3 4.7 4.8 4.6 2-.1 2.2-.2.7-.6-1.1-.3-2.8-1.5-3.7-2.6-1-1.2-1.8-1.8-1.8-1.4zM508.5 230c.3.5.8 1 1.1 1 .2 0 .4-.5.4-1 0-.6-.5-1-1.1-1-.5 0-.7.4-.4 1zM508.6 233.5c.4.8.8 1.5 1 1.5.2 0 .4-.7.4-1.5s-.4-1.5-1-1.5c-.5 0-.7.7-.4 1.5zM511.6 232.7c-1 1-.7 2.5.4 1.8.6-.3 1 .1 1 .9 0 .9-.4 1.6-.9 1.6-1.1 0-.5 5 .8 6.3.8.8 1.1.6 1.1-.6 0-.9-.5-1.7-1.1-1.7-.5 0-.7-.5-.3-1.1.4-.7 1.1-.6 2.1.4 1.2 1.2 1.3 1.9.3 3.6-.6 1.2-1.6 1.9-2.2 1.5-.6-.4-.9-.1-.6.6.2.7 1.5 1.4 2.9 1.6 2.8.3 5.7-1.1 4.6-2.2-.3-.4-1.3-.1-2.2.6-1.2 1-1.5 1-1.5-.4 0-.9.7-1.9 1.5-2.2 1.7-.7 2.1-3.5.4-3.2-.6.2-1.4-.3-1.6-1-.3-.6 0-1.2.5-1.2 1.1 0 .3-4.8-.9-5.6-.5-.3-.6.9-.3 2.6.4 1.9.2 3-.4 3-.6 0-.9-.7-.6-1.5.6-1.6-1.9-4.8-3-3.8zM506 235.4c0 .7 3.2 6.6 3.6 6.6.2 0 .4-1.3.4-2.9 0-2-.6-3-2-3.4-1.1-.3-2-.4-2-.3zM365 351c0 .5.7 1 1.6 1 .8 0 1.2-.5.9-1-.3-.6-1-1-1.6-1-.5 0-.9.4-.9 1zM326.4 353.2l-1.9 2.3 2.3-1.9c1.2-1.1 2.2-2.1 2.2-2.3 0-.8-.8-.2-2.6 1.9zM343.6 352c-.6 1.8-.4 4 .7 5.7 1.1 1.8-.3 1.6-2.4-.3-2.2-2-4.7-.7-7.3 3.8l-1.8 3.3 3.4-3.8c2.9-3.1 3.7-3.5 4.7-2.3.6.7 2.1 1.6 3.2 1.9 1.2.3 1.8.3 1.5 0-.3-.4 0-1.3.7-2.1 1-1.3.9-1.4-.2-.8-1 .7-1.2.4-.6-1.3.8-2.5-1-6.5-1.9-4.1zM325.8 358.7c-1.6.8-2.8 1.8-2.8 2.4 0 1.3.9 1.1 2.6-.6.8-.8 2.1-1.2 2.8-.9.8.3 1.7.1 2-.4 1-1.7-1.7-1.9-4.6-.5z"/><path d="M337 362.4c-1.2 1.9-1.1 2 .2.8 2.2-1.7 5-.5 4.3 1.9-.4 1.1-.2 1.9.4 1.9 1.5 0 1.4-4.7-.1-5.7-2.3-1.4-3.4-1.1-4.8 1.1zM330.8 362c-.2.6-1 1.2-1.9 1.3-2.3.4-9.2 4.7-8.5 5.4.3.3 1.4-.1 2.4-1 1-1 2.5-1.7 3.3-1.7 1 .1.8.5-.5 1.5-1.1.8-1.5 1.5-1 1.5 1.4 0 7.9-6.8 7.2-7.5-.3-.4-.8-.1-1 .5z"/><path d="M338.1 365.7c-.1.6-.4 2-.7 3-.5 1.7-.5 1.7.6 0 .6-1 .9-2.3.6-3-.3-.9-.5-.9-.5 0zM344 366.6c0 1.1 2.9 3.4 3.4 2.6.2-.4-.4-1.3-1.5-2-1-.7-1.9-1-1.9-.6zM327 370.5c0 .8.2 1.5.4 1.5s.6-.7 1-1.5c.3-.8.1-1.5-.4-1.5-.6 0-1 .7-1 1.5zM341.5 371c-.3.5-.1 1 .4 1 .6 0 1.1-.5 1.1-1 0-.6-.2-1-.4-1-.3 0-.8.4-1.1 1zM286.8 393.4c-1.6 1.2-1.6 1.4.8 2.4 1.4.7 3.2 1.2 4 1.2.8 0 2.8.7 4.4 1.5 2.2 1.2 3.1 2.5 3.9 6.6.6 2.9.9 5.4.7 5.6-.3.3-1.5-.4-2.7-1.6-3.3-3.1-5.8-2.7-7.3 1.1-1.6 4-2.1 18.4-.6 19.3.6.4 1-.5 1-2.3 0-3.3 2.9-13.6 3.6-12.9.3.3-.4 4.4-1.5 9.2-1.2 4.8-2.1 8.8-2.1 9 0 .3 1.4 2 3.1 4 1.7 1.9 2.7 3.5 2.3 3.5-.4 0 1.1 1.8 3.5 4 2.3 2.2 4.7 4 5.2 4 .6 0 .8.4.5.8-.5.8 5.6 5.4 7.1 5.3.4 0 1.7.8 2.8 1.8 4.9 4.4 8.9 4.7 11.6.9 3.3-4.9 9.3-11.4 11.3-12.2 1.9-.8 1.8-.9-1.3-1.8-1.9-.5-4.3-2-5.3-3.4-2.6-3.3-3.6-3-3.5.8 0 2.2-1.2 5.3-3.7 9-2 3.2-3.9 5.8-4.3 5.8-.3 0-2.2-1.5-4.3-3.3-2-1.7-6.8-5.7-10.6-8.8-3.8-3.1-7.8-7.3-8.9-9.2-1.9-3.6-1.9-3.8 0-11.2 1.8-7.5 3.5-10.2 5.5-9 .5.3 1 .1 1-.6s.3-.9.7-.6c.3.4 1.2.2 1.9-.4 1.1-.9 1-1.7-.8-4.2-1.2-1.7-1.6-2.7-.7-2.2 1.1.7 1.2.6.2-.6-.6-.8-1.4-3.1-1.8-5.3-.6-3-1.4-4.1-3.9-5.1-5.2-2.1-9.9-2.6-11.8-1.1zM346 397c-.9.6-1 1-.3 1 .6 0 1.5-.5 1.8-1 .8-1.2.4-1.2-1.5 0z"/><path d="M288.1 399.7c.7 1.2 1.5 2 1.8 1.7.3-.2-.3-1.2-1.3-2.2-1.7-1.6-1.8-1.6-.5.5zM295.7 402c1.9 2.2 2.9 1.9 2-.5-.4-.8-1.3-1.5-2.2-1.5-1.3 0-1.2.3.2 2zM364 412.1c0 .5.5.7 1 .4.6-.3 1-.8 1-1.1 0-.2-.4-.4-1-.4-.5 0-1 .5-1 1.1zM351.1 416.6c0 1.1.3 1.4.6.6.3-.7.2-1.6-.1-1.9-.3-.4-.6.2-.5 1.3zM358.8 415.7c.6.2 1.8.2 2.5 0 .6-.3.1-.5-1.3-.5-1.4 0-1.9.2-1.2.5zM362.1 417.1l-2.3 1.9h2.9c2.5 0 7.8-2.6 6.3-3.1-2.4-.8-5-.3-6.9 1.2zM370.5 418c.3.5 1.1 1 1.6 1 .6 0 .7-.5.4-1-.3-.6-1.1-1-1.6-1-.6 0-.7.4-.4 1zM347.5 422c-.3.5-.1 1 .4 1 .6 0 1.1-.5 1.1-1 0-.6-.2-1-.4-1-.3 0-.8.4-1.1 1zM362 423c-2.5 2.2-1.1 2.7 2 .8 1.5-1 2.2-1 3.2 0 .9.9.8 1.2-.7 1.2s-1.6.3-.7 1.2c1.7 1.7 3.3-.2 2.6-3-.8-2.7-3.4-2.8-6.4-.2zM370.5 422c-.3.5.1 1 .9 1 .9 0 1.6-.5 1.6-1 0-.6-.4-1-.9-1-.6 0-1.3.4-1.6 1zM351.6 424.7c-.6 1.4-.5 1.5.5.6.7-.7 1-1.5.7-1.8-.3-.3-.9.2-1.2 1.2zM355 425c0 .5.5 1 1 1 .6 0 1-.5 1-1 0-.6-.4-1-1-1-.5 0-1 .4-1 1zM344 427c0 .5.5 1 1.1 1 .5 0 .7-.5.4-1-.3-.6-.8-1-1.1-1-.2 0-.4.4-.4 1zM356.5 433c1.1.5 2.7.9 3.5.9 1.3.1 1.3 0 0-.9-.8-.5-2.4-.9-3.5-.9h-2l2 .9zM365.5 434c.3.5.8 1 1.1 1 .2 0 .4-.5.4-1 0-.6-.5-1-1.1-1-.5 0-.7.4-.4 1zM501 540.1c0 1.1.4 1.8 1 1.4.5-.3.7-1.2.3-2-.7-2.1-1.3-1.9-1.3.6zM488 595.4c0 .2.7.9 1.5 1.6 1.2 1 1.5 1 1.5-.4 0-.9-.7-1.6-1.5-1.6s-1.5.2-1.5.4zM80.7 624.8c-1 1-1.7 2.3-1.7 2.9 0 .6-.9 3-2 5.4-1.1 2.4-2 6-2 7.9 0 1.9-2 8.4-4.5 14.5-5.9 14.5-6 20-.1 15.4 2.7-2.1 3.6-5.9 1.4-5.9-.8-.1-.6-.6.5-1.4.9-.7 1.7-2.2 1.7-3.3 0-1 .5-2.4 1.2-3.1.7-.7.9-1.2.5-1.2s.5-1.9 1.9-4.2c1.6-2.5 2.8-5.9 2.9-8.7.3-3.8.9-5.2 3.7-7.6 5.8-5.2 6.1-6 4.3-9.4-1.8-3.6-5.3-4.1-7.8-1.3zM127.3 632.5l-3.2 2.3 3.2-.3c2.4-.2 3.3-.8 3.5-2.4.4-2.5.5-2.5-3.5.4zM95 632.6c-.7.7-2.6 4.2-4.3 7.6-2.4 5-3.1 7.8-3.2 13.8-.2 5.4-1 9.4-3 14.2-2.8 7.1-3 10.1-.5 10.6 1.9.3 6.2-3.6 5.7-5.1-.2-.6.6-2 1.7-2.9 1.9-1.7 2-1.9.4-2.8-1.6-1-1.5-1.5 1-6.3 1.4-2.8 2.5-5.6 2.4-6-.1-.5.2-.6.7-.2.6.3 1.5-.4 2.1-1.5.9-1.7.8-2.2-.7-2.7-4-1.5-4.2-3.3-1.2-10.1 1.6-3.5 2.9-7 2.9-7.7 0-1.9-2.7-2.6-4-.9zM126 648.9c-1.4.5-3.5.6-4.8.5-2.2-.4-2.2-.3-2.2 12.1 0 10.7.2 12.5 1.6 12.5.9 0 1.4-.5 1.2-1.2-.3-.7.8-2.5 2.4-4 3.3-3.2 3.6-4.8.8-4.8-2.1 0-2.4-.8-1.4-3.5.5-1.2.9-1.3 1.4-.5.5.7 1.4-.7 2.4-3.6 1.1-3.2 1.3-5 .6-5.2-.7-.3-.7-.8.1-1.8.6-.8 1-1.4.8-1.3-.2 0-1.5.4-2.9.8z"/></svg>