<?xml version="1.0" standalone="no"?>
<!DOCTYPE svg PUBLIC "-//W3C//DTD SVG 20010904//EN"
 "http://www.w3.org/TR/2001/REC-SVG-20010904/DTD/svg10.dtd">
<svg version="1.0" xmlns="http://www.w3.org/2000/svg"
 width="703.000000pt" height="703.000000pt" viewBox="0 0 703.000000 703.000000"
 preserveAspectRatio="xMidYMid meet">
<metadata>
Created by potrace 1.11, written by Peter Selinger 2001-2013
</metadata>
<g transform="translate(0.000000,703.000000) scale(0.100000,-0.100000)"
fill="#000000" stroke="none">
<path d="M3230 7005 c-5 -14 -14 -55 -20 -92 -7 -38 -30 -149 -52 -248 -21
-99 -46 -216 -53 -260 -8 -44 -21 -120 -29 -170 -31 -178 -31 -191 -7 -198 29
-7 27 -27 -3 -27 -22 0 -24 -4 -31 -91 -4 -58 -17 -120 -36 -175 -16 -46 -29
-89 -29 -95 0 -7 19 13 42 43 71 92 157 147 263 168 34 7 157 12 285 13 242 1
258 -2 365 -55 142 -71 219 -167 301 -378 20 -52 40 -99 44 -105 4 -5 11 -28
15 -50 16 -89 158 -337 267 -466 87 -103 159 -199 149 -199 -14 0 -169 173
-243 272 -54 72 -68 85 -73 69 -8 -27 -40 -32 -59 -9 -9 10 -21 16 -27 13 -5
-4 -19 4 -30 16 -17 20 -22 21 -30 9 -8 -12 -9 -10 -4 6 3 13 0 26 -9 33 -12
10 -14 7 -10 -21 l5 -33 -21 25 -22 25 6 -27 c4 -16 2 -28 -4 -28 -5 0 -10 5
-10 10 0 15 -53 1 -67 -18 -7 -9 -13 -11 -13 -6 0 6 -15 15 -33 22 -18 6 -41
19 -52 27 -49 37 -95 63 -123 70 -17 3 -42 15 -55 25 -13 10 -35 20 -48 22
-13 2 -34 9 -46 16 -17 9 -28 10 -43 2 -15 -8 -18 -8 -14 3 7 18 -37 31 -48
14 -5 -8 -8 -6 -8 6 0 13 -5 17 -19 12 -10 -3 -30 -1 -45 4 -14 6 -26 7 -26 3
0 -4 -8 -8 -18 -9 -10 -1 -44 -13 -75 -28 -32 -14 -61 -23 -66 -20 -5 2 -12
-2 -15 -11 -3 -8 -11 -12 -17 -9 -12 8 -68 -43 -69 -62 0 -7 -9 -17 -20 -23
-11 -6 -20 -20 -20 -30 0 -11 -3 -20 -8 -20 -4 0 -13 -15 -20 -32 -8 -18 -17
-42 -22 -53 -6 -17 -10 -12 -20 26 -11 45 -24 57 -72 73 -12 3 -18 0 -18 -10
0 -9 9 -18 20 -21 11 -3 20 -10 21 -17 0 -6 2 -19 4 -28 2 -10 -1 -18 -6 -18
-5 0 -9 4 -9 9 0 5 -10 11 -22 13 -13 2 -22 9 -20 16 1 6 -7 12 -17 12 -11 0
-23 5 -26 10 -3 6 -11 10 -18 10 -8 0 -8 -3 1 -12 7 -7 12 -19 12 -27 0 -13
-2 -13 -9 -2 -7 10 -10 10 -16 1 -4 -7 -2 -16 6 -21 10 -6 11 -11 3 -19 -20
-20 -66 15 -86 65 -24 61 -34 196 -19 265 6 30 8 57 3 62 -5 5 -9 3 -9 -4 -1
-7 -7 -40 -13 -73 -12 -59 -9 -203 5 -237 4 -10 3 -18 -3 -18 -14 0 -32 103
-32 186 0 40 7 105 15 145 9 40 13 74 10 77 -3 3 -5 1 -5 -5 0 -6 -12 -27 -26
-48 -14 -21 -26 -46 -27 -56 -1 -10 -7 -21 -14 -23 -7 -3 -13 -10 -13 -16 0
-6 6 -8 13 -4 7 4 9 3 4 -2 -5 -5 -14 -9 -20 -9 -7 0 -12 -10 -12 -22 0 -11
-4 -25 -8 -29 -4 -5 -5 -1 -1 9 12 33 -6 17 -39 -35 -46 -72 -141 -190 -261
-324 -21 -24 -58 -72 -82 -106 -24 -35 -65 -94 -91 -131 -66 -94 -114 -170
-159 -247 -88 -153 -250 -420 -289 -475 -23 -33 -63 -96 -90 -140 -26 -44 -66
-100 -89 -125 -23 -25 -57 -72 -75 -105 -19 -33 -41 -68 -48 -77 -8 -9 -25
-56 -38 -105 -12 -48 -37 -128 -55 -178 -18 -49 -46 -130 -62 -180 -16 -49
-61 -182 -99 -295 -83 -245 -110 -337 -144 -489 -14 -63 -28 -117 -30 -121 -2
-3 -13 -51 -24 -105 -12 -55 -30 -143 -41 -195 -12 -52 -25 -122 -30 -155 -11
-73 -50 -192 -84 -260 -14 -27 -36 -91 -50 -141 -33 -124 -45 -146 -130 -241
-41 -45 -87 -103 -101 -127 -34 -58 -97 -207 -91 -214 12 -11 66 23 78 49 7
16 16 29 20 29 5 0 8 9 8 20 0 10 6 23 13 27 14 9 61 76 86 125 10 18 30 39
45 46 21 11 26 20 26 52 0 30 5 40 20 45 11 3 20 13 20 21 0 8 3 13 8 12 4 -1
20 6 35 16 20 13 25 22 18 29 -16 16 -13 44 7 59 9 7 26 30 37 51 11 20 23 37
27 37 5 0 8 6 8 14 0 8 9 18 20 21 11 3 20 11 20 16 0 5 7 9 15 9 9 0 15 9 15
24 0 29 42 66 74 66 11 0 30 -7 40 -15 11 -8 28 -15 38 -15 13 0 18 -8 18 -30
0 -32 16 -39 39 -17 11 10 13 10 7 0 -5 -10 4 -13 32 -13 22 0 58 -6 80 -14
22 -8 42 -12 45 -10 2 3 23 -12 46 -32 29 -26 41 -45 41 -65 0 -20 6 -28 23
-33 26 -6 43 -34 51 -86 3 -20 19 -51 35 -70 31 -38 116 -89 128 -77 4 4 -16
31 -44 60 -58 60 -120 151 -170 252 -20 38 -59 108 -87 154 -47 77 -51 89 -54
157 -3 60 2 92 28 179 17 59 30 111 28 117 -5 13 -88 -69 -113 -113 -15 -25
-29 -35 -50 -37 -17 -2 -40 -13 -52 -25 -19 -16 -23 -17 -23 -5 0 9 7 21 15
28 8 7 14 20 14 29 -1 13 -2 13 -6 -2 -2 -9 -8 -17 -13 -17 -10 0 -7 36 5 63
4 10 4 21 0 25 -4 4 -10 1 -12 -5 -3 -7 -16 -13 -30 -13 -21 0 -23 3 -14 14 9
11 8 18 -5 30 -15 16 -15 18 5 35 13 11 32 17 48 15 16 -2 22 -1 16 2 -7 3
-13 14 -13 25 0 11 -5 16 -14 13 -18 -7 -31 43 -16 61 8 10 7 15 -2 19 -7 3
-3 3 8 1 28 -7 40 22 19 45 -14 16 -14 19 7 33 19 14 21 18 8 26 -12 9 -12 12
2 28 16 18 14 48 -3 38 -5 -4 -6 1 -3 9 9 23 26 15 53 -24 26 -38 56 -70 66
-70 4 0 13 -6 21 -14 19 -19 49 -10 90 29 19 18 34 30 34 27 0 -8 93 136 113
174 8 16 20 49 27 74 6 25 28 74 48 110 65 117 169 334 187 390 10 30 33 100
51 155 18 55 40 134 49 175 26 127 51 167 188 302 71 70 145 154 172 196 49
75 77 102 107 102 10 0 18 3 18 8 1 4 11 20 24 35 l23 29 -3 -54 -3 -53 9 45
c17 82 20 90 34 90 18 0 22 -14 25 -75 5 -140 75 -261 183 -316 52 -27 167
-37 233 -20 191 48 382 242 435 444 7 26 16 50 20 52 10 6 -23 -113 -39 -143
-6 -12 -10 -26 -7 -31 3 -4 -5 -19 -17 -32 -12 -13 -21 -26 -20 -29 3 -10
-133 -157 -167 -181 -19 -13 -43 -31 -52 -39 -39 -35 -141 -65 -223 -65 -44 0
-93 3 -110 7 l-30 7 30 -14 c48 -23 164 -19 238 8 98 36 155 73 234 154 51 52
71 67 70 53 -1 -11 -4 -20 -7 -20 -4 0 -16 -13 -28 -29 -15 -21 -17 -29 -7
-27 19 3 56 37 50 47 -3 4 9 17 25 29 28 20 38 46 15 38 -6 -2 -9 -6 -8 -10 2
-4 -6 -6 -17 -5 -24 2 -25 5 -5 27 9 10 31 48 50 86 19 38 35 62 35 54 0 -8
-14 -39 -30 -69 -23 -41 -27 -57 -19 -68 13 -15 39 0 39 23 0 8 5 14 10 14 6
0 10 -2 10 -5 0 -10 -53 -90 -89 -135 -20 -24 -37 -52 -37 -62 -1 -16 0 -16
25 1 41 29 93 90 86 101 -3 6 1 10 9 10 9 0 16 5 16 11 0 5 -5 7 -11 3 -8 -5
-8 -1 0 14 13 24 17 27 54 36 19 4 26 3 22 -4 -3 -5 -14 -10 -24 -10 -26 0
-46 -26 -27 -33 8 -3 17 1 20 9 3 9 11 12 18 8 8 -5 3 -15 -16 -31 -15 -12
-25 -23 -21 -23 3 0 -2 -11 -11 -26 -13 -19 -14 -28 -5 -37 10 -9 11 -8 5 7
-6 16 -4 18 10 13 14 -6 17 -3 12 9 -4 11 1 18 14 21 11 3 18 9 15 13 -3 5 -2
11 3 14 4 2 14 -5 21 -16 11 -18 11 -20 -3 -15 -8 3 -18 2 -21 -3 -4 -6 1 -10
9 -10 9 0 16 -4 16 -10 0 -5 -4 -10 -10 -10 -15 0 0 -28 18 -35 13 -5 14 -3 5
6 -14 14 -6 39 13 39 8 0 11 6 8 15 -4 8 -1 15 6 15 8 0 10 -9 6 -25 -8 -31 9
-33 19 -2 6 19 8 19 12 5 6 -26 23 -22 24 5 l0 22 9 -22 c15 -37 35 -27 52 24
11 32 16 40 17 25 1 -21 4 -22 36 -16 l35 6 0 -44 c0 -70 36 -192 73 -251 39
-61 83 -101 144 -130 41 -20 63 -47 26 -32 -37 15 -56 18 -50 8 4 -6 -6 -13
-24 -17 -17 -3 -28 -10 -24 -16 3 -5 1 -10 -4 -10 -6 0 -11 5 -11 12 0 9 -3 9
-12 0 -16 -16 -33 -15 -20 1 6 7 7 18 3 26 -6 10 -10 10 -16 1 -5 -8 -14 -5
-31 11 -14 13 -24 17 -24 10 0 -7 -4 -9 -10 -6 -5 3 -10 -1 -10 -11 0 -9 -8
-23 -17 -30 -17 -12 -16 -13 7 -14 25 -1 25 -1 2 -10 -12 -5 -30 -7 -40 -4
-13 5 -14 4 -3 -4 15 -11 43 -83 35 -91 -2 -3 -10 1 -16 7 -19 19 -28 14 -28
-13 0 -17 -4 -23 -15 -19 -8 4 -17 -1 -21 -10 -3 -9 -14 -16 -23 -16 -11 -1
-8 -5 9 -15 35 -20 42 -18 35 6 -5 15 -4 19 4 14 7 -4 19 -1 28 7 13 10 17 10
20 1 3 -7 12 -13 21 -13 13 0 13 -3 4 -12 -10 -10 -17 -10 -32 0 -17 10 -20
10 -20 -2 0 -8 5 -18 10 -21 6 -3 10 -15 10 -26 0 -21 25 -26 33 -6 4 7 6 8 6
1 2 -20 -28 -39 -41 -26 -17 17 -27 15 -21 -6 2 -10 -3 -24 -11 -31 -9 -8 -15
-25 -15 -40 1 -17 3 -20 6 -8 2 9 8 17 13 17 5 0 16 3 25 6 10 4 6 -4 -10 -20
-28 -28 -72 -28 -61 0 10 26 -9 14 -26 -17 -14 -24 -21 -28 -35 -21 -32 17
-93 24 -93 11 0 -6 6 -9 14 -6 16 6 40 -16 29 -26 -13 -14 40 -7 74 9 29 14
38 15 58 4 25 -14 25 -30 -1 -30 -9 0 -14 -6 -11 -12 2 -7 -3 -18 -12 -25 -28
-22 6 -15 98 21 117 45 165 71 231 121 69 54 189 178 222 230 46 73 84 91 163
79 64 -9 75 -39 85 -233 8 -149 18 -259 41 -456 8 -64 8 -113 0 -168 -14 -98
-14 -654 -1 -728 6 -35 7 -203 2 -474 l-9 -420 -36 -81 c-20 -44 -42 -103 -48
-131 -12 -52 -8 -81 34 -233 8 -30 18 -85 22 -122 l7 -68 118 0 117 0 12 41
c10 33 10 44 -1 57 -11 13 -11 15 5 9 10 -4 17 -2 17 6 4 99 22 281 35 347 17
92 13 164 -12 192 -13 14 -12 17 4 27 17 10 17 10 1 11 -22 0 -24 26 -3 34 8
3 14 0 12 -7 -1 -6 7 -13 19 -15 19 -3 22 6 38 127 10 71 15 134 12 140 -4 6
-2 11 4 11 7 0 10 6 7 13 -2 6 0 20 5 30 5 11 5 17 -2 17 -5 0 -10 -6 -10 -14
0 -8 -7 -16 -15 -20 -18 -6 -20 5 -4 21 9 9 7 11 -9 6 -18 -4 -19 -8 -9 -31 9
-20 9 -26 -1 -30 -6 -2 -12 -8 -12 -13 0 -6 6 -7 13 -3 6 4 1 -4 -12 -19 -12
-14 -20 -30 -16 -36 3 -6 0 -14 -9 -17 -8 -3 -12 -12 -9 -20 3 -8 -1 -14 -9
-14 -12 0 -15 16 -14 75 1 52 5 74 13 71 6 -3 14 5 17 16 6 26 -1 41 -16 32
-6 -4 -5 -10 3 -15 9 -6 10 -9 2 -9 -17 0 -53 49 -53 72 0 12 4 16 12 12 6 -4
8 -3 5 3 -4 6 0 19 8 29 7 10 11 29 8 42 -3 13 -1 22 7 22 6 0 9 -4 6 -9 -4
-5 5 -8 19 -6 35 3 45 15 14 15 -33 0 -64 58 -43 78 8 7 14 23 14 36 0 14 9
28 25 36 25 13 36 60 14 60 -5 0 -7 5 -4 10 4 6 10 8 15 5 5 -3 12 0 16 6 4 8
3 9 -4 5 -8 -4 -12 0 -12 11 0 15 -2 16 -10 3 -8 -12 -10 -11 -10 7 0 12 6 24
13 27 10 5 10 7 0 12 -7 3 -13 14 -13 25 0 10 -4 19 -9 19 -5 0 -7 9 -4 21 4
14 9 17 16 10 15 -15 30 -14 24 3 -3 7 0 19 6 25 8 8 8 11 -2 11 -20 0 -1 21
33 36 24 10 26 13 10 14 -26 0 -44 19 -43 45 0 11 3 14 6 8 7 -18 23 -16 23 2
0 8 7 15 15 15 8 0 12 6 9 14 -3 8 -12 12 -20 9 -17 -6 -18 9 -2 25 9 9 15 7
25 -6 13 -15 14 -12 8 23 -4 26 -3 35 4 26 10 -16 31 -6 31 15 0 8 5 12 10 9
6 -4 7 -11 4 -17 -5 -7 -2 -8 6 -3 8 5 10 21 7 46 -4 34 -2 39 14 39 10 0 19
-4 19 -10 0 -5 -4 -10 -9 -10 -6 0 -6 -12 -1 -29 4 -16 6 -32 3 -35 -13 -13
-17 -94 -8 -145 l6 -34 13 25 c19 36 38 171 39 279 1 112 -12 470 -19 516 -4
30 -7 32 -37 27 -24 -4 -28 -3 -17 5 12 9 13 14 2 28 -6 10 -17 29 -23 43 -6
14 -15 33 -20 42 -12 23 3 30 36 18 14 -5 31 -10 36 -10 5 0 9 80 9 193 0 105
7 260 15 342 8 83 15 191 15 240 0 50 4 117 10 150 5 33 12 102 14 153 3 51 7
96 10 101 3 5 10 71 16 147 5 77 14 173 20 214 6 41 12 91 14 110 2 19 11 57
20 83 9 28 16 79 16 123 0 69 -2 75 -17 69 -10 -4 -25 -8 -33 -8 -8 0 -18 -5
-22 -11 -5 -7 -8 -7 -8 2 0 16 -24 42 -39 42 -9 0 -14 25 -10 57 0 4 -9 10
-20 15 -13 5 -21 16 -20 30 1 22 1 22 9 -2 8 -24 8 -24 9 -2 1 12 6 22 11 22
6 0 10 7 10 15 0 8 -4 15 -10 15 -5 0 -10 -7 -10 -15 0 -11 -5 -12 -26 -5 -33
13 -34 13 -34 -6 0 -9 -6 -14 -12 -11 -7 2 -12 10 -10 16 1 6 -9 11 -22 11
-16 0 -26 7 -30 23 -4 16 -8 19 -14 9 -5 -7 -16 -10 -26 -6 -13 5 -17 2 -14
-11 2 -10 -3 -20 -9 -22 -8 -3 -13 5 -13 22 0 15 -4 24 -10 20 -19 -12 -43 24
-37 55 6 28 5 29 -28 25 -32 -4 -34 -3 -26 18 5 12 12 22 17 23 18 2 44 16 44
25 0 5 -11 9 -24 9 -14 0 -28 5 -31 10 -3 6 3 10 13 10 15 0 19 5 15 19 -4 15
-10 18 -26 12 -12 -5 -22 -16 -22 -26 0 -10 -6 -20 -14 -23 -10 -3 -12 0 -7
13 3 10 1 25 -6 33 -11 13 -10 15 5 9 25 -9 46 36 29 63 -8 14 -8 21 -1 26 6
4 15 1 19 -6 6 -9 9 -10 15 0 4 7 1 16 -6 21 -10 6 -7 9 11 10 14 1 18 3 10 5
-9 3 -21 18 -27 34 -11 28 -10 30 14 30 18 0 24 4 20 14 -5 12 11 26 28 26 6
0 -28 -65 -38 -71 -5 -4 4 -6 21 -5 17 1 34 5 39 9 4 5 0 5 -10 1 -19 -7 -25
20 -7 31 5 3 9 21 7 38 -2 26 1 31 16 29 9 -2 17 2 17 8 0 6 -4 9 -9 5 -5 -3
-12 -1 -16 5 -10 17 -21 11 -32 -17 -10 -26 -10 -26 -6 9 7 48 -3 88 -23 88
-8 0 -12 5 -9 10 9 15 35 12 35 -4 0 -8 5 -27 11 -43 8 -21 13 -24 18 -13 23
52 55 91 72 87 10 -3 20 2 24 11 4 12 8 13 13 5 5 -7 13 -9 21 -4 11 7 10 11
-6 19 -10 6 -27 10 -38 9 -25 -3 -45 47 -27 65 10 10 17 10 32 0 25 -16 28 5
3 23 -15 11 -16 17 -3 56 8 24 13 51 12 59 -3 24 8 60 18 60 5 0 12 -11 16
-25 3 -14 10 -22 15 -20 4 3 4 17 -1 31 -6 14 -8 30 -5 35 4 5 -1 6 -9 3 -9
-3 -16 -1 -16 5 0 6 -14 20 -30 30 -26 15 -28 20 -16 30 12 10 16 8 21 -8 3
-12 13 -21 21 -21 16 0 19 27 3 32 -14 5 -21 58 -8 58 8 0 13 -22 10 -42 0 -5
3 -8 8 -8 5 0 11 -9 14 -20 3 -11 1 -20 -4 -20 -5 0 -9 -4 -9 -10 0 -17 20
-11 27 8 3 9 15 25 27 35 12 10 15 16 7 15 -7 -2 -16 3 -18 11 -4 9 0 11 16 6
12 -4 21 -2 21 4 0 6 -3 10 -7 10 -22 -4 -32 3 -27 16 4 10 0 15 -12 16 -18 0
-17 1 1 9 11 5 14 9 7 9 -20 1 -44 28 -32 36 13 8 13 45 0 45 -5 0 -7 7 -4 15
4 8 -1 17 -10 21 -9 3 -14 10 -11 14 3 4 -2 13 -9 19 -21 17 -15 -13 7 -37 15
-16 15 -21 3 -38 -8 -10 -18 -16 -22 -12 -4 4 -12 4 -18 -1 -21 -16 -45 -20
-40 -8 2 7 -4 13 -16 14 -11 1 -20 -4 -20 -13 0 -19 -16 -18 -24 1 -5 13 -9
12 -26 -5 -26 -26 -17 -45 12 -29 19 10 20 9 15 -10 -3 -12 -1 -19 4 -15 5 3
9 1 9 -5 0 -5 -6 -12 -12 -14 -8 -3 -5 -6 5 -6 15 -1 18 5 14 27 -2 15 -2 21
0 15 3 -7 8 -13 13 -13 5 0 11 6 14 13 3 6 3 0 0 -15 -4 -18 -1 -29 11 -36 13
-7 4 -9 -33 -8 -28 0 -50 5 -49 10 1 5 -4 11 -12 14 -10 3 -12 0 -8 -12 4 -10
7 -22 7 -27 0 -6 5 -7 10 -4 6 3 10 0 10 -9 0 -8 6 -16 13 -19 6 -2 9 -7 5
-11 -10 -12 -57 35 -51 50 3 8 -4 18 -18 23 l-24 10 23 0 c26 1 27 8 7 35 -17
23 -19 36 -5 36 12 0 43 30 59 56 10 18 10 18 11 1 0 -10 5 -15 10 -12 19 12
10 35 -12 35 -13 0 -30 5 -38 10 -11 7 -6 9 17 6 18 -2 39 -8 46 -15 26 -21
27 2 2 31 -28 33 -33 53 -11 45 19 -7 31 24 14 35 -10 8 -10 11 0 15 20 8 13
26 -9 20 -12 -3 -22 0 -25 8 -3 7 -12 16 -20 19 -17 6 18 -49 46 -72 13 -12
13 -13 -1 -9 -9 3 -21 -4 -28 -16 -11 -17 -11 -21 3 -29 23 -13 20 -27 -5 -21
-11 3 -23 13 -27 22 -3 9 -9 18 -12 21 -12 9 -20 70 -10 70 6 0 10 -5 10 -11
0 -5 5 -7 10 -4 18 11 11 25 -17 36 -14 5 -32 17 -39 27 -12 16 -13 16 -14 -2
0 -10 8 -25 17 -32 10 -7 15 -15 11 -19 -3 -4 -15 2 -25 12 -23 21 -43 27 -43
13 0 -6 5 -10 10 -10 6 0 10 -7 10 -15 0 -9 -6 -12 -16 -8 -11 4 -14 14 -10
34 3 16 1 31 -5 35 -6 3 -8 12 -5 19 2 7 -2 16 -10 19 -9 3 -12 11 -9 16 5 8
11 8 20 0 10 -8 17 -6 29 11 8 13 19 19 23 15 4 -4 1 -11 -7 -16 -13 -8 -13
-11 1 -25 15 -15 17 -15 23 0 3 9 2 13 -4 10 -6 -3 -10 -1 -10 4 0 6 5 11 12
11 6 0 3 9 -7 20 -17 19 -19 19 -31 2 -12 -16 -13 -16 -19 0 -4 10 -11 15 -16
12 -5 -3 -5 6 1 20 9 25 -2 38 -13 16 -3 -6 -4 -5 -3 2 5 25 31 14 28 -12 l-4
-25 29 25 c15 14 30 27 33 29 3 2 -3 1 -13 -2 -12 -5 -17 -3 -15 5 2 6 23 12
47 13 26 1 39 -1 33 -7 -5 -5 -7 -19 -5 -29 5 -19 6 -19 18 3 6 13 8 28 3 34
-4 6 -6 32 -4 58 3 25 1 46 -5 46 -5 0 -9 -6 -9 -12 0 -7 -11 0 -25 15 -22 23
-29 26 -48 16 -16 -9 -22 -9 -25 0 -3 8 -8 6 -17 -5 -10 -15 -11 -12 -7 17 4
28 2 32 -9 21 -7 -7 -13 -31 -12 -55 l1 -42 -7 45 c-5 28 -4 47 2 51 5 4 6 12
2 18 -5 9 -11 7 -20 -6 -8 -10 -17 -14 -22 -9 -4 5 -2 11 5 13 14 5 16 30 3
35 -4 2 -11 14 -15 28 -6 25 -6 25 6 2 8 -16 17 -21 32 -17 15 5 17 4 7 -3
-10 -7 -10 -11 -1 -17 6 -4 17 1 25 11 7 11 9 21 4 22 -5 2 -9 10 -9 18 0 8
-10 15 -22 15 -18 1 -16 3 7 8 18 4 31 14 33 25 3 13 0 16 -9 11 -9 -6 -11 -3
-6 9 4 10 7 20 7 23 0 3 7 0 15 -7 8 -7 15 -20 15 -30 0 -10 -7 -20 -15 -24
-20 -7 -19 -33 1 -44 15 -8 15 -10 0 -15 -25 -10 -19 -30 7 -24 21 6 21 6 3
-8 -16 -12 -22 -12 -28 -2 -4 6 -8 8 -8 2 1 -5 6 -18 14 -27 12 -16 14 -16 29
3 9 10 22 19 29 19 8 -1 6 -6 -4 -14 -17 -13 -25 -36 -12 -36 4 0 13 8 21 18
12 14 14 15 10 1 -7 -20 38 -45 49 -27 5 7 3 8 -6 3 -8 -5 -11 -4 -6 3 4 6 13
9 21 5 8 -3 15 0 15 6 0 6 -11 11 -24 11 -34 0 -41 16 -11 24 25 6 36 36 14
36 -8 0 -8 5 1 15 16 19 1 19 -24 0 -17 -13 -17 -15 -3 -21 9 -3 14 -11 10
-17 -4 -6 -10 -5 -17 5 -6 8 -15 15 -21 16 -5 0 -11 6 -14 13 -2 7 1 9 9 4 8
-5 18 -2 24 7 6 8 19 17 29 21 21 8 22 26 2 33 -8 4 -15 12 -15 20 0 24 40
-23 41 -48 1 -21 2 -21 6 -3 3 11 9 23 14 26 5 3 5 19 -2 37 -6 18 -15 29 -20
26 -12 -7 -11 3 1 26 6 12 7 21 0 25 -5 3 -7 12 -3 20 3 8 0 15 -6 15 -6 0
-11 -11 -11 -25 0 -31 -17 -33 -22 -2 l-3 22 -23 -23 c-12 -12 -20 -27 -17
-32 4 -6 2 -10 -4 -10 -35 0 -1 53 46 71 26 10 23 29 -5 29 -14 0 -12 4 7 19
21 16 23 23 16 57 -4 21 -11 44 -17 51 -6 8 -6 19 1 32 7 13 8 22 1 26 -7 4
-7 12 0 25 10 18 5 19 -120 19 -110 0 -130 -2 -130 -15 0 -8 -5 -12 -10 -9 -6
4 -8 10 -5 15 3 6 -29 9 -74 8 -72 -2 -81 -4 -84 -22 -4 -19 -4 -19 -6 2 l-1
22 -364 -1 c-269 0 -366 -4 -370 -12 -3 -9 -5 -9 -5 1 -1 18 -52 15 -67 -5
-12 -17 -13 -17 -14 -1 0 15 -15 17 -130 17 -129 0 -131 0 -140 -24z m227 -27
c-3 -8 -6 -5 -6 6 -1 11 2 17 5 13 3 -3 4 -12 1 -19z m1060 -20 c-3 -8 -6 -5
-6 6 -1 11 2 17 5 13 3 -3 4 -12 1 -19z m-76 -45 c-9 -15 -10 -14 -7 7 6 35 7
37 12 23 3 -7 1 -20 -5 -30z m55 -21 c-4 -3 -11 0 -16 8 -15 24 -11 33 6 15 9
-9 13 -19 10 -23z m-39 -8 c-3 -3 -12 -4 -19 -1 -8 3 -5 6 6 6 11 1 17 -2 13
-5z m-6 -23 c11 18 21 6 13 -15 -5 -13 -9 -14 -20 -5 -8 6 -14 17 -13 23 0 6
3 5 6 -3 4 -11 7 -11 14 0z m-79 -23 c-7 -7 -12 -8 -12 -2 0 14 12 26 19 19 2
-3 -1 -11 -7 -17z m300 -20 c-7 -7 -12 -8 -12 -2 0 14 12 26 19 19 2 -3 -1
-11 -7 -17z m-240 -20 c-7 -7 -12 -8 -12 -2 0 14 12 26 19 19 2 -3 -1 -11 -7
-17z m109 -13 c5 4 9 1 9 -4 0 -14 -16 -14 -41 0 -11 5 -17 14 -14 20 4 5 13
3 21 -6 9 -8 20 -13 25 -10z m73 9 c3 -8 2 -12 -4 -9 -6 3 -10 10 -10 16 0 14
7 11 14 -7z m-339 -4 c3 -6 -1 -7 -9 -4 -18 7 -21 14 -7 14 6 0 13 -4 16 -10z
m405 0 c0 -5 -5 -10 -11 -10 -5 0 -7 5 -4 10 3 6 8 10 11 10 2 0 4 -4 4 -10z
m-87 -37 c-7 -3 -13 -11 -13 -18 0 -7 6 -16 13 -18 7 -4 6 -6 -5 -6 -9 -1 -18
-6 -20 -13 -3 -7 -7 -5 -11 6 -5 11 -3 15 5 10 8 -5 9 -2 5 9 -3 9 -1 19 4 23
6 3 8 15 5 27 -5 19 -4 19 12 2 13 -13 14 -19 5 -22z m-203 17 c0 -5 -2 -10
-4 -10 -3 0 -8 5 -11 10 -3 6 -1 10 4 10 6 0 11 -4 11 -10z m-115 -18 c-3 -3
-11 0 -18 7 -9 10 -8 11 6 5 10 -3 15 -9 12 -12z m401 -19 c-10 -10 -19 5 -10
18 6 11 8 11 12 0 2 -7 1 -15 -2 -18z m-29 -5 c-2 -7 16 -28 39 -47 36 -28 43
-38 40 -62 -1 -16 -6 -32 -11 -37 -4 -4 -5 10 -1 31 5 28 4 37 -7 37 -7 0 -26
13 -42 30 -15 16 -32 27 -37 24 -12 -8 -10 5 5 21 15 18 20 19 14 3z m-1242
-18 c3 -5 2 -10 -4 -10 -5 0 -13 5 -16 10 -3 6 -2 10 4 10 5 0 13 -4 16 -10z
m48 -10 c-9 -11 -19 -17 -21 -15 -6 6 18 35 29 35 5 0 1 -9 -8 -20z m1304 -10
c3 -10 2 -11 -4 -4 -4 6 -15 14 -23 17 -11 5 -9 6 4 4 11 -1 21 -9 23 -17z
m-22 -10 c3 -5 1 -10 -4 -10 -6 0 -11 5 -11 10 0 6 2 10 4 10 3 0 8 -4 11 -10z
m-1315 -10 c0 -5 -4 -10 -10 -10 -5 0 -10 5 -10 10 0 6 5 10 10 10 6 0 10 -4
10 -10z m50 -4 c0 -2 -9 -6 -20 -9 -11 -3 -20 -1 -20 4 0 5 9 9 20 9 11 0 20
-2 20 -4z m1333 -15 c3 -14 1 -18 -9 -14 -15 6 -18 16 -7 26 9 10 10 9 16 -12z
m-909 -46 c-4 -16 -3 -17 5 -5 10 13 12 13 20 0 11 -16 -22 -46 -38 -35 -5 3
-12 1 -16 -5 -4 -6 6 -10 24 -10 l29 0 -15 -31 c-10 -20 -20 -28 -30 -25 -12
5 -14 1 -9 -18 4 -16 0 -30 -10 -41 -21 -21 -29 -13 -12 14 10 17 10 23 -1 33
-8 7 -11 8 -8 2 4 -6 -3 -20 -16 -30 -12 -10 -16 -12 -9 -4 14 16 16 44 2 35
-5 -3 -25 -6 -45 -7 -23 -1 -35 -6 -35 -15 0 -8 -4 -11 -10 -8 -5 3 -10 2 -10
-3 0 -5 -10 -20 -23 -34 -17 -19 -22 -35 -21 -72 1 -32 -3 -49 -12 -53 -8 -3
-14 -9 -14 -14 0 -4 6 -6 14 -3 8 3 17 1 21 -5 3 -6 1 -11 -5 -11 -7 0 -10 -6
-7 -14 3 -8 1 -17 -6 -20 -7 -2 -4 -5 6 -5 9 -1 26 8 37 19 11 11 31 20 44 20
26 0 48 19 24 21 -7 0 2 7 20 15 17 8 32 19 32 24 0 6 7 10 16 10 8 0 12 -4 9
-10 -3 -5 -1 -10 4 -10 15 0 14 27 -1 33 -9 4 -6 11 10 24 16 13 21 25 17 38
-6 18 -5 18 7 4 7 -9 23 -15 35 -14 15 1 23 -5 28 -22 3 -13 3 -28 0 -33 -3
-5 -1 -11 4 -14 5 -3 7 -15 4 -26 -3 -11 -1 -20 3 -20 5 0 9 -74 9 -163 0
-124 3 -168 14 -180 11 -14 11 -17 0 -17 -10 0 -10 -3 -3 -8 14 -8 15 -62 2
-62 -5 0 -21 6 -36 14 -73 37 -167 47 -385 40 -296 -8 -345 -18 -446 -85 l-34
-23 5 21 c3 12 1 24 -6 26 -16 6 7 42 27 41 9 -1 13 4 10 12 -8 22 6 66 19 58
8 -5 9 0 5 15 -4 15 -2 21 7 18 8 -3 11 7 11 30 -1 24 2 32 11 29 7 -3 21 3
31 12 11 9 14 14 8 11 -5 -4 -19 -3 -30 1 -18 7 -17 8 10 15 51 12 55 14 49
30 -4 9 -3 15 2 14 21 -4 25 2 13 18 -13 15 -12 15 7 5 19 -10 23 -9 27 10 4
12 3 26 -1 32 -3 6 -5 20 -3 30 2 14 -2 17 -13 13 -9 -4 -16 -2 -16 3 0 6 7
10 15 10 8 0 15 4 15 8 0 15 -22 30 -36 25 -16 -6 -18 6 -4 27 9 13 13 11 30
-9 11 -13 23 -21 27 -18 7 8 -48 53 -60 49 -13 -4 -19 26 -8 45 6 10 11 13 11
6 0 -7 11 -23 25 -37 25 -25 33 -23 16 4 -6 8 -7 18 -4 23 3 5 9 3 14 -4 6
-11 11 -11 20 -2 6 6 17 9 23 7 7 -3 23 7 36 21 13 14 19 25 13 25 -5 0 -15
11 -21 25 -6 14 -8 25 -3 25 5 0 11 -10 15 -22 7 -29 27 -11 29 26 2 31 13 34
20 6 3 -11 11 -20 19 -19 10 0 10 2 1 6 -7 2 -13 16 -13 29 0 14 -7 27 -15 30
-8 4 -15 13 -15 20 0 11 4 12 19 5 16 -9 18 -8 14 8 -4 14 1 18 19 17 17 -1
24 5 26 23 2 13 -2 28 -10 32 -9 6 -6 9 10 9 13 0 21 -4 18 -9 -11 -17 -15
-101 -4 -101 5 0 8 7 4 15 -3 8 -1 15 5 15 6 0 9 6 6 14 -3 8 1 17 9 20 9 3
14 -1 14 -13 0 -10 7 -24 15 -31 10 -9 15 -9 15 -1 0 15 27 14 36 -1 4 -7 3
-8 -4 -4 -7 4 -12 2 -12 -3 0 -6 7 -11 15 -11 8 0 15 5 15 10 0 6 7 10 15 10
8 0 15 -4 15 -10 0 -14 43 -6 48 8 2 7 8 12 13 12 6 0 7 -4 4 -10 -3 -5 -1
-10 5 -10 6 0 13 7 16 15 10 25 21 17 21 -15 0 -16 -4 -30 -9 -30 -4 0 -8 5
-8 11 0 6 -9 8 -22 4 -38 -12 -43 -24 -9 -20 28 4 30 3 16 -11 -19 -19 -19
-25 0 -18 8 4 15 10 15 14 0 10 39 25 56 22 6 -1 19 7 29 18 12 14 14 20 5 20
-7 0 -19 -8 -26 -17 -13 -17 -13 -17 -14 0 0 9 -6 17 -12 18 -9 0 -9 2 1 6 10
4 8 9 -10 19 l-24 13 26 1 c14 0 30 -5 37 -12 8 -8 12 -9 12 -1 0 6 -5 13 -12
15 -6 2 -8 10 -4 17 6 9 11 9 22 0 11 -9 14 -8 14 2 0 12 2 12 9 0 13 -20 30
-5 24 20 -5 19 -4 20 16 8 14 -9 19 -20 15 -34z m671 25 c3 -6 -1 -7 -9 -4
-18 7 -21 14 -7 14 6 0 13 -4 16 -10z m-1105 -26 c0 -21 -17 -17 -23 5 -3 14
-1 18 9 14 8 -3 14 -11 14 -19z m1020 5 c0 -5 -4 -9 -10 -9 -5 0 -10 7 -10 16
0 8 5 12 10 9 6 -3 10 -10 10 -16z m-1060 -9 c0 -5 -4 -10 -10 -10 -5 0 -10 5
-10 10 0 6 5 10 10 10 6 0 10 -4 10 -10z m1250 0 c0 -5 -4 -10 -10 -10 -5 0
-10 5 -10 10 0 6 5 10 10 10 6 0 10 -4 10 -10z m-1290 -70 c0 -5 -2 -10 -4
-10 -3 0 -8 5 -11 10 -3 6 -1 10 4 10 6 0 11 -4 11 -10z m550 -31 c0 -16 -4
-28 -9 -25 -5 3 -8 -5 -7 -18 0 -13 4 -22 9 -19 4 2 7 -3 7 -11 0 -8 -4 -18
-10 -21 -5 -3 -10 -5 -10 -3 0 2 -4 17 -9 34 -6 23 -5 40 6 63 19 39 23 39 23
0z m650 -49 c0 -5 -5 -10 -11 -10 -5 0 -7 5 -4 10 3 6 8 10 11 10 2 0 4 -4 4
-10z m156 -32 c22 -25 26 -59 8 -65 -7 -2 -10 6 -9 22 2 14 -1 23 -6 19 -5 -3
-9 2 -9 10 0 9 -4 16 -10 16 -5 0 -10 5 -10 10 0 17 15 11 36 -12z m-166 -19
c0 -6 -4 -7 -10 -4 -5 3 -10 11 -10 16 0 6 5 7 10 4 6 -3 10 -11 10 -16z m22
-24 c-7 -15 -17 -23 -23 -19 -8 5 -7 9 4 15 10 6 13 17 10 31 -5 19 -3 21 7
11 11 -10 11 -18 2 -38z m-1317 25 c3 -5 1 -10 -4 -10 -6 0 -11 5 -11 10 0 6
2 10 4 10 3 0 8 -4 11 -10z m579 -9 c3 -5 0 -11 -7 -14 -8 -3 -14 1 -14 9 0
16 13 19 21 5z m671 -30 c-6 -5 -25 10 -25 20 0 5 6 4 14 -3 8 -7 12 -15 11
-17z m161 -8 c-4 -4 -11 -1 -16 7 -16 25 -11 35 7 17 9 -9 13 -20 9 -24z m34
9 c0 -15 -2 -15 -10 -2 -13 20 -13 33 0 25 6 -3 10 -14 10 -23z m-570 -12 c0
-5 -4 -10 -10 -10 -5 0 -10 5 -10 10 0 6 5 10 10 10 6 0 10 -4 10 -10z m470
-4 c0 -3 -4 -8 -10 -11 -5 -3 -10 -1 -10 4 0 6 5 11 10 11 6 0 10 -2 10 -4z
m-633 -28 c-3 -8 -6 -5 -6 6 -1 11 2 17 5 13 3 -3 4 -12 1 -19z m113 -48 c-8
-5 -17 -7 -19 -4 -3 3 1 9 9 14 8 5 17 7 19 4 3 -3 -1 -9 -9 -14z m64 -6 c9
-24 7 -31 -4 -14 -8 13 -10 13 -10 -1 0 -9 7 -20 16 -23 9 -4 14 -9 11 -13
-12 -11 -37 19 -37 43 0 27 15 32 24 8z m-110 -19 c-6 -16 -24 -21 -24 -7 0
11 11 22 21 22 5 0 6 -7 3 -15z m66 5 c0 -5 -5 -10 -11 -10 -5 0 -7 5 -4 10 3
6 8 10 11 10 2 0 4 -4 4 -10z m128 -16 c18 -3 18 -4 25 -39 4 -16 4 -24 1 -17
-3 6 -12 12 -21 12 -10 0 -12 6 -8 21 6 18 5 19 -13 10 -32 -17 -44 -14 -30 8
7 11 17 17 23 13 5 -3 16 -7 23 -8z m286 8 c2 -4 -4 -8 -15 -8 -10 0 -19 4
-19 8 0 4 6 8 14 8 8 0 17 -4 20 -8z m-447 -22 c1 -11 -2 -22 -8 -25 -5 -3 -6
1 -3 9 4 10 1 16 -7 16 -11 0 -11 3 1 10 8 5 15 10 15 10 1 0 1 -9 2 -20z m53
-20 c0 -5 -4 -10 -10 -10 -5 0 -10 5 -10 10 0 6 5 10 10 10 6 0 10 -4 10 -10z
m-100 -10 c0 -5 -2 -10 -4 -10 -3 0 -8 5 -11 10 -3 6 -1 10 4 10 6 0 11 -4 11
-10z m590 -15 c0 -8 -7 -15 -15 -15 -9 0 -20 -11 -25 -24 -8 -22 -30 -45 -30
-31 0 8 22 45 40 67 18 22 30 23 30 3z m-522 -18 c-8 -6 -22 -23 -32 -37 -9
-14 -16 -18 -16 -10 0 16 51 72 59 65 2 -3 -2 -11 -11 -18z m217 3 c-3 -5 -12
-10 -18 -10 -7 0 -6 4 3 10 19 12 23 12 15 0z m-302 -15 c-3 -9 -8 -14 -10
-11 -3 3 -2 9 2 15 9 16 15 13 8 -4z m431 0 c-4 -8 -7 -15 -9 -15 -2 0 -5 7
-9 15 -3 9 0 15 9 15 9 0 12 -6 9 -15z m-311 -22 c-7 -2 -19 -2 -25 0 -7 3 -2
5 12 5 14 0 19 -2 13 -5z m477 -3 c0 -5 -4 -10 -10 -10 -5 0 -10 5 -10 10 0 6
5 10 10 10 6 0 10 -4 10 -10z m-210 -10 c0 -5 -2 -10 -4 -10 -3 0 -8 5 -11 10
-3 6 -1 10 4 10 6 0 11 -4 11 -10z m50 -10 c0 -5 -4 -10 -10 -10 -5 0 -10 5
-10 10 0 6 5 10 10 10 6 0 10 -4 10 -10z m-190 -10 c0 -5 -5 -10 -11 -10 -5 0
-7 5 -4 10 3 6 8 10 11 10 2 0 4 -4 4 -10z m413 -61 c15 -15 27 -32 27 -38 0
-6 3 -10 8 -10 18 3 32 -2 32 -12 0 -6 -7 -9 -15 -6 -22 9 -29 -13 -9 -28 16
-11 16 -15 5 -29 -10 -12 -17 -14 -27 -5 -11 9 -14 7 -14 -10 0 -11 5 -21 10
-21 6 0 10 -7 10 -16 0 -8 5 -12 10 -9 14 8 13 -8 -1 -22 -7 -7 -8 -24 -4 -45
7 -29 9 -31 17 -13 6 16 7 14 3 -7 -4 -20 -1 -28 8 -28 8 0 22 -9 32 -20 19
-20 18 -20 -16 -6 -19 8 -35 21 -37 29 -2 9 -13 17 -24 19 -12 2 -24 10 -26
18 -5 13 -3 13 12 1 9 -8 20 -11 23 -7 4 4 2 11 -6 15 -7 5 -12 17 -11 27 4
36 0 64 -10 64 -5 0 -9 -10 -8 -22 1 -37 -1 -48 -13 -48 -5 0 -7 5 -4 10 8 14
-47 1 -56 -13 -4 -5 -9 -5 -13 2 -4 5 2 19 14 31 19 19 25 18 21 -4 -1 -5 5
-4 13 4 9 7 16 9 16 5 0 -5 3 -5 7 -2 3 4 -1 15 -9 24 -8 10 -18 32 -22 48 -5
22 -4 26 4 15 5 -8 10 -23 10 -32 0 -23 27 -13 35 13 5 14 12 18 26 14 14 -5
17 -3 13 9 -3 9 -12 16 -20 16 -8 0 -14 5 -14 10 0 6 5 10 10 10 6 0 10 9 10
20 0 23 -4 24 -30 10 -13 -7 -21 -7 -25 0 -4 6 -3 9 2 8 14 -5 14 11 -2 48
-18 43 -19 57 -2 29 7 -11 24 -31 40 -46z m41 55 c22 -9 20 -24 -3 -24 -11 0
-21 -6 -24 -12 -2 -7 -8 -9 -13 -5 -5 5 -1 14 9 22 13 10 15 14 5 18 -8 4 -9
6 -1 6 6 1 18 -2 27 -5z m-374 -16 c0 -4 -9 -8 -20 -8 -11 0 -20 4 -20 8 0 4
9 8 20 8 11 0 20 -4 20 -8z m210 2 c0 -5 -8 -10 -17 -10 -15 0 -16 2 -3 10 19
12 20 12 20 0z m-311 -9 c7 -5 9 -11 5 -14 -5 -3 -15 1 -22 9 -14 16 -5 18 17
5z m380 -38 c-2 -24 -2 -25 -6 -5 -2 12 -9 22 -14 22 -5 0 -9 -10 -10 -22 0
-13 -3 -17 -6 -10 -7 19 4 42 22 42 10 0 15 -9 14 -27z m121 2 c16 -19 0 -19
-26 0 -16 12 -16 14 -3 15 9 0 22 -7 29 -15z m-210 -45 c0 -5 -5 -10 -11 -10
-5 0 -7 5 -4 10 3 6 8 10 11 10 2 0 4 -4 4 -10z m86 2 c7 -4 8 -15 3 -27 -7
-19 -8 -19 -8 2 -1 17 -5 21 -18 16 -11 -4 -14 -3 -9 5 8 14 16 15 32 4z
m-216 -26 c0 -3 -4 -8 -10 -11 -5 -3 -10 -1 -10 4 0 6 5 11 10 11 6 0 10 -2
10 -4z m247 -18 c-3 -8 -6 -5 -6 6 -1 11 2 17 5 13 3 -3 4 -12 1 -19z m109
-15 c-11 -11 -19 6 -11 24 8 17 8 17 12 0 3 -10 2 -21 -1 -24z m-166 17 c0 -5
-7 -10 -15 -10 -8 0 -15 5 -15 10 0 6 7 10 15 10 8 0 15 -4 15 -10z m-120 -21
c0 -6 -4 -7 -10 -4 -5 3 -10 11 -10 16 0 6 5 7 10 4 6 -3 10 -11 10 -16z m130
-19 c6 -11 7 -20 2 -20 -6 0 -12 9 -15 20 -3 11 -3 20 -1 20 2 0 8 -9 14 -20z
m-275 0 c3 -5 1 -10 -4 -10 -6 0 -11 5 -11 10 0 6 2 10 4 10 3 0 8 -4 11 -10z
m195 2 c0 -13 -12 -22 -22 -16 -10 6 -1 24 13 24 5 0 9 -4 9 -8z m50 -2 c0 -5
-7 -7 -15 -4 -8 4 -15 8 -15 10 0 2 7 4 15 4 8 0 15 -4 15 -10z m382 -12 c-7
-7 -12 -8 -12 -2 0 14 12 26 19 19 2 -3 -1 -11 -7 -17z m-515 -6 c-13 -14 -14
-21 -5 -30 8 -8 9 -12 1 -12 -19 0 -21 24 -5 43 8 9 17 17 20 17 3 0 -2 -8
-11 -18z m36 3 c-3 -9 -8 -14 -10 -11 -3 3 -2 9 2 15 9 16 15 13 8 -4z m457
-9 c0 -9 -30 -14 -35 -6 -4 6 3 10 14 10 12 0 21 -2 21 -4z m-43 -46 c2 -2 8
2 14 10 8 13 10 13 19 0 8 -12 11 -13 19 -1 6 9 11 10 15 2 12 -18 -3 -31 -27
-23 -12 5 -31 7 -42 7 -15 -2 -20 5 -22 24 -1 23 0 24 9 6 6 -11 13 -22 15
-25z m13 -30 c0 -5 -4 -10 -10 -10 -5 0 -10 5 -10 10 0 6 5 10 10 10 6 0 10
-4 10 -10z m76 -57 c-9 -9 -27 48 -19 60 4 7 11 -3 16 -22 4 -18 6 -36 3 -38z
m-416 10 c-11 -17 -11 -17 -6 0 3 10 6 24 7 30 0 9 2 9 5 0 3 -7 0 -20 -6 -30z
m62 5 c-7 -7 -12 -8 -12 -2 0 14 12 26 19 19 2 -3 -1 -11 -7 -17z m235 4 c17
-13 21 -23 16 -42 -7 -25 -7 -25 -13 5 -4 21 -12 31 -28 33 -12 2 -20 8 -17
13 8 13 17 11 42 -9z m-317 -6 c0 -3 -4 -8 -10 -11 -5 -3 -10 -1 -10 4 0 6 5
11 10 11 6 0 10 -2 10 -4z m97 -20 c-3 -7 -1 -18 4 -23 7 -7 5 -12 -5 -16 -11
-4 -13 -1 -9 10 5 12 2 15 -10 10 -9 -3 -17 -2 -17 3 0 6 7 10 15 10 8 0 15 5
15 10 0 6 3 10 6 10 3 0 4 -6 1 -14z m68 -34 c-3 -3 -11 0 -18 7 -9 10 -8 11
6 5 10 -3 15 -9 12 -12z m9 -24 c-3 -4 -12 -8 -20 -8 -8 0 -14 4 -14 8 0 4 9
8 19 8 11 0 17 -4 15 -8z m-64 -2 c0 -3 -4 -8 -10 -11 -5 -3 -10 -1 -10 4 0 6
5 11 10 11 6 0 10 -2 10 -4z m105 -17 c-10 -15 -25 -10 -19 6 4 8 10 12 15 9
5 -3 7 -10 4 -15z m165 -6 c0 -20 -3 -24 -11 -16 -7 7 -9 19 -6 27 10 24 17
19 17 -11z m-206 -2 c2 -3 -11 -6 -30 -6 -32 0 -41 5 -29 17 7 6 54 -2 59 -11z
m46 -15 c0 -2 -7 -7 -16 -10 -8 -3 -12 -2 -9 4 6 10 25 14 25 6z m-120 -16 c0
13 1 13 10 0 6 -9 5 -17 -3 -22 -11 -7 -27 8 -27 27 0 6 5 3 10 -5 9 -13 10
-13 10 0z m200 0 c0 -5 -4 -10 -10 -10 -5 0 -10 5 -10 10 0 6 5 10 10 10 6 0
10 -4 10 -10z m57 -22 c-3 -7 -5 -2 -5 12 0 14 2 19 5 13 2 -7 2 -19 0 -25z
m-717 -18 c11 -21 20 -43 20 -47 0 -10 -34 45 -43 70 -12 31 2 18 23 -23z
m674 6 c-3 -14 -10 -26 -14 -26 -5 0 -3 13 3 30 13 35 21 33 11 -4z m-94 20
c0 -2 -7 -7 -16 -10 -8 -3 -12 -2 -9 4 6 10 25 14 25 6z m152 -38 c-7 -7 -12
-8 -12 -2 0 14 12 26 19 19 2 -3 -1 -11 -7 -17z m-34 -8 c-7 -11 -15 -15 -17
-9 -2 6 3 15 10 20 20 12 21 11 7 -11z m-150 -71 c-3 -8 -7 -3 -11 10 -4 17
-3 21 5 13 5 -5 8 -16 6 -23z m162 27 c0 -3 -4 -8 -10 -11 -5 -3 -10 -1 -10 4
0 6 5 11 10 11 6 0 10 -2 10 -4z m-227 -21 c-3 -9 -8 -14 -10 -11 -3 3 -2 9 2
15 9 16 15 13 8 -4z m213 -27 c-9 -5 -22 -7 -29 -4 -7 2 -4 5 6 5 9 1 17 6 17
12 0 5 5 7 11 3 8 -5 6 -10 -5 -16z m-36 -32 c0 -3 -4 -8 -10 -11 -5 -3 -10
-1 -10 4 0 6 5 11 10 11 6 0 10 -2 10 -4z m11 -79 c-8 -8 -10 -1 -7 23 6 53 9
58 13 21 3 -18 0 -38 -6 -44z m-51 59 c0 -3 -4 -8 -10 -11 -5 -3 -10 -1 -10 4
0 6 5 11 10 11 6 0 10 -2 10 -4z m25 -26 c3 -5 1 -10 -4 -10 -6 0 -11 5 -11
10 0 6 2 10 4 10 3 0 8 -4 11 -10z m-25 -4 c0 -2 -7 -9 -15 -16 -13 -11 -14
-10 -9 4 5 14 24 23 24 12z m14 -41 c-4 -8 -8 -15 -10 -15 -2 0 -4 7 -4 15 0
8 4 15 10 15 5 0 7 -7 4 -15z m-89 -75 c3 -5 -1 -10 -10 -10 -9 0 -13 5 -10
10 3 6 8 10 10 10 2 0 7 -4 10 -10z m52 -17 c-3 -3 -11 -2 -17 2 -9 6 -9 10 1
16 14 8 27 -7 16 -18z m-107 -23 c0 -5 -5 -10 -11 -10 -5 0 -7 5 -4 10 3 6 8
10 11 10 2 0 4 -4 4 -10z m-29 -113 c-10 -9 -11 -8 -5 6 3 10 9 15 12 12 3 -3
0 -11 -7 -18z m67 -67 c-7 -10 -14 -17 -17 -15 -4 4 18 35 25 35 2 0 -1 -9 -8
-20z m-38 -10 c0 -5 -2 -10 -4 -10 -3 0 -8 5 -11 10 -3 6 -1 10 4 10 6 0 11
-4 11 -10z m40 -24 c0 -3 -4 -8 -10 -11 -5 -3 -10 -1 -10 4 0 6 5 11 10 11 6
0 10 -2 10 -4z m-312 -81 c-3 -3 -9 2 -12 12 -6 14 -5 15 5 6 7 -7 10 -15 7
-18z m252 21 c0 -3 -4 -8 -10 -11 -5 -3 -10 -1 -10 4 0 6 5 11 10 11 6 0 10
-2 10 -4z m-1253 -42 c-3 -3 -12 -4 -19 -1 -8 3 -5 6 6 6 11 1 17 -2 13 -5z
m794 -16 c11 -21 11 -22 -4 -9 -10 7 -17 17 -17 22 0 15 9 10 21 -13z m-1156
-18 c-3 -5 -12 -10 -18 -10 -7 0 -6 4 3 10 19 12 23 12 15 0z m1685 6 c0 -3
-4 -8 -10 -11 -5 -3 -10 -1 -10 4 0 6 5 11 10 11 6 0 10 -2 10 -4z m-1844 -43
c-4 -9 -2 -11 6 -7 8 5 9 0 5 -15 -4 -17 -2 -21 9 -17 7 3 34 -12 59 -34 37
-32 50 -38 64 -30 12 6 22 5 29 -2 9 -9 12 -9 12 -1 0 7 12 14 28 16 27 4 27
4 -3 4 -56 1 -65 3 -65 12 0 4 11 6 25 3 14 -2 25 0 25 5 0 6 12 8 27 5 22 -4
25 -2 20 12 -5 12 -3 16 5 13 7 -2 12 -16 10 -30 -2 -22 1 -25 15 -20 17 6 17
5 1 -14 -20 -22 -25 -44 -6 -25 17 17 48 15 48 -3 0 -10 10 -15 33 -15 26 -1
205 -30 341 -57 26 -5 27 -4 17 15 -9 18 -8 19 11 14 16 -4 19 -2 13 8 -6 10
1 12 35 6 57 -9 65 -15 43 -32 -21 -16 -43 -18 -43 -4 0 6 10 10 22 10 27 0
21 5 -14 14 -21 5 -28 3 -28 -9 0 -8 -4 -15 -10 -15 -5 0 -10 -4 -10 -9 0 -17
241 -63 255 -49 7 6 5 9 -5 7 -26 -5 -100 12 -100 23 0 6 10 7 28 2 15 -4 41
-8 59 -8 17 -1 35 -4 39 -8 4 -5 16 -8 26 -8 10 0 18 -4 18 -10 0 -5 18 -13
40 -16 24 -4 40 -12 40 -20 0 -8 7 -14 15 -14 8 0 19 -9 25 -20 9 -17 8 -20
-12 -20 -13 0 -79 18 -148 41 -213 69 -467 125 -675 148 -78 9 -204 -10 -220
-32 -7 -9 -17 -17 -23 -17 -14 0 -3 31 16 46 11 8 2 13 -41 24 -73 17 -76 19
-78 65 -4 67 0 97 12 90 6 -4 8 -14 5 -22z m243 -6 c0 -9 -2 -9 -6 1 -2 6 -11
12 -19 12 -8 0 -14 5 -14 10 0 7 6 7 20 0 11 -6 20 -16 19 -23z m1362 -14 c13
-16 12 -17 -3 -4 -17 13 -22 21 -14 21 2 0 10 -8 17 -17z m-1254 -69 c-3 -3
-12 -4 -19 -1 -8 3 -5 6 6 6 11 1 17 -2 13 -5z m1566 -37 c3 -7 -2 -22 -9 -32
-14 -19 -14 -18 -10 5 2 14 5 28 5 33 1 11 8 8 14 -6z m-1248 -45 c-3 -3 -11
0 -18 7 -9 10 -8 11 6 5 10 -3 15 -9 12 -12z m1422 -8 c3 -8 2 -23 -3 -34 -8
-16 -11 -16 -22 -4 -11 12 -10 14 3 14 8 0 15 5 15 10 0 6 -4 10 -10 10 -5 0
-10 5 -10 10 0 16 20 12 27 -6z m38 -11 c-2 -16 -4 -31 -4 -35 -1 -5 -5 -8
-10 -8 -7 0 -8 44 -2 68 1 1 5 2 10 2 5 0 8 -12 6 -27z m-2148 11 c-3 -3 -12
-4 -19 -1 -8 3 -5 6 6 6 11 1 17 -2 13 -5z m43 -4 c0 -5 -4 -10 -10 -10 -5 0
-10 5 -10 10 0 6 5 10 10 10 6 0 10 -4 10 -10z m937 -35 c4 -4 0 -5 -9 -2 -9
3 -35 11 -57 17 -22 6 -43 14 -45 19 -7 11 100 -22 111 -34z m-786 16 c7 11 9
11 9 -2 0 -9 -7 -23 -17 -30 -14 -12 -5 -15 68 -21 124 -9 187 -18 215 -29 14
-5 29 -7 34 -4 5 3 11 2 13 -2 3 -5 26 -8 50 -8 25 1 43 -3 41 -7 -7 -11 14
-10 37 3 11 5 17 15 13 21 -4 7 -10 6 -16 -3 -8 -11 -9 -11 -5 1 2 8 16 16 31
18 18 2 26 0 21 -7 -3 -6 1 -11 10 -11 8 0 20 -10 25 -22 6 -17 9 -19 9 -6 1
10 11 20 24 23 24 7 132 -29 143 -47 4 -6 10 -5 15 3 7 11 9 11 9 1 0 -7 4
-11 9 -8 8 6 135 -32 184 -55 28 -13 36 -28 15 -30 -7 -1 1 -5 17 -9 l30 -7
-25 -10 c-22 -10 -23 -12 -7 -18 9 -4 51 -5 91 -3 41 2 70 0 64 -3 -5 -3 0 -9
12 -12 14 -4 20 -2 17 7 -3 6 6 17 19 23 21 10 23 9 18 -16 -4 -21 0 -29 25
-44 49 -29 36 -36 -18 -10 -68 34 -223 51 -206 22 10 -15 -9 -11 -102 22 -48
17 -140 44 -203 60 -63 17 -132 34 -153 40 -23 6 -35 14 -31 21 4 6 3 8 -3 5
-6 -4 -37 1 -69 10 -37 10 -107 17 -189 19 -71 1 -151 7 -177 13 -47 11 -78 7
-78 -10 0 -5 5 -9 10 -9 12 0 13 -20 0 -40 -7 -12 -13 -11 -34 9 -32 30 -157
66 -168 48 -5 -9 -10 -9 -19 0 -22 22 -1 30 56 21 46 -8 60 -7 80 6 14 9 25
22 25 29 0 6 -7 3 -15 -7 -16 -21 -19 -18 -9 8 3 9 12 16 20 16 8 0 14 4 14 9
0 14 54 39 59 28 2 -5 7 -3 12 4z m51 -16 c-3 -17 -11 -25 -25 -25 -19 0 -19
1 -3 19 13 15 14 20 4 24 -7 3 -4 6 8 6 17 1 20 -4 16 -24z m74 0 c-15 -14
-36 -25 -46 -25 -19 0 -19 1 -3 19 9 11 20 18 25 15 4 -3 16 0 25 5 28 16 28
13 -1 -14z m1868 -16 c-8 -14 -24 -10 -24 6 0 9 6 12 15 9 8 -4 12 -10 9 -15z
m-209 2 c3 -5 2 -12 -3 -15 -5 -3 -9 1 -9 9 0 17 3 19 12 6z m199 -32 c10 8
16 9 16 3 0 -6 -8 -16 -17 -22 -15 -9 -14 -10 9 -6 23 5 26 3 21 -11 -6 -15
-4 -16 9 -5 21 17 30 2 13 -22 -13 -17 -14 -17 -27 3 -14 23 -30 28 -25 9 1
-6 -5 -13 -14 -15 -12 -3 -16 3 -16 24 0 15 -5 29 -11 31 -6 2 -8 10 -5 18 4
12 7 12 18 -3 11 -15 15 -15 29 -4z m-55 -51 c0 -10 -2 -10 -6 0 -2 6 -9 10
-14 6 -5 -3 -9 4 -9 16 0 19 2 20 15 6 8 -8 15 -21 14 -28z m-705 -9 c15 -7
22 -17 18 -23 -3 -6 -8 -20 -9 -30 -5 -28 -7 -29 -44 -13 -19 8 -52 17 -74 22
-31 6 -36 9 -21 14 24 9 66 2 66 -11 0 -5 5 -6 10 -3 6 4 8 11 4 16 -3 5 0 16
6 24 15 18 13 18 44 4z m-64 -9 c0 -5 -4 -10 -10 -10 -5 0 -10 5 -10 10 0 6 5
10 10 10 6 0 10 -4 10 -10z m756 -18 c-4 -3 -14 2 -24 12 -16 18 -16 18 6 6
13 -6 21 -14 18 -18z m-1796 -2 c0 -4 -13 -10 -29 -12 -17 -2 -28 -1 -25 4 3
4 12 8 20 8 8 0 12 4 9 10 -3 6 1 7 9 4 9 -3 16 -10 16 -14z m1931 -3 c-10 -9
-11 -8 -5 6 3 10 9 15 12 12 3 -3 0 -11 -7 -18z m-101 -18 c0 -6 -4 -7 -10 -4
-5 3 -10 11 -10 16 0 6 5 7 10 4 6 -3 10 -11 10 -16z m43 -5 c-26 -20 -36 -17
-15 4 9 11 21 17 25 14 5 -2 0 -10 -10 -18z m-2188 1 c22 -8 33 -14 25 -15
-13 0 -13 -1 0 -11 12 -8 9 -10 -12 -6 -33 5 -46 -20 -21 -39 26 -19 31 -17
48 15 8 17 20 33 26 36 6 4 4 -6 -5 -21 -17 -33 -136 -167 -143 -161 -2 2 8
39 21 81 16 49 23 87 19 106 -3 17 -4 30 -2 30 2 0 22 -7 44 -15z m2034 -14
l24 -15 -24 -6 c-35 -9 -56 -1 -63 22 -4 16 -2 18 7 9 18 -18 31 -13 16 6 -15
18 -11 17 40 -16z m231 19 c-8 -5 -19 -10 -25 -10 -5 0 -3 5 5 10 8 5 20 10
25 10 6 0 3 -5 -5 -10z m-96 -55 c3 -8 1 -15 -4 -15 -6 0 -10 7 -10 15 0 8 2
15 4 15 2 0 6 -7 10 -15z m-49 -23 c-3 -3 -11 0 -18 7 -9 10 -8 11 6 5 10 -3
15 -9 12 -12z m-217 -34 c-14 -18 -33 -35 -43 -36 -10 -2 -1 11 22 32 47 44
53 45 21 4z m112 11 c0 -14 -17 -10 -23 5 -4 10 -1 13 9 9 7 -3 14 -9 14 -14z
m110 1 c0 -5 -8 -10 -17 -10 -15 0 -16 2 -3 10 19 12 20 12 20 0z m-1073 -49
c0 -11 -5 -18 -9 -15 -4 3 -5 11 -1 19 7 21 12 19 10 -4z m305 -14 c11 -9 14
-22 11 -40 -5 -25 -9 -28 -37 -24 -57 7 -66 15 -54 48 8 22 16 29 36 29 15 0
34 -6 44 -13z m-1064 -18 c64 -13 127 -67 158 -133 25 -54 31 -81 14 -71 -5 3
-10 14 -10 24 0 9 -14 39 -30 65 -42 65 -98 90 -189 84 -39 -3 -83 -14 -107
-26 -64 -33 -141 -109 -185 -183 -23 -38 -42 -69 -44 -69 -11 0 8 68 30 106
67 115 178 192 307 213 4 0 29 -4 56 -10z m742 1 c0 -5 -5 -10 -11 -10 -5 0
-7 5 -4 10 3 6 8 10 11 10 2 0 4 -4 4 -10z m787 4 c-3 -3 -12 -4 -19 -1 -8 3
-5 6 6 6 11 1 17 -2 13 -5z m240 -36 c-3 -8 -6 -5 -6 6 -1 11 2 17 5 13 3 -3
4 -12 1 -19z m-539 -52 c19 -10 31 -20 28 -23 -3 -3 -12 0 -20 7 -9 6 -21 10
-28 8 -7 -3 8 -17 34 -32 47 -28 78 -56 61 -56 -6 0 -30 15 -54 33 -24 18 -61
43 -81 56 -21 12 -37 25 -37 29 3 20 -2 25 -11 12 -8 -12 -10 -10 -10 8 l0 24
43 -25 c23 -13 57 -32 75 -41z m-293 44 c3 -5 1 -10 -4 -10 -6 0 -11 5 -11 10
0 6 2 10 4 10 3 0 8 -4 11 -10z m-927 -32 c-3 -7 7 -23 21 -35 l24 -23 -33
-35 c-38 -39 -90 -63 -90 -41 0 8 -14 20 -31 29 l-32 15 24 13 c41 22 109 83
110 99 0 10 2 11 6 3 2 -7 3 -18 1 -25z m1809 -20 c-3 -8 -6 -5 -6 6 -1 11 2
17 5 13 3 -3 4 -12 1 -19z m-812 -18 c8 -13 -5 -13 -25 0 -13 8 -13 10 2 10 9
0 20 -4 23 -10z m482 -22 c-3 -8 -6 -5 -6 6 -1 11 2 17 5 13 3 -3 4 -12 1 -19z
m-1180 -10 c-3 -8 -6 -5 -6 6 -1 11 2 17 5 13 3 -3 4 -12 1 -19z m1103 -64
c31 -35 36 -64 13 -71 -6 -2 -14 5 -18 17 -4 11 -17 32 -31 47 -22 24 -24 43
-4 43 4 0 22 -16 40 -36z m-1630 7 c14 -27 13 -68 -3 -74 -8 -3 -12 6 -11 29
1 19 -2 37 -7 40 -12 7 -12 24 1 24 5 0 14 -9 20 -19z m304 -16 c-4 -8 -11
-15 -16 -15 -6 0 -5 6 2 15 7 8 14 15 16 15 2 0 1 -7 -2 -15z m170 -70 c-7
-18 7 -20 24 -3 9 9 12 9 12 -1 0 -7 5 -9 11 -5 8 4 8 0 0 -15 -7 -13 -21 -21
-37 -21 -14 0 -23 4 -19 10 4 6 -7 13 -25 16 -31 7 -60 37 -60 62 0 12 3 12
15 2 15 -12 35 -6 35 11 0 6 -5 7 -12 3 -7 -5 -8 -3 -3 5 10 18 66 -44 59 -64z
m-537 27 c-2 -15 -7 -34 -12 -41 -5 -10 -4 -12 3 -7 7 4 12 3 12 -3 0 -10 -59
-56 -65 -50 -3 4 56 129 62 129 1 0 1 -13 0 -28z m167 13 c-4 -8 -11 -15 -16
-15 -6 0 -5 6 2 15 7 8 14 15 16 15 2 0 1 -7 -2 -15z m96 -30 c0 -2 -10 -9
-22 -15 -22 -11 -22 -10 -4 4 21 17 26 19 26 11z m-177 -27 c-6 -7 -15 -26
-21 -43 -6 -17 -11 -22 -11 -12 -1 23 -10 22 -38 -5 -13 -12 -23 -17 -22 -12
0 5 21 26 47 46 51 40 60 45 45 26z m374 -50 c-3 -8 -6 -5 -6 6 -1 11 2 17 5
13 3 -3 4 -12 1 -19z m170 -30 c-3 -7 -5 -2 -5 12 0 14 2 19 5 13 2 -7 2 -19
0 -25z m-964 -12 c9 10 57 -5 57 -17 0 -6 -7 -9 -15 -5 -17 6 -19 -2 -6 -23 6
-10 10 -10 16 -1 6 9 9 9 15 -1 7 -10 12 -10 27 1 13 10 13 8 -3 -9 l-20 -22
-46 20 c-26 11 -51 28 -57 39 -12 23 -3 36 14 22 7 -5 15 -7 18 -4z m285 -58
c-11 -29 -24 -57 -30 -63 -6 -5 -5 1 2 14 6 12 9 33 6 44 -3 12 2 29 11 39 28
31 32 20 11 -34z m667 25 c-3 -16 -11 -32 -16 -37 -5 -6 -4 5 1 25 6 18 10 35
10 36 0 2 3 3 6 3 3 0 3 -12 -1 -27z m850 -26 c52 -55 88 -147 89 -229 1 -41
-3 -62 -11 -65 -9 -3 -13 10 -13 46 0 74 -44 185 -95 238 -23 24 -39 45 -37
48 12 12 28 3 67 -38z m-281 18 c-4 -8 -13 -15 -21 -15 -13 0 -13 3 -3 15 7 8
16 15 21 15 5 0 6 -7 3 -15z m242 -68 c27 -41 54 -135 53 -182 0 -18 -9 5 -23
57 -16 64 -34 105 -65 150 -33 48 -37 57 -16 38 15 -14 38 -42 51 -63z m-298
1 c18 -18 15 -23 -26 -52 -50 -34 -56 -33 -36 7 30 58 41 66 62 45z m-152
-203 c2 -179 78 -329 200 -393 50 -27 36 -28 -20 -3 -56 26 -121 98 -157 176
-23 47 -31 83 -36 148 -5 72 0 137 10 137 2 0 3 -29 3 -65z m-475 22 c-10 -9
-11 -8 -5 6 3 10 9 15 12 12 3 -3 0 -11 -7 -18z m326 -49 c-3 -7 -5 -2 -5 12
0 14 2 19 5 13 2 -7 2 -19 0 -25z m650 -10 c-3 -8 -6 -5 -6 6 -1 11 2 17 5 13
3 -3 4 -12 1 -19z m83 -37 c0 -10 -26 -9 -36 2 -4 4 2 7 14 7 12 0 22 -4 22
-9z m-32 -61 c-7 -10 -14 -18 -15 -16 -6 6 9 36 18 36 5 0 4 -9 -3 -20z m42
-106 c0 -9 -32 -33 -44 -34 -5 0 -1 9 9 20 18 20 35 26 35 14z m-200 -164
c-20 -13 -33 -13 -25 0 3 6 14 10 23 10 15 0 15 -2 2 -10z m158 -7 c2 -8 -5
-13 -17 -13 -12 0 -21 6 -21 16 0 18 31 15 38 -3z m-238 -13 c0 -13 -11 -13
-30 0 -12 8 -11 10 8 10 12 0 22 -4 22 -10z m-300 -40 c0 -5 -4 -10 -10 -10
-5 0 -10 5 -10 10 0 6 5 10 10 10 6 0 10 -4 10 -10z m140 -11 c0 -6 -4 -7 -10
-4 -5 3 -10 11 -10 16 0 6 5 7 10 4 6 -3 10 -11 10 -16z m-116 -18 c6 -10 -16
-21 -42 -21 -13 0 -12 3 4 15 22 17 31 18 38 6z m-64 -21 c0 -5 -5 -10 -11
-10 -5 0 -7 5 -4 10 3 6 8 10 11 10 2 0 4 -4 4 -10z m40 -125 c-7 -9 -15 -13
-19 -10 -3 3 1 10 9 15 21 14 24 12 10 -5z m1169 -908 c0 -12 -3 -16 -6 -9 -2
6 -9 10 -14 6 -11 -6 -11 -2 -3 20 8 22 24 10 23 -17z m-209 -583 c0 -8 -5
-12 -10 -9 -6 4 -8 11 -5 16 9 14 15 11 15 -7z"/>
<path d="M3910 6370 c0 -5 5 -10 11 -10 5 0 7 5 4 10 -3 6 -8 10 -11 10 -2 0
-4 -4 -4 -10z"/>
<path d="M3725 6230 c3 -5 8 -10 11 -10 2 0 4 5 4 10 0 6 -5 10 -11 10 -5 0
-7 -4 -4 -10z"/>
<path d="M3165 6000 c3 -5 8 -10 11 -10 2 0 4 5 4 10 0 6 -5 10 -11 10 -5 0
-7 -4 -4 -10z"/>
<path d="M3160 5950 c0 -5 5 -10 10 -10 6 0 10 5 10 10 0 6 -4 10 -10 10 -5 0
-10 -4 -10 -10z"/>
<path d="M3888 4573 c6 -2 18 -2 25 0 6 3 1 5 -13 5 -14 0 -19 -2 -12 -5z"/>
<path d="M3998 4523 c7 -3 16 -2 19 1 4 3 -2 6 -13 5 -11 0 -14 -3 -6 -6z"/>
<path d="M3540 4527 c0 -12 6 -17 17 -15 26 5 28 34 3 34 -13 0 -20 -7 -20
-19z"/>
<path d="M3650 4529 c0 -5 5 -7 10 -4 6 3 10 8 10 11 0 2 -4 4 -10 4 -5 0 -10
-5 -10 -11z"/>
<path d="M3610 4520 c0 -5 5 -10 10 -10 6 0 10 5 10 10 0 6 -4 10 -10 10 -5 0
-10 -4 -10 -10z"/>
<path d="M3650 4501 c0 -11 39 -26 47 -17 8 8 3 12 -24 20 -13 4 -23 3 -23 -3z"/>
<path d="M3730 4490 c-8 -5 -12 -11 -9 -14 2 -3 11 -1 19 4 8 5 12 11 9 14 -2
3 -11 1 -19 -4z"/>
<path d="M3618 4483 c7 -3 16 -2 19 1 4 3 -2 6 -13 5 -11 0 -14 -3 -6 -6z"/>
<path d="M3750 4470 c-18 -12 -2 -12 25 0 13 6 15 9 5 9 -8 0 -22 -4 -30 -9z"/>
<path d="M3810 4469 c0 -5 5 -9 11 -9 5 0 8 -4 5 -9 -8 -12 21 -34 36 -28 8 3
5 6 -6 6 -14 1 -16 4 -8 14 8 9 4 15 -14 24 -13 6 -24 7 -24 2z"/>
<path d="M3880 4461 c0 -10 19 -25 25 -20 1 2 -3 10 -11 17 -8 7 -14 8 -14 3z"/>
<path d="M3915 4405 c50 -18 57 -18 25 0 -14 8 -34 14 -45 14 -11 0 -2 -6 20
-14z"/>
<path d="M4260 4510 c8 -5 20 -10 25 -10 6 0 3 5 -5 10 -8 5 -19 10 -25 10 -5
0 -3 -5 5 -10z"/>
<path d="M4260 4474 c0 -8 5 -12 10 -9 6 3 10 10 10 16 0 5 -4 9 -10 9 -5 0
-10 -7 -10 -16z"/>
<path d="M4207 4276 c-4 -10 -5 -21 -2 -24 9 -9 17 6 13 25 -3 17 -4 17 -11
-1z"/>
<path d="M4326 4215 c10 -8 24 -14 29 -14 6 0 1 6 -9 14 -11 8 -24 15 -30 15
-5 0 -1 -7 10 -15z"/>
<path d="M4770 6811 c0 -5 5 -13 10 -16 6 -3 10 -2 10 4 0 5 -4 13 -10 16 -5
3 -10 2 -10 -4z"/>
<path d="M4799 6568 c0 -2 -1 -15 -3 -29 -1 -25 -1 -25 27 -11 21 10 25 17 16
22 -6 5 -19 6 -27 2 -10 -3 -13 -1 -8 6 4 7 5 12 2 12 -3 0 -6 -1 -7 -2z"/>
<path d="M4793 6445 c1 -11 -2 -25 -6 -32 -4 -6 -3 -14 3 -18 5 -3 10 1 10 10
0 9 5 13 10 10 6 -3 10 -1 10 4 0 6 -4 11 -9 11 -5 0 -12 8 -15 18 -4 13 -4
13 -3 -3z"/>
<path d="M4825 6450 c-3 -5 -1 -10 4 -10 6 0 11 5 11 10 0 6 -2 10 -4 10 -3 0
-8 -4 -11 -10z"/>
<path d="M4850 6411 c0 -6 4 -13 10 -16 6 -3 7 1 4 9 -7 18 -14 21 -14 7z"/>
<path d="M4795 6359 c-9 -14 -2 -20 14 -10 8 6 9 11 3 15 -6 3 -14 1 -17 -5z"/>
<path d="M4720 6310 c0 -5 5 -10 11 -10 5 0 7 5 4 10 -3 6 -8 10 -11 10 -2 0
-4 -4 -4 -10z"/>
<path d="M4725 6280 c-3 -5 -1 -10 4 -10 6 0 11 5 11 10 0 6 -2 10 -4 10 -3 0
-8 -4 -11 -10z"/>
<path d="M4797 6273 c-11 -10 -8 -43 4 -43 5 0 7 5 4 11 -4 6 1 17 11 24 16
12 16 14 3 15 -9 0 -19 -3 -22 -7z"/>
<path d="M4850 6270 c0 -5 5 -10 11 -10 5 0 7 5 4 10 -3 6 -8 10 -11 10 -2 0
-4 -4 -4 -10z"/>
<path d="M4738 6238 c0 -7 -2 -17 -2 -23 -1 -5 -5 -16 -10 -23 -14 -23 4 -27
20 -4 19 27 32 28 42 2 7 -19 9 -19 27 -6 18 14 18 15 3 16 -10 0 -18 5 -18
10 0 6 -13 10 -30 10 -22 0 -28 4 -24 15 4 8 3 15 0 15 -3 0 -7 -6 -8 -12z"/>
<path d="M4662 6198 c-15 -15 -16 -32 -2 -23 6 3 10 -1 10 -9 0 -9 5 -16 10
-16 12 0 13 30 2 47 -6 10 -11 10 -20 1z"/>
<path d="M4760 6180 c0 -5 5 -10 10 -10 6 0 10 5 10 10 0 6 -4 10 -10 10 -5 0
-10 -4 -10 -10z"/>
<path d="M4860 6171 c0 -6 -13 -11 -30 -13 -24 -2 -28 -6 -20 -18 7 -10 12
-12 18 -4 4 6 17 14 30 18 22 7 31 26 12 26 -5 0 -10 -4 -10 -9z"/>
<path d="M4905 6160 c3 -5 8 -10 11 -10 2 0 4 5 4 10 0 6 -5 10 -11 10 -5 0
-7 -4 -4 -10z"/>
<path d="M4889 6116 c-7 -14 -16 -26 -21 -26 -5 0 -7 -4 -4 -8 3 -5 -2 -21
-10 -37 -8 -16 -11 -32 -6 -37 5 -5 14 9 22 31 7 22 17 38 21 35 4 -2 1 -20
-7 -39 -8 -19 -12 -35 -9 -35 3 0 11 13 16 29 6 15 20 34 32 40 14 8 16 10 4
6 -28 -8 -37 3 -26 32 13 35 3 43 -12 9z"/>
<path d="M4916 6034 c-9 -22 -8 -24 9 -18 8 4 15 12 15 20 0 19 -16 18 -24 -2z"/>
<path d="M5132 6015 c0 -16 2 -22 5 -12 2 9 2 23 0 30 -3 6 -5 -1 -5 -18z"/>
<path d="M4895 5990 c-4 -6 -11 -8 -16 -4 -6 3 -10 0 -8 -7 3 -26 -1 -49 -8
-46 -5 1 -10 -2 -13 -7 -3 -5 4 -11 15 -12 30 -5 76 6 69 17 -4 6 -10 6 -18 0
-7 -6 -17 -6 -26 0 -10 6 -12 11 -4 17 6 4 13 17 16 30 6 23 3 29 -7 12z"/>
<path d="M5117 5946 c-5 -21 -6 -40 -3 -43 9 -10 18 24 14 54 -3 26 -4 25 -11
-11z"/>
<path d="M4810 5909 c0 -5 5 -7 10 -4 6 3 10 8 10 11 0 2 -4 4 -10 4 -5 0 -10
-5 -10 -11z"/>
<path d="M5114 5866 c-3 -9 -12 -16 -20 -16 -8 0 -14 -4 -14 -10 0 -5 6 -10
13 -10 14 0 41 39 33 47 -3 3 -8 -2 -12 -11z"/>
<path d="M3600 5812 c0 -6 5 -14 10 -17 17 -11 11 -25 -11 -25 -11 0 -17 5
-14 10 3 6 -1 10 -10 10 -9 0 -13 -5 -9 -11 4 -7 1 -10 -7 -7 -8 3 -23 -5 -33
-16 -15 -16 -18 -17 -13 -4 3 10 2 20 -2 22 -5 3 -11 -12 -15 -34 -3 -22 -10
-40 -15 -40 -6 0 -6 13 -1 33 9 30 8 31 -6 12 -12 -17 -16 -18 -24 -5 -8 12
-10 12 -16 -3 -4 -12 -13 -16 -25 -12 -14 5 -17 2 -13 -9 9 -25 -7 -42 -21
-22 -13 17 -45 13 -45 -6 0 -7 5 -6 13 1 14 11 27 5 27 -11 0 -5 -4 -6 -10 -3
-5 3 -10 2 -10 -4 0 -7 -8 -7 -24 0 -14 7 -22 17 -19 25 3 8 0 14 -6 14 -6 0
-11 -9 -11 -20 0 -11 -5 -20 -12 -20 -9 0 -8 -3 1 -12 11 -10 14 -10 18 0 7
19 23 14 23 -8 0 -13 -5 -18 -15 -14 -8 4 -15 1 -15 -5 0 -6 5 -11 12 -11 6 0
4 -8 -6 -19 -11 -12 -14 -21 -7 -26 6 -3 11 2 11 12 1 17 2 17 15 -1 8 -11 18
-17 21 -13 4 4 1 13 -5 21 -8 10 -9 16 -1 21 10 6 14 -1 11 -18 -1 -5 8 -11
19 -14 22 -6 26 -19 8 -26 -10 -4 -10 -7 0 -18 11 -12 14 -12 22 1 7 12 12 11
31 -5 l22 -20 -7 25 c-6 19 -5 21 3 10 6 -8 8 -23 5 -33 -5 -15 -1 -17 23 -12
15 4 34 8 41 11 6 2 12 -1 12 -6 0 -5 -10 -11 -22 -13 -21 -4 -21 -4 3 -6 14
0 30 -6 37 -13 7 -7 12 -8 12 -2 0 5 -5 15 -12 22 -7 7 -8 12 -4 12 5 0 17
-10 28 -22 13 -15 22 -18 29 -11 7 7 22 8 45 1 19 -5 38 -7 43 -3 5 3 7 -5 3
-17 -3 -14 -2 -19 6 -14 7 4 12 2 12 -3 0 -6 4 -11 10 -11 5 0 7 7 4 15 -4 8
-1 15 5 15 6 0 11 7 11 15 0 8 5 15 10 15 13 0 13 -33 1 -45 -6 -6 -4 -15 5
-23 8 -7 14 -8 14 -2 0 5 7 10 15 10 8 0 15 4 15 10 0 6 -5 9 -11 8 -6 -2 -14
3 -16 10 -3 6 3 12 12 12 9 0 13 5 10 10 -3 6 4 14 17 19 23 10 22 10 -4 10
-16 1 -28 -4 -28 -10 0 -5 -5 -7 -11 -3 -13 8 -1 21 26 26 21 3 27 33 11 56
-11 15 -2 27 14 17 7 -4 10 -16 7 -26 -3 -11 0 -22 6 -27 7 -4 12 -14 12 -22
0 -8 7 -14 17 -12 9 1 19 -2 23 -8 3 -5 16 -10 28 -10 l22 1 -24 19 c-18 15
-19 20 -7 20 9 0 16 5 16 11 0 5 4 8 10 4 5 -3 7 -12 4 -19 -3 -8 -1 -16 3
-19 5 -3 10 4 10 15 2 25 14 37 20 21 7 -21 21 -15 25 9 2 13 11 24 23 26 19
4 19 3 1 -10 -16 -13 -17 -18 -6 -39 10 -17 15 -20 18 -9 3 7 0 16 -6 18 -6 2
-2 12 9 23 l20 20 -23 21 c-16 14 -19 22 -10 25 18 7 4 23 -21 23 -13 0 -17
-3 -11 -8 6 -4 15 -18 19 -32 7 -22 6 -23 -9 -11 -10 8 -16 9 -16 3 0 -6 -8
-9 -17 -5 -15 5 -14 3 2 -11 19 -16 19 -16 -10 -10 -38 9 -43 13 -25 24 24 15
-20 49 -53 43 -37 -7 -34 14 3 22 17 4 30 10 30 15 0 12 -38 23 -52 14 -8 -5
-9 -2 -5 9 5 14 2 16 -19 11 -17 -4 -31 -1 -45 12 -19 17 -19 17 -17 -7 3 -22
0 -24 -29 -21 -21 2 -33 -1 -33 -9 0 -7 -3 -9 -6 -6 -4 4 -1 13 6 22 10 13 9
15 -9 15 -24 0 -24 0 -11 35 7 17 7 24 0 20 -5 -3 -26 6 -45 21 -19 14 -35 22
-35 16z m70 -66 c0 -11 -19 -15 -25 -6 -3 5 1 10 9 10 9 0 16 -2 16 -4z m-133
-28 c-3 -8 -6 -5 -6 6 -1 11 2 17 5 13 3 -3 4 -12 1 -19z m73 -28 c-20 -13
-30 -12 -30 1 0 5 4 8 9 4 5 -3 13 0 16 6 4 5 10 8 13 4 4 -3 0 -10 -8 -15z
m-150 -19 c3 -2 -3 -1 -12 2 -9 3 -19 1 -22 -6 -2 -7 -5 -1 -5 12 -1 23 5 22
39 -8z m350 -1 c0 -11 -4 -20 -10 -20 -5 0 -10 9 -10 20 0 11 5 20 10 20 6 0
10 -9 10 -20z m-425 -70 c3 -5 -1 -10 -10 -10 -9 0 -13 5 -10 10 3 6 8 10 10
10 2 0 7 -4 10 -10z m345 -15 c7 -8 11 -15 9 -16 -31 -6 -39 -6 -39 2 0 5 6 9
13 10 6 0 3 4 -8 9 -15 7 -16 9 -4 9 9 1 22 -6 29 -14z m50 -25 c0 -10 -7 -21
-16 -24 -25 -10 -32 4 -10 20 11 8 14 14 7 14 -7 0 -9 5 -6 10 9 15 25 2 25
-20z m-120 -20 c11 -11 17 -26 14 -35 -5 -13 -8 -12 -22 1 -14 14 -25 54 -15
54 2 0 12 -9 23 -20z"/>
<path d="M3800 5794 c0 -9 4 -13 9 -9 5 3 12 1 15 -3 3 -5 20 -9 37 -10 39 -1
27 13 -23 26 -31 9 -38 8 -38 -4z"/>
<path d="M3358 5793 c-20 -5 -24 -29 -6 -35 15 -5 49 22 42 34 -5 8 -8 9 -36
1z"/>
<path d="M5090 5781 c0 -5 7 -11 15 -15 8 -3 15 -1 15 3 0 5 -7 11 -15 15 -8
3 -15 1 -15 -3z"/>
<path d="M3305 5770 c3 -5 8 -10 11 -10 2 0 4 5 4 10 0 6 -5 10 -11 10 -5 0
-7 -4 -4 -10z"/>
<path d="M3896 5762 c-4 -7 -5 -16 -2 -21 4 -5 0 -12 -6 -14 -9 -4 -8 -6 3 -6
24 -1 60 -41 55 -59 -3 -9 -1 -24 5 -32 8 -12 9 -10 4 8 -5 16 -2 22 9 22 9 0
16 4 16 9 0 5 9 11 20 14 11 3 20 11 20 19 0 10 -3 9 -10 -2 -9 -13 -10 -13
-10 0 0 16 -52 50 -75 50 -7 0 -15 5 -17 12 -3 9 -6 9 -12 0z"/>
<path d="M3216 5751 c-4 -7 -5 -15 -2 -18 9 -9 19 4 14 18 -4 11 -6 11 -12 0z"/>
<path d="M3400 5750 c-13 -8 -12 -10 3 -10 9 0 17 5 17 10 0 12 -1 12 -20 0z"/>
<path d="M3845 5750 c-3 -5 -2 -10 4 -10 5 0 13 5 16 10 3 6 2 10 -4 10 -5 0
-13 -4 -16 -10z"/>
<path d="M3725 5740 c-3 -5 1 -10 9 -10 9 0 16 5 16 10 0 6 -4 10 -9 10 -6 0
-13 -4 -16 -10z"/>
<path d="M5030 5729 c0 -5 5 -7 10 -4 6 3 10 8 10 11 0 2 -4 4 -10 4 -5 0 -10
-5 -10 -11z"/>
<path d="M5005 5710 c-3 -5 -1 -10 4 -10 6 0 11 5 11 10 0 6 -2 10 -4 10 -3 0
-8 -4 -11 -10z"/>
<path d="M4040 5675 c7 -9 15 -13 17 -11 7 7 -7 26 -19 26 -6 0 -6 -6 2 -15z"/>
<path d="M4990 5665 c0 -8 2 -15 4 -15 2 0 6 7 10 15 3 8 1 15 -4 15 -6 0 -10
-7 -10 -15z"/>
<path d="M4070 5637 c0 -8 7 -17 15 -21 8 -3 15 -2 15 3 0 5 -7 14 -15 21 -12
10 -15 10 -15 -3z"/>
<path d="M5035 5618 c1 -19 -3 -28 -13 -28 -9 0 -13 -3 -9 -6 3 -3 15 -3 28 1
12 4 17 10 11 14 -5 3 -12 15 -15 26 -2 11 -4 8 -2 -7z"/>
<path d="M3098 5612 c9 -10 19 -14 21 -9 2 5 -3 13 -10 18 -24 15 -30 10 -11
-9z"/>
<path d="M2987 5577 c-28 -43 -46 -97 -52 -155 -4 -46 -3 -52 6 -32 5 14 15
47 21 75 6 27 19 69 29 92 20 48 19 55 -4 20z"/>
<path d="M3220 5590 c0 -14 26 -23 41 -15 8 6 7 10 -2 16 -19 12 -39 11 -39
-1z"/>
<path d="M4070 5589 c0 -5 5 -7 10 -4 6 3 10 8 10 11 0 2 -4 4 -10 4 -5 0 -10
-5 -10 -11z"/>
<path d="M4962 5569 c2 -7 10 -15 17 -17 8 -3 12 1 9 9 -2 7 -10 15 -17 17 -8
3 -12 -1 -9 -9z"/>
<path d="M3292 5551 c4 -13 18 -16 19 -4 0 4 -5 9 -11 12 -7 2 -11 -2 -8 -8z"/>
<path d="M4040 5549 c0 -5 5 -7 10 -4 6 3 10 8 10 11 0 2 -4 4 -10 4 -5 0 -10
-5 -10 -11z"/>
<path d="M4070 5535 c0 -8 -7 -15 -15 -15 -17 0 -20 -16 -5 -25 6 -3 10 -2 10
3 0 6 10 8 23 6 12 -2 16 -2 10 2 -7 3 -13 10 -13 15 0 5 9 4 19 -3 11 -7 17
-16 14 -21 -3 -5 1 -13 8 -18 21 -13 32 -11 26 5 -3 7 0 19 6 26 9 10 9 11 -1
6 -7 -4 -24 2 -38 13 -32 25 -44 26 -44 6z"/>
<path d="M4940 5539 c0 -5 5 -7 10 -4 6 3 10 8 10 11 0 2 -4 4 -10 4 -5 0 -10
-5 -10 -11z"/>
<path d="M5005 5515 c-48 -18 -48 -18 -40 -5 3 6 1 10 -4 10 -6 0 -11 -11 -11
-25 0 -30 4 -31 37 -5 14 11 32 20 39 20 7 0 16 5 19 10 8 12 9 12 -40 -5z"/>
<path d="M3356 5505 c4 -8 10 -15 15 -15 4 0 6 7 3 15 -4 8 -10 15 -15 15 -4
0 -6 -7 -3 -15z"/>
<path d="M4920 5506 c0 -8 5 -18 10 -21 6 -3 10 3 10 14 0 12 -4 21 -10 21 -5
0 -10 -6 -10 -14z"/>
<path d="M5060 5500 c-8 -5 -12 -12 -9 -15 4 -3 12 1 19 10 14 17 11 19 -10 5z"/>
<path d="M3397 5479 c7 -7 15 -10 18 -7 3 3 -2 9 -12 12 -14 6 -15 5 -6 -5z"/>
<path d="M3885 5460 c-3 -5 1 -10 10 -10 9 0 13 5 10 10 -3 6 -8 10 -10 10 -2
0 -7 -4 -10 -10z"/>
<path d="M4956 5443 c-11 -28 -1 -31 29 -10 17 13 17 14 -3 19 -13 4 -23 0
-26 -9z"/>
<path d="M3289 5443 c-1 -5 0 -17 1 -28 2 -18 0 -18 -19 4 -17 19 -21 21 -21
8 0 -18 -25 -23 -34 -8 -8 13 -58 24 -65 14 -11 -14 -72 -43 -92 -43 -10 0
-19 -4 -19 -10 0 -5 11 -10 24 -10 30 0 50 -24 43 -51 -5 -18 -1 -20 26 -17
24 2 35 11 51 40 10 21 23 35 28 32 16 -10 8 -71 -13 -98 -25 -32 -54 -33 -88
-4 l-26 22 25 -26 c16 -17 38 -28 59 -30 29 -3 36 1 52 32 9 19 19 44 21 55 3
23 20 45 29 39 4 -2 14 5 24 16 10 11 24 20 32 20 14 0 16 10 7 34 -6 16 -43
23 -45 9z m-156 -64 c-6 -6 -17 -8 -24 -3 -9 5 -8 9 7 14 23 9 31 3 17 -11z"/>
<path d="M4129 5423 c-5 -13 -16 -26 -24 -29 -8 -4 -15 -12 -15 -20 0 -11 -5
-11 -25 -2 -14 6 -25 15 -25 20 0 4 -8 8 -17 8 -15 0 -16 -2 -3 -10 11 -7 2
-10 -32 -10 -38 0 -52 -5 -73 -27 -14 -15 -25 -31 -25 -34 0 -11 29 -19 45
-13 18 7 20 21 3 26 -8 3 -3 11 12 21 57 36 127 -20 115 -93 -3 -19 -6 -46 -6
-59 -1 -17 -3 -20 -9 -11 -7 11 -11 11 -24 1 -10 -8 -26 -11 -42 -7 -14 4 -23
3 -20 -2 9 -14 66 -23 84 -13 9 5 25 36 35 68 19 58 19 59 53 55 60 -7 84 4
85 41 0 27 2 29 9 12 10 -23 13 -5 4 19 -3 9 -11 13 -17 9 -6 -4 -8 0 -4 11 4
10 3 15 -3 11 -5 -3 -12 5 -16 19 -8 35 -52 42 -65 9z"/>
<path d="M4890 5426 c0 -24 19 -29 38 -10 16 17 16 18 0 11 -10 -3 -18 -2 -18
3 0 6 -4 10 -10 10 -5 0 -10 -6 -10 -14z"/>
<path d="M5023 5434 c3 -4 -4 -15 -16 -25 -12 -10 -18 -18 -14 -19 5 0 15 7
24 15 8 8 20 12 26 8 7 -4 6 1 -2 10 -7 9 -16 17 -19 17 -3 0 -3 -3 1 -6z"/>
<path d="M3844 5388 c-4 -7 -3 -8 5 -4 17 11 41 -12 35 -32 -4 -13 -2 -12 7 2
10 16 9 21 -7 33 -22 16 -31 16 -40 1z"/>
<path d="M5082 5380 c-12 -19 -11 -20 8 -8 20 13 27 28 12 28 -4 0 -13 -9 -20
-20z"/>
<path d="M3810 5330 c0 -36 16 -40 22 -6 3 15 0 27 -8 30 -10 4 -14 -3 -14
-24z"/>
<path d="M3070 5336 l-25 -14 26 1 c14 1 26 8 26 15 0 6 -1 12 -1 12 -1 -1
-12 -7 -26 -14z"/>
<path d="M3982 5343 c-22 -9 -33 -40 -22 -67 6 -16 6 -27 0 -31 -19 -12 -10
-22 16 -17 15 3 30 15 37 31 7 14 18 31 26 37 11 8 11 15 2 32 -11 21 -31 26
-59 15z m23 -83 c-3 -5 -10 -10 -16 -10 -5 0 -9 5 -9 10 0 6 7 10 16 10 8 0
12 -4 9 -10z"/>
<path d="M5127 5343 c-2 -5 -7 -25 -11 -45 -4 -24 -13 -38 -21 -38 -8 0 -15
-4 -15 -10 0 -5 11 -9 24 -8 15 1 24 8 24 18 -1 8 3 32 7 53 7 34 3 48 -8 30z"/>
<path d="M4876 5314 c-4 -13 -11 -24 -16 -24 -6 0 -10 -12 -9 -27 0 -27 1 -26
17 10 9 20 22 37 29 37 17 0 16 17 -1 23 -9 4 -16 -3 -20 -19z"/>
<path d="M3863 5318 c-19 -25 -24 -38 -14 -38 11 0 35 39 28 46 -2 3 -9 -1
-14 -8z"/>
<path d="M4925 5300 c3 -5 8 -10 11 -10 2 0 4 5 4 10 0 6 -5 10 -11 10 -5 0
-7 -4 -4 -10z"/>
<path d="M4890 5280 c0 -5 5 -10 11 -10 5 0 7 5 4 10 -3 6 -8 10 -11 10 -2 0
-4 -4 -4 -10z"/>
<path d="M5080 5280 c0 -5 5 -10 11 -10 5 0 7 5 4 10 -3 6 -8 10 -11 10 -2 0
-4 -4 -4 -10z"/>
<path d="M3918 5238 c-10 -10 -14 -18 -9 -18 10 0 36 29 30 34 -2 1 -12 -6
-21 -16z"/>
<path d="M4915 5220 c-3 -5 -1 -10 4 -10 6 0 11 5 11 10 0 6 -2 10 -4 10 -3 0
-8 -4 -11 -10z"/>
<path d="M4986 5221 c-4 -5 -2 -12 3 -15 5 -4 12 -2 15 3 4 5 2 12 -3 15 -5 4
-12 2 -15 -3z"/>
<path d="M5090 5216 c0 -8 8 -14 19 -13 11 0 17 6 14 14 -7 18 -33 17 -33 -1z"/>
<path d="M3916 5202 c-2 -4 4 -8 14 -8 10 0 16 4 14 8 -3 4 -9 8 -14 8 -5 0
-11 -4 -14 -8z"/>
<path d="M4865 5194 c-21 -16 -5 -18 29 -5 16 6 17 9 5 13 -8 3 -23 0 -34 -8z"/>
<path d="M5017 5193 c-11 -10 -8 -41 4 -49 9 -5 10 1 5 21 -6 23 -4 26 9 21 9
-3 13 -2 10 4 -7 12 -19 13 -28 3z"/>
<path d="M5090 5167 c23 -24 27 -45 5 -27 -10 9 -15 9 -15 1 0 -6 -4 -11 -10
-11 -5 0 -10 10 -10 22 0 17 -3 19 -12 10 -9 -9 -7 -16 7 -32 19 -21 11 -27
-15 -10 -22 13 -40 -7 -39 -44 2 -30 2 -30 6 -3 3 19 10 27 24 27 11 0 19 -7
19 -16 0 -8 -4 -13 -9 -10 -5 4 -7 -3 -4 -14 4 -15 9 -18 18 -10 8 6 17 6 29
-3 17 -13 17 -14 1 -30 -15 -16 -15 -17 5 -17 20 0 22 4 18 59 -1 33 0 57 5
54 4 -2 7 7 7 21 0 13 3 33 6 43 5 15 4 15 -5 3 -6 -8 -11 -10 -11 -5 0 6 -9
11 -20 12 -20 2 -20 2 0 -20z m5 -97 c-5 -8 -11 -8 -17 -2 -6 6 -7 16 -3 22 5
8 11 8 17 2 6 -6 7 -16 3 -22z"/>
<path d="M4925 5100 c-18 -20 -16 -38 3 -26 8 5 24 46 18 46 -2 0 -11 -9 -21
-20z"/>
<path d="M4955 5090 c-3 -5 -2 -10 4 -10 5 0 13 5 16 10 3 6 2 10 -4 10 -5 0
-13 -4 -16 -10z"/>
<path d="M4800 5080 c0 -6 7 -10 15 -10 8 0 15 2 15 4 0 2 -7 6 -15 10 -8 3
-15 1 -15 -4z"/>
<path d="M3966 5065 c21 -16 44 -19 44 -6 0 5 -10 11 -22 15 -37 9 -43 7 -22
-9z"/>
<path d="M4960 5060 c0 -5 5 -10 10 -10 6 0 10 5 10 10 0 6 -4 10 -10 10 -5 0
-10 -4 -10 -10z"/>
<path d="M4781 5033 c0 -12 2 -13 6 -5 4 10 8 10 21 0 15 -12 16 -11 3 5 -7 9
-17 17 -22 17 -5 0 -9 -8 -8 -17z"/>
<path d="M4353 5023 c-7 -2 -12 -14 -12 -26 1 -17 2 -18 6 -4 5 20 14 22 32 5
11 -11 11 -9 2 10 -6 12 -13 22 -14 21 -1 0 -8 -3 -14 -6z"/>
<path d="M4285 5000 c3 -5 11 -10 16 -10 6 0 7 5 4 10 -3 6 -11 10 -16 10 -6
0 -7 -4 -4 -10z"/>
<path d="M4785 4991 c-8 -7 -6 -21 3 -21 5 0 17 6 28 14 18 14 18 15 -4 13
-13 -1 -25 -3 -27 -6z"/>
<path d="M5073 4965 c-17 -19 -16 -25 2 -25 8 0 15 -9 15 -20 0 -11 5 -20 10
-20 12 0 12 2 0 36 -8 21 -8 29 2 36 10 6 10 8 -2 7 -8 0 -21 -6 -27 -14z"/>
<path d="M4828 4953 c7 -3 16 -2 19 1 4 3 -2 6 -13 5 -11 0 -14 -3 -6 -6z"/>
<path d="M5015 4940 c-10 -11 -13 -20 -7 -20 6 0 16 9 22 20 6 11 9 20 7 20
-2 0 -12 -9 -22 -20z"/>
<path d="M2950 4925 c0 -8 4 -15 10 -15 5 0 7 7 4 15 -4 8 -8 15 -10 15 -2 0
-4 -7 -4 -15z"/>
<path d="M5050 4886 c0 -9 5 -16 10 -16 6 0 10 4 10 9 0 6 -4 13 -10 16 -5 3
-10 -1 -10 -9z"/>
<path d="M5095 4870 c-16 -7 -17 -9 -3 -9 9 -1 20 4 23 9 7 11 7 11 -20 0z"/>
<path d="M4860 4865 c0 -5 5 -17 10 -25 5 -8 10 -10 10 -5 0 6 -5 17 -10 25
-5 8 -10 11 -10 5z"/>
<path d="M4961 4838 c0 -9 -7 -18 -13 -21 -7 -2 -10 -8 -5 -12 11 -13 29 11
24 31 -4 16 -5 16 -6 2z"/>
<path d="M5090 4821 c0 -5 7 -12 16 -15 14 -5 15 -4 4 9 -14 17 -20 19 -20 6z"/>
<path d="M5131 4804 c0 -11 3 -14 6 -6 3 7 2 16 -1 19 -3 4 -6 -2 -5 -13z"/>
<path d="M4857 4780 c4 -16 8 -18 20 -9 11 10 11 14 1 20 -21 14 -26 10 -21
-11z"/>
<path d="M5100 4779 c0 -5 5 -7 10 -4 6 3 10 8 10 11 0 2 -4 4 -10 4 -5 0 -10
-5 -10 -11z"/>
<path d="M5134 4766 c3 -10 1 -25 -6 -34 -11 -13 -10 -14 2 -10 20 6 25 37 9
52 -9 8 -10 7 -5 -8z"/>
<path d="M4960 4767 c0 -24 23 -47 48 -46 20 1 22 2 7 6 -11 3 -28 15 -37 26
-10 12 -18 18 -18 14z"/>
<path d="M5085 4730 c3 -5 8 -10 11 -10 2 0 4 5 4 10 0 6 -5 10 -11 10 -5 0
-7 -4 -4 -10z"/>
<path d="M5086 4695 c4 -8 8 -15 10 -15 2 0 4 7 4 15 0 8 -4 15 -10 15 -5 0
-7 -7 -4 -15z"/>
<path d="M5116 4703 c-10 -10 -7 -25 4 -18 6 3 10 -1 10 -9 0 -9 -4 -16 -9
-16 -11 0 -5 -50 8 -63 8 -8 11 -6 11 6 0 9 -5 17 -11 17 -5 0 -7 5 -3 11 4 7
11 6 21 -4 12 -12 13 -19 3 -36 -6 -12 -16 -19 -22 -15 -6 4 -9 1 -6 -6 2 -7
15 -14 29 -16 28 -3 57 11 46 22 -3 4 -13 1 -22 -6 -12 -10 -15 -10 -15 4 0 9
7 19 15 22 17 7 21 35 4 32 -6 -2 -14 3 -16 10 -3 6 0 12 5 12 11 0 3 48 -9
56 -5 3 -6 -9 -3 -26 4 -19 2 -30 -4 -30 -6 0 -9 7 -6 15 6 16 -19 48 -30 38z"/>
<path d="M5060 4676 c0 -7 32 -66 36 -66 2 0 4 13 4 29 0 20 -6 30 -20 34 -11
3 -20 4 -20 3z"/>
<path d="M3650 3520 c0 -5 7 -10 16 -10 8 0 12 5 9 10 -3 6 -10 10 -16 10 -5
0 -9 -4 -9 -10z"/>
<path d="M3264 3498 l-19 -23 23 19 c12 11 22 21 22 23 0 8 -8 2 -26 -19z"/>
<path d="M3436 3510 c-6 -18 -4 -40 7 -57 11 -18 -3 -16 -24 3 -22 20 -47 7
-73 -38 l-18 -33 34 38 c29 31 37 35 47 23 6 -7 21 -16 32 -19 12 -3 18 -3 15
0 -3 4 0 13 7 21 10 13 9 14 -2 8 -10 -7 -12 -4 -6 13 8 25 -10 65 -19 41z"/>
<path d="M3258 3443 c-16 -8 -28 -18 -28 -24 0 -13 9 -11 26 6 8 8 21 12 28 9
8 -3 17 -1 20 4 10 17 -17 19 -46 5z"/>
<path d="M3370 3406 c-12 -19 -11 -20 2 -8 22 17 50 5 43 -19 -4 -11 -2 -19 4
-19 15 0 14 47 -1 57 -23 14 -34 11 -48 -11z"/>
<path d="M3308 3410 c-2 -6 -10 -12 -19 -13 -23 -4 -92 -47 -85 -54 3 -3 14 1
24 10 10 10 25 17 33 17 10 -1 8 -5 -5 -15 -11 -8 -15 -15 -10 -15 14 0 79 68
72 75 -3 4 -8 1 -10 -5z"/>
<path d="M3381 3373 c-1 -6 -4 -20 -7 -30 -5 -17 -5 -17 6 0 6 10 9 23 6 30
-3 9 -5 9 -5 0z"/>
<path d="M3440 3364 c0 -11 29 -34 34 -26 2 4 -4 13 -15 20 -10 7 -19 10 -19
6z"/>
<path d="M3270 3325 c0 -8 2 -15 4 -15 2 0 6 7 10 15 3 8 1 15 -4 15 -6 0 -10
-7 -10 -15z"/>
<path d="M3415 3320 c-3 -5 -1 -10 4 -10 6 0 11 5 11 10 0 6 -2 10 -4 10 -3 0
-8 -4 -11 -10z"/>
<path d="M2868 3096 c-16 -12 -16 -14 8 -24 14 -7 32 -12 40 -12 8 0 28 -7 44
-15 22 -12 31 -25 39 -66 6 -29 9 -54 7 -56 -3 -3 -15 4 -27 16 -33 31 -58 27
-73 -11 -16 -40 -21 -184 -6 -193 6 -4 10 5 10 23 0 33 29 136 36 129 3 -3 -4
-44 -15 -92 -12 -48 -21 -88 -21 -90 0 -3 14 -20 31 -40 17 -19 27 -35 23 -35
-4 0 11 -18 35 -40 23 -22 47 -40 52 -40 6 0 8 -4 5 -8 -5 -8 56 -54 71 -53 4
0 17 -8 28 -18 49 -44 89 -47 116 -9 33 49 93 114 113 122 19 8 18 9 -13 18
-19 5 -43 20 -53 34 -26 33 -36 30 -35 -8 0 -22 -12 -53 -37 -90 -20 -32 -39
-58 -43 -58 -3 0 -22 15 -43 33 -20 17 -68 57 -106 88 -38 31 -78 73 -89 92
-19 36 -19 38 0 112 18 75 35 102 55 90 5 -3 10 -1 10 6 0 7 3 9 7 6 3 -4 12
-2 19 4 11 9 10 17 -8 42 -12 17 -16 27 -7 22 11 -7 12 -6 2 6 -6 8 -14 31
-18 53 -6 30 -14 41 -39 51 -52 21 -99 26 -118 11z"/>
<path d="M3460 3060 c-9 -6 -10 -10 -3 -10 6 0 15 5 18 10 8 12 4 12 -15 0z"/>
<path d="M2881 3033 c7 -12 15 -20 18 -17 3 2 -3 12 -13 22 -17 16 -18 16 -5
-5z"/>
<path d="M2957 3010 c19 -22 29 -19 20 5 -4 8 -13 15 -22 15 -13 0 -12 -3 2
-20z"/>
<path d="M3640 2909 c0 -5 5 -7 10 -4 6 3 10 8 10 11 0 2 -4 4 -10 4 -5 0 -10
-5 -10 -11z"/>
<path d="M3511 2864 c0 -11 3 -14 6 -6 3 7 2 16 -1 19 -3 4 -6 -2 -5 -13z"/>
<path d="M3588 2873 c6 -2 18 -2 25 0 6 3 1 5 -13 5 -14 0 -19 -2 -12 -5z"/>
<path d="M3621 2859 l-23 -19 29 0 c25 0 78 26 63 31 -24 8 -50 3 -69 -12z"/>
<path d="M3705 2850 c3 -5 11 -10 16 -10 6 0 7 5 4 10 -3 6 -11 10 -16 10 -6
0 -7 -4 -4 -10z"/>
<path d="M3475 2810 c-3 -5 -1 -10 4 -10 6 0 11 5 11 10 0 6 -2 10 -4 10 -3 0
-8 -4 -11 -10z"/>
<path d="M3620 2800 c-25 -22 -11 -27 20 -8 15 10 22 10 32 0 9 -9 8 -12 -7
-12 -15 0 -16 -3 -7 -12 17 -17 33 2 26 30 -8 27 -34 28 -64 2z"/>
<path d="M3705 2810 c-3 -5 1 -10 9 -10 9 0 16 5 16 10 0 6 -4 10 -9 10 -6 0
-13 -4 -16 -10z"/>
<path d="M3516 2783 c-6 -14 -5 -15 5 -6 7 7 10 15 7 18 -3 3 -9 -2 -12 -12z"/>
<path d="M3550 2780 c0 -5 5 -10 10 -10 6 0 10 5 10 10 0 6 -4 10 -10 10 -5 0
-10 -4 -10 -10z"/>
<path d="M3440 2760 c0 -5 5 -10 11 -10 5 0 7 5 4 10 -3 6 -8 10 -11 10 -2 0
-4 -4 -4 -10z"/>
<path d="M3565 2700 c11 -5 27 -9 35 -9 13 -1 13 0 0 9 -8 5 -24 9 -35 9 l-20
0 20 -9z"/>
<path d="M3655 2690 c3 -5 8 -10 11 -10 2 0 4 5 4 10 0 6 -5 10 -11 10 -5 0
-7 -4 -4 -10z"/>
<path d="M5010 1629 c0 -11 4 -18 10 -14 5 3 7 12 3 20 -7 21 -13 19 -13 -6z"/>
<path d="M4880 1076 c0 -2 7 -9 15 -16 12 -10 15 -10 15 4 0 9 -7 16 -15 16
-8 0 -15 -2 -15 -4z"/>
<path d="M807 782 c-10 -10 -17 -23 -17 -29 0 -6 -9 -30 -20 -54 -11 -24 -20
-60 -20 -79 0 -19 -20 -84 -45 -145 -59 -145 -60 -200 -1 -154 27 21 36 59 14
59 -8 1 -6 6 5 14 9 7 17 22 17 33 0 10 5 24 12 31 7 7 9 12 5 12 -4 0 5 19
19 42 16 25 28 59 29 87 3 38 9 52 37 76 58 52 61 60 43 94 -18 36 -53 41 -78
13z"/>
<path d="M1273 705 l-32 -23 32 3 c24 2 33 8 35 24 4 25 5 25 -35 -4z"/>
<path d="M950 704 c-7 -7 -26 -42 -43 -76 -24 -50 -31 -78 -32 -138 -2 -54
-10 -94 -30 -142 -28 -71 -30 -101 -5 -106 19 -3 62 36 57 51 -2 6 6 20 17 29
19 17 20 19 4 28 -16 10 -15 15 10 63 14 28 25 56 24 60 -1 5 2 6 7 2 6 -3 15
4 21 15 9 17 8 22 -7 27 -40 15 -42 33 -12 101 16 35 29 70 29 77 0 19 -27 26
-40 9z"/>
<path d="M1260 541 c-14 -5 -35 -6 -48 -5 -22 4 -22 3 -22 -121 0 -107 2 -125
16 -125 9 0 14 5 12 12 -3 7 8 25 24 40 33 32 36 48 8 48 -21 0 -24 8 -14 35
5 12 9 13 14 5 5 -7 14 7 24 36 11 32 13 50 6 52 -7 3 -7 8 1 18 6 8 10 14 8
13 -2 0 -15 -4 -29 -8z"/>
</g>
</svg>
